# Blender v2.91.2 OBJ File: 'Puddles.blend'
# www.blender.org
mtllib Puddle 01.mtl
o Puddle_Circle
v -0.531936 0.005065 0.457948
v -0.430484 -0.000001 0.547487
v -0.478159 0.000007 0.537725
v -0.362970 -0.000001 0.561809
v -0.358351 -0.000001 0.480283
v -0.612596 -0.000001 0.346834
v -0.616739 0.000133 0.293385
v -0.605314 -0.000001 0.388123
v -0.609450 -0.000001 0.269144
v -0.597259 -0.000002 0.196202
v -0.583617 -0.000001 0.090947
v -0.454291 -0.000001 0.384342
v -0.454291 -0.000001 0.288402
v -0.358351 -0.000001 0.384342
v -0.358351 -0.000001 0.288402
v -0.454291 -0.000001 0.192461
v -0.454291 -0.000001 0.096520
v -0.358351 -0.000001 0.192461
v -0.358351 -0.000001 0.096520
v -0.130401 -0.000001 0.639610
v -0.271233 0.000020 0.584291
v -0.262410 -0.000001 0.480283
v -0.177025 -0.000001 0.623743
v -0.166469 -0.000001 0.480283
v -0.075504 0.000006 0.659895
v 0.030387 -0.000018 0.667779
v -0.070528 -0.000001 0.576224
v -0.070528 -0.000001 0.480283
v 0.025412 -0.000001 0.576224
v 0.025412 -0.000001 0.480283
v -0.262410 -0.000001 0.384342
v -0.262410 -0.000001 0.288402
v -0.166469 -0.000001 0.384342
v -0.166469 -0.000001 0.288402
v -0.262410 -0.000001 0.192461
v -0.262410 -0.000001 0.096520
v -0.166469 -0.000001 0.192461
v -0.166469 -0.000001 0.096520
v -0.070528 -0.000001 0.384342
v -0.070528 -0.000001 0.288402
v 0.025412 -0.000001 0.384342
v 0.025412 -0.000001 0.288402
v -0.070528 -0.000001 0.192461
v -0.070528 -0.000001 0.096520
v 0.025412 -0.000001 0.192461
v 0.025412 -0.000001 0.096520
v -0.531962 0.015746 0.457965
v -0.426029 0.009680 0.526483
v -0.469536 0.009653 0.516035
v -0.358514 0.009680 0.540803
v -0.358351 0.009680 0.480283
v -0.599645 0.005427 0.344550
v -0.600509 0.007439 0.311679
v -0.582213 0.009680 0.384048
v -0.593065 0.009887 0.280367
v -0.575756 0.009678 0.188124
v -0.563466 0.009680 0.093418
v -0.454291 0.009680 0.384342
v -0.454291 0.009680 0.288402
v -0.358351 0.009680 0.384342
v -0.358351 0.009680 0.288402
v -0.454291 0.009680 0.192461
v -0.454291 0.009680 0.096520
v -0.358351 0.009680 0.192461
v -0.358351 0.009680 0.096520
v -0.126020 0.005894 0.626759
v -0.265105 0.009698 0.563256
v -0.262410 0.009680 0.480283
v -0.169309 0.009680 0.602826
v -0.166469 0.009680 0.480283
v -0.071496 0.009707 0.636936
v 0.026822 0.009662 0.645153
v -0.088928 0.009680 0.630192
v -0.070528 0.009680 0.480283
v 0.025412 0.009680 0.576224
v 0.025412 0.009680 0.480283
v -0.262410 0.009680 0.384342
v -0.262410 0.009680 0.288402
v -0.166469 0.009680 0.384342
v -0.166469 0.009680 0.288402
v -0.262410 0.009680 0.192461
v -0.262410 0.009680 0.096520
v -0.166469 0.009680 0.192461
v -0.166469 0.009680 0.096520
v -0.070528 0.009680 0.384342
v -0.070528 0.009680 0.288402
v 0.025412 0.009680 0.384342
v 0.025412 0.009680 0.288402
v -0.070528 0.009680 0.192461
v -0.070528 0.009680 0.096520
v 0.025412 0.009680 0.192461
v 0.025412 0.009680 0.096520
v -0.570091 0.000008 0.000692
v -0.578921 -0.000001 -0.090061
v -0.589084 -0.000017 -0.187842
v -0.587686 -0.000006 -0.289977
v -0.454291 -0.000001 0.000579
v -0.454291 -0.000001 -0.095361
v -0.358351 -0.000001 0.000579
v -0.358351 -0.000001 -0.095361
v -0.454291 -0.000001 -0.191302
v -0.454291 -0.000001 -0.287243
v -0.358351 -0.000001 -0.191302
v -0.358351 -0.000001 -0.287243
v -0.574408 0.000035 -0.396268
v -0.516730 0.008315 -0.452523
v -0.454291 -0.000001 -0.383184
v -0.474306 -0.000001 -0.522691
v -0.358351 -0.000001 -0.383184
v -0.358351 -0.000001 -0.479124
v -0.417855 0.004970 -0.532051
v -0.361504 -0.000001 -0.558663
v -0.262410 -0.000001 0.000579
v -0.262410 -0.000001 -0.095361
v -0.166469 -0.000001 0.000579
v -0.166469 -0.000001 -0.095361
v -0.262410 -0.000001 -0.191302
v -0.262410 -0.000001 -0.287243
v -0.166469 -0.000001 -0.191302
v -0.166469 -0.000001 -0.287243
v -0.070528 -0.000001 0.000579
v -0.070528 -0.000001 -0.095361
v 0.025412 -0.000001 0.000579
v 0.025412 -0.000001 -0.095361
v -0.070528 -0.000001 -0.191302
v -0.070528 -0.000001 -0.287243
v 0.025412 -0.000001 -0.191302
v 0.025412 -0.000001 -0.287243
v -0.262410 -0.000001 -0.383184
v -0.262410 -0.000001 -0.479124
v -0.166469 -0.000001 -0.383184
v -0.166469 -0.000001 -0.479124
v -0.263700 0.000052 -0.569373
v -0.164217 -0.000003 -0.562769
v -0.070528 -0.000001 -0.383184
v -0.070528 -0.000001 -0.479124
v 0.025412 -0.000001 -0.383184
v 0.030784 -0.000001 -0.531175
v -0.068237 -0.000001 -0.549156
v -0.011836 0.000001 -0.540691
v -0.549828 0.009688 0.000627
v -0.559139 0.009680 -0.092498
v -0.568762 0.009660 -0.189255
v -0.566242 0.009667 -0.288802
v -0.454291 0.009680 0.000579
v -0.454291 0.009680 -0.095361
v -0.358351 0.009680 0.000579
v -0.358351 0.009680 -0.095361
v -0.454291 0.009680 -0.191302
v -0.454291 0.009680 -0.287243
v -0.358351 0.009680 -0.191302
v -0.358351 0.009680 -0.287243
v -0.551559 0.009676 -0.389641
v -0.516749 0.011649 -0.452541
v -0.454291 0.009680 -0.383184
v -0.462023 0.009680 -0.500656
v -0.358351 0.009680 -0.383184
v -0.358351 0.009680 -0.479124
v -0.417864 0.008307 -0.532079
v -0.358206 0.009680 -0.536473
v -0.262410 0.009680 0.000579
v -0.262410 0.009680 -0.095361
v -0.166469 0.009680 0.000579
v -0.166469 0.009680 -0.095361
v -0.262410 0.009680 -0.191302
v -0.262410 0.009680 -0.287243
v -0.166469 0.009680 -0.191302
v -0.166469 0.009680 -0.287243
v -0.070528 0.009680 0.000579
v -0.070528 0.009680 -0.095361
v 0.025412 0.009680 0.000579
v 0.025412 0.009680 -0.095361
v -0.070528 0.009680 -0.191302
v -0.070528 0.009680 -0.287243
v 0.025412 0.009680 -0.191302
v 0.025412 0.009680 -0.287243
v -0.262410 0.009680 -0.383184
v -0.262410 0.009680 -0.479124
v -0.166469 0.009680 -0.383184
v -0.166469 0.009680 -0.479124
v -0.262732 0.009719 -0.547838
v -0.166105 0.009675 -0.542564
v -0.070528 0.009680 -0.383184
v -0.063427 0.009680 -0.528367
v 0.025412 0.009680 -0.383184
v 0.026263 0.009687 -0.513189
v -0.071076 0.009680 -0.529470
v -0.013952 0.005871 -0.528980
v 0.099400 -0.000001 0.647826
v 0.149445 -0.000004 0.631230
v 0.121353 -0.000001 0.480283
v 0.235694 -0.000003 0.572008
v 0.217294 -0.000001 0.480283
v 0.274503 -0.000001 0.538311
v 0.325397 -0.000001 0.493613
v 0.372449 -0.000001 0.443153
v 0.121353 -0.000001 0.384342
v 0.121353 -0.000001 0.288402
v 0.217294 -0.000001 0.384342
v 0.217294 -0.000001 0.288402
v 0.121353 -0.000001 0.192461
v 0.121353 -0.000001 0.096520
v 0.217294 -0.000001 0.192461
v 0.217294 -0.000001 0.096520
v 0.313235 -0.000001 0.384342
v 0.313235 -0.000001 0.288402
v 0.419448 -0.000001 0.391826
v 0.464427 -0.000001 0.336559
v 0.313235 -0.000001 0.192461
v 0.313235 -0.000001 0.096520
v 0.409175 -0.000001 0.192461
v 0.409175 -0.000001 0.096520
v 0.507405 -0.000017 0.289478
v 0.559905 -0.000001 0.248273
v 0.505116 -0.000001 0.192461
v 0.505116 -0.000001 0.096520
v 0.609828 -0.000002 0.205168
v 0.601057 -0.000001 0.096520
v 0.661023 -0.000001 0.156835
v 0.701056 0.000056 0.121049
v 0.092249 0.009680 0.626727
v 0.139442 0.009672 0.611903
v 0.121353 0.009680 0.480283
v 0.223208 0.009671 0.555831
v 0.257574 0.009680 0.526123
v 0.267025 0.005394 0.529801
v 0.311329 0.009678 0.479140
v 0.363763 0.005746 0.435058
v 0.121353 0.009680 0.384342
v 0.121353 0.009680 0.288402
v 0.217294 0.009680 0.384342
v 0.217294 0.009680 0.288402
v 0.121353 0.009680 0.192461
v 0.121353 0.009680 0.096520
v 0.217294 0.009680 0.192461
v 0.217294 0.009680 0.096520
v 0.359625 0.009680 0.427577
v 0.313235 0.009680 0.288402
v 0.393410 0.009680 0.391226
v 0.449627 0.009680 0.323133
v 0.313235 0.009680 0.192461
v 0.313235 0.009680 0.096520
v 0.409175 0.009680 0.192461
v 0.409175 0.009680 0.096520
v 0.506803 0.009559 0.264791
v 0.553506 0.004978 0.240790
v 0.543383 0.009680 0.237212
v 0.505116 0.009680 0.096520
v 0.596917 0.009668 0.190720
v 0.645699 0.009680 0.144260
v 0.652630 0.006053 0.147860
v 0.684127 0.009643 0.108166
v 0.121353 -0.000001 0.000579
v 0.121353 -0.000001 -0.095361
v 0.217294 -0.000001 0.000579
v 0.217294 -0.000001 -0.095361
v 0.121353 -0.000001 -0.191302
v 0.121353 -0.000001 -0.287243
v 0.217294 -0.000001 -0.191302
v 0.217294 -0.000001 -0.287243
v 0.313235 -0.000001 0.000579
v 0.313235 -0.000001 -0.095361
v 0.409175 -0.000001 0.000579
v 0.409175 -0.000001 -0.095361
v 0.313235 -0.000001 -0.191302
v 0.313235 -0.000001 -0.287243
v 0.409175 -0.000001 -0.191302
v 0.447685 -0.000001 -0.330518
v 0.121353 -0.000001 -0.383184
v 0.132346 0.000000 -0.508024
v 0.217294 -0.000001 -0.383184
v 0.227636 -0.000002 -0.476737
v 0.334259 -0.000001 -0.419441
v 0.284687 0.000008 -0.450977
v 0.399670 -0.000004 -0.374302
v 0.505116 -0.000001 0.000579
v 0.505116 -0.000001 -0.095361
v 0.601057 -0.000001 0.000579
v 0.652791 -0.000001 -0.146867
v 0.550093 -0.000001 -0.242422
v 0.514513 -0.000002 -0.271649
v 0.604977 -0.000003 -0.195549
v 0.754834 0.001118 0.032327
v 0.690858 0.000107 -0.112929
v 0.121353 0.009680 0.000579
v 0.121353 0.009680 -0.095361
v 0.217294 0.009680 0.000579
v 0.217294 0.009680 -0.095361
v 0.121353 0.009680 -0.191302
v 0.121353 0.009680 -0.287243
v 0.217294 0.009680 -0.191302
v 0.217294 0.009680 -0.287243
v 0.313235 0.009680 0.000579
v 0.313235 0.009680 -0.095361
v 0.409175 0.009680 0.000579
v 0.409175 0.009680 -0.095361
v 0.313235 0.009680 -0.191302
v 0.313235 0.009680 -0.287243
v 0.409175 0.009680 -0.191302
v 0.434273 0.009680 -0.315516
v 0.121353 0.009680 -0.383184
v 0.127503 0.009681 -0.489065
v 0.217294 0.009680 -0.383184
v 0.220841 0.009679 -0.458364
v 0.323125 0.009680 -0.403039
v 0.275082 0.009688 -0.433692
v 0.387380 0.009676 -0.358505
v 0.505116 0.009680 0.000579
v 0.505116 0.009680 -0.095361
v 0.601057 0.009680 0.000579
v 0.638011 0.009680 -0.132135
v 0.536540 0.009680 -0.227724
v 0.488694 0.009679 -0.267526
v 0.591178 0.009666 -0.180527
v 0.732867 0.010152 0.021475
v 0.683446 0.009662 -0.086105
vn -0.2081 -0.1970 0.9580
vn -0.5049 -0.2755 0.8180
vn 0.0000 -1.0000 0.0000
vn -0.2169 -0.2114 0.9530
vn -0.9710 -0.1970 0.1351
vn -0.9772 -0.1885 -0.0977
vn -0.9560 -0.2390 -0.1702
vn -0.8725 -0.2730 0.4051
vn -0.0080 -0.9999 0.0068
vn -0.9596 -0.2335 -0.1569
vn -0.9662 -0.2200 -0.1342
vn -0.3044 -0.2168 0.9275
vn -0.3459 -0.2003 0.9166
vn -0.2056 -0.1837 0.9612
vn 0.1048 -0.1796 0.9781
vn -0.3280 -0.1643 0.9303
vn -0.7395 -0.2312 0.6321
vn -0.0461 0.9782 0.2023
vn -0.0001 1.0000 -0.0000
vn -0.1821 0.9472 0.2638
vn -0.0443 0.9781 0.2035
vn -0.2785 0.9481 0.1536
vn -0.2299 0.9725 -0.0358
vn -0.3525 0.9355 0.0241
vn -0.3440 0.9377 0.0492
vn 0.0000 1.0000 0.0000
vn 0.0004 1.0000 0.0000
vn 0.0102 0.9999 -0.0082
vn 0.0002 1.0000 -0.0002
vn -0.2203 0.9749 -0.0306
vn -0.2196 0.9750 -0.0329
vn -0.0736 0.9781 0.1946
vn -0.0607 0.9805 0.1870
vn -0.0644 0.9807 0.1844
vn 0.0208 0.9756 0.2186
vn -0.0464 0.9765 0.2106
vn -0.1299 0.9199 0.3700
vn -0.2712 0.9341 0.2319
vn 0.0000 -1.0000 -0.0001
vn -0.9706 -0.2393 -0.0253
vn -0.9700 -0.2230 0.0970
vn -0.9766 -0.2111 0.0417
vn -0.9767 -0.2017 -0.0728
vn -0.0149 -0.9998 -0.0117
vn -0.5490 -0.2366 -0.8016
vn -0.0040 -0.9999 -0.0129
vn -0.9183 -0.2076 -0.3370
vn -0.7804 0.0680 -0.6216
vn -0.3165 0.0474 -0.9474
vn -0.1667 -0.2220 -0.9607
vn 0.0000 -1.0000 -0.0002
vn -0.0001 -1.0000 -0.0001
vn 0.2120 -0.2332 -0.9490
vn -0.0255 -0.1992 -0.9796
vn 0.0977 -0.2142 -0.9719
vn 0.1389 -0.2236 -0.9647
vn 0.1736 -0.2251 -0.9587
vn -0.2215 0.9749 0.0221
vn -0.2044 0.9789 -0.0045
vn -0.2150 0.9765 -0.0162
vn -0.2264 0.9740 0.0092
vn -0.0014 1.0000 -0.0040
vn -0.1405 0.9697 -0.1996
vn 0.0038 1.0000 0.0031
vn -0.1942 0.9686 -0.1549
vn -0.2301 0.9693 -0.0863
vn -0.0393 0.9725 -0.2296
vn -0.0894 0.9598 -0.2658
vn 0.0000 1.0000 0.0001
vn 0.0507 0.9717 -0.2305
vn 0.0335 0.9790 -0.2008
vn 0.0226 0.9745 -0.2232
vn -0.0053 0.9753 -0.2208
vn 0.0737 0.9046 -0.4198
vn 0.0320 0.9747 -0.2212
vn 0.4341 -0.1931 0.8799
vn 0.5963 -0.2095 0.7749
vn 0.6796 -0.2153 0.7012
vn 0.6410 -0.2202 0.7352
vn 0.7292 -0.2323 0.6436
vn 0.7439 -0.2188 0.6315
vn 0.0016 -1.0000 -0.0013
vn 0.6539 -0.2263 0.7219
vn 0.7612 -0.1888 0.6204
vn 0.6687 -0.1888 0.7191
vn 0.6740 -0.2450 0.6970
vn 0.6184 -0.2247 0.7530
vn 0.7148 -0.2237 0.6626
vn 0.1371 0.9744 0.1782
vn 0.1450 0.9753 0.1666
vn 0.0994 0.9740 0.2036
vn 0.2828 0.9026 0.3247
vn 0.1589 0.9735 0.1640
vn 0.1706 0.9735 0.1519
vn 0.1668 0.9749 0.1474
vn 0.1633 0.9747 0.1525
vn 0.0001 1.0000 0.0001
vn 0.1559 0.9725 0.1727
vn 0.1549 0.9741 0.1644
vn 0.1486 0.9721 0.1815
vn 0.2994 0.8990 0.3196
vn 0.1696 0.9748 0.1445
vn 0.2846 0.8935 0.3474
vn 0.1493 0.9732 0.1748
vn 0.3196 0.8997 0.2972
vn 0.6510 -0.2238 -0.7253
vn 0.2621 -0.2242 -0.9386
vn 0.3534 -0.2203 -0.9091
vn 0.4652 -0.2166 -0.8583
vn 0.5395 -0.2225 -0.8120
vn 0.6911 -0.2134 -0.6905
vn 0.0024 -1.0000 -0.0002
vn 0.7661 -0.1889 -0.6143
vn 0.9764 -0.1467 0.1583
vn 0.6286 -0.2222 -0.7453
vn 0.6682 -0.2139 -0.7126
vn 0.6339 -0.1802 -0.7521
vn 0.6082 -0.2148 -0.7642
vn 0.1478 0.9752 -0.1647
vn 0.0852 0.9720 -0.2186
vn 0.0637 0.9717 -0.2272
vn 0.1259 0.9738 -0.1896
vn 0.1120 0.9719 -0.2071
vn -0.0008 1.0000 -0.0001
vn 0.1458 0.9782 -0.1479
vn 0.2624 0.9645 -0.0276
vn 0.2205 0.9666 -0.1309
vn 0.1543 0.9742 -0.1643
vn 0.1449 0.9744 -0.1719
vn 0.1460 0.9748 -0.1688
vn 0.1449 0.9726 -0.1818
vn 0.2856 -0.2019 0.9368
vn 0.0598 0.9785 0.1972
usemtl None
s 1
f 2//1 3//2 5//3 4//4
f 6//5 7//6 9//7 8//8
f 12//9 13//3 15//3 14//3
f 16//3 17//3 19//3 18//3
f 8//8 9//7 13//3 12//9
f 10//10 11//11 17//3 16//3
f 13//3 16//3 18//3 15//3
f 9//7 10//10 16//3 13//3
f 21//12 22//3 24//3 23//13
f 27//3 28//3 30//3 29//3
f 23//13 24//3 28//3 27//3
f 25//14 27//3 29//3 26//15
f 20//16 23//13 27//3 25//14
f 31//3 32//3 34//3 33//3
f 35//3 36//3 38//3 37//3
f 39//3 40//3 42//3 41//3
f 43//3 44//3 46//3 45//3
f 33//3 34//3 40//3 39//3
f 37//3 38//3 44//3 43//3
f 32//3 35//3 37//3 34//3
f 40//3 43//3 45//3 42//3
f 34//3 37//3 43//3 40//3
f 4//4 5//3 22//3 21//12
f 14//3 15//3 32//3 31//3
f 18//3 19//3 36//3 35//3
f 15//3 18//3 35//3 32//3
f 3//2 12//9 14//3 5//3
f 1//17 8//8 12//9 3//2
f 22//3 31//3 33//3 24//3
f 28//3 39//3 41//3 30//3
f 24//3 33//3 39//3 28//3
f 5//3 14//3 31//3 22//3
f 50//18 51//19 49//20 48//21
f 54//22 55//23 53//24 52//25
f 60//26 61//26 59//27 58//28
f 64//26 65//26 63//26 62//29
f 58//28 59//27 55//23 54//22
f 62//29 63//26 57//30 56//31
f 61//26 64//26 62//29 59//27
f 59//27 62//29 56//31 55//23
f 69//32 70//26 68//26 67//33
f 75//26 76//26 74//26 73//34
f 73//34 74//26 70//26 69//32
f 72//35 75//26 73//34 71//36
f 71//36 73//34 69//32 66//37
f 79//26 80//26 78//26 77//26
f 83//26 84//26 82//26 81//26
f 87//26 88//26 86//26 85//26
f 91//26 92//26 90//26 89//26
f 85//26 86//26 80//26 79//26
f 89//26 90//26 84//26 83//26
f 80//26 83//26 81//26 78//26
f 88//26 91//26 89//26 86//26
f 86//26 89//26 83//26 80//26
f 67//33 68//26 51//19 50//18
f 77//26 78//26 61//26 60//26
f 81//26 82//26 65//26 64//26
f 78//26 81//26 64//26 61//26
f 51//19 60//26 58//28 49//20
f 49//20 58//28 54//22 47//38
f 70//26 79//26 77//26 68//26
f 76//26 87//26 85//26 74//26
f 74//26 85//26 79//26 70//26
f 68//26 77//26 60//26 51//19
f 97//3 98//3 100//3 99//3
f 101//3 102//39 104//3 103//3
f 93//40 94//41 98//3 97//3
f 95//42 96//43 102//39 101//3
f 98//3 101//3 103//3 100//3
f 94//41 95//42 101//3 98//3
f 107//44 108//45 110//46 109//3
f 105//47 106//48 108//45 107//44
f 108//45 111//49 112//50 110//46
f 113//3 114//3 116//3 115//3
f 117//3 118//3 120//3 119//3
f 121//3 122//3 124//3 123//3
f 125//3 126//3 128//3 127//3
f 115//3 116//3 122//3 121//3
f 119//3 120//3 126//3 125//3
f 114//3 117//3 119//3 116//3
f 122//3 125//3 127//3 124//3
f 116//3 119//3 125//3 122//3
f 129//3 130//51 132//52 131//3
f 135//3 136//3 138//53 137//3
f 131//3 132//52 136//3 135//3
f 130//51 133//54 134//55 132//52
f 136//3 139//56 140//57 138//53
f 132//52 134//55 139//56 136//3
f 99//3 100//3 114//3 113//3
f 103//3 104//3 118//3 117//3
f 100//3 103//3 117//3 114//3
f 109//3 110//46 130//51 129//3
f 110//46 112//50 133//54 130//51
f 102//39 107//44 109//3 104//3
f 96//43 105//47 107//44 102//39
f 118//3 129//3 131//3 120//3
f 126//3 135//3 137//3 128//3
f 120//3 131//3 135//3 126//3
f 104//3 109//3 129//3 118//3
f 147//26 148//26 146//26 145//26
f 151//26 152//26 150//26 149//26
f 145//26 146//26 142//58 141//59
f 149//26 150//26 144//60 143//61
f 148//26 151//26 149//26 146//26
f 146//26 149//26 143//61 142//58
f 157//26 158//62 156//63 155//64
f 155//64 156//63 154//65 153//66
f 158//62 160//67 159//68 156//63
f 163//26 164//26 162//26 161//26
f 167//26 168//26 166//26 165//26
f 171//26 172//26 170//26 169//26
f 175//26 176//26 174//26 173//26
f 169//26 170//26 164//26 163//26
f 173//26 174//26 168//26 167//26
f 164//26 167//26 165//26 162//26
f 172//26 175//26 173//26 170//26
f 170//26 173//26 167//26 164//26
f 179//26 180//26 178//69 177//26
f 185//26 186//70 184//71 183//26
f 183//26 184//71 180//26 179//26
f 180//26 182//72 181//73 178//69
f 186//70 188//74 187//75 184//71
f 184//71 187//75 182//72 180//26
f 161//26 162//26 148//26 147//26
f 165//26 166//26 152//26 151//26
f 162//26 165//26 151//26 148//26
f 177//26 178//69 158//62 157//26
f 178//69 181//73 160//67 158//62
f 152//26 157//26 155//64 150//26
f 150//26 155//64 153//66 144//60
f 168//26 179//26 177//26 166//26
f 176//26 185//26 183//26 174//26
f 174//26 183//26 179//26 168//26
f 166//26 177//26 157//26 152//26
f 190//76 191//3 193//3 192//77
f 192//77 193//3 195//78 194//79
f 197//3 198//3 200//3 199//3
f 201//3 202//3 204//3 203//3
f 205//3 206//3 208//80 207//81
f 209//3 210//3 212//3 211//3
f 199//3 200//3 206//3 205//3
f 203//3 204//3 210//3 209//3
f 198//3 201//3 203//3 200//3
f 206//3 209//3 211//3 208//80
f 200//3 203//3 209//3 206//3
f 215//3 216//3 218//82 217//83
f 217//83 218//82 220//84 219//85
f 213//86 215//3 217//83 214//87
f 211//3 212//3 216//3 215//3
f 208//80 211//3 215//3 213//86
f 191//3 197//3 199//3 193//3
f 195//78 205//3 207//81 196//88
f 193//3 199//3 205//3 195//78
f 224//89 225//90 223//26 222//91
f 226//92 227//93 225//90 224//89
f 231//26 232//26 230//26 229//26
f 235//26 236//26 234//26 233//26
f 239//94 240//95 238//26 237//96
f 243//97 244//26 242//26 241//26
f 237//96 238//26 232//26 231//26
f 241//26 242//26 236//26 235//26
f 232//26 235//26 233//26 230//26
f 240//95 243//97 241//26 238//26
f 238//26 241//26 235//26 232//26
f 249//98 250//99 248//26 247//100
f 251//101 252//102 250//99 249//98
f 246//103 249//98 247//100 245//104
f 247//100 248//26 244//26 243//97
f 245//104 247//100 243//97 240//95
f 225//90 231//26 229//26 223//26
f 228//105 239//94 237//96 227//93
f 227//93 237//96 231//26 225//90
f 253//3 254//3 256//3 255//3
f 257//3 258//3 260//3 259//3
f 261//3 262//3 264//3 263//3
f 265//3 266//3 268//106 267//3
f 255//3 256//3 262//3 261//3
f 259//3 260//3 266//3 265//3
f 254//3 257//3 259//3 256//3
f 262//3 265//3 267//3 264//3
f 256//3 259//3 265//3 262//3
f 269//3 270//107 272//108 271//3
f 271//3 272//108 274//109 273//110
f 276//3 277//3 279//111 278//112
f 278//112 279//111 284//113 283//114
f 277//3 280//115 282//116 279//111
f 263//3 264//3 277//3 276//3
f 267//3 268//106 281//117 280//115
f 264//3 267//3 280//115 277//3
f 258//3 269//3 271//3 260//3
f 266//3 273//110 275//118 268//106
f 260//3 271//3 273//110 266//3
f 287//26 288//26 286//26 285//26
f 291//26 292//26 290//26 289//26
f 295//26 296//26 294//26 293//26
f 299//26 300//119 298//26 297//26
f 293//26 294//26 288//26 287//26
f 297//26 298//26 292//26 291//26
f 288//26 291//26 289//26 286//26
f 296//26 299//26 297//26 294//26
f 294//26 297//26 291//26 288//26
f 303//26 304//120 302//121 301//26
f 305//122 306//123 304//120 303//26
f 310//124 311//125 309//26 308//26
f 315//126 316//127 311//125 310//124
f 311//125 314//128 312//129 309//26
f 308//26 309//26 296//26 295//26
f 312//129 313//130 300//119 299//26
f 309//26 312//129 299//26 296//26
f 292//26 303//26 301//26 290//26
f 300//119 307//131 305//122 298//26
f 298//26 305//122 303//26 292//26
f 29//3 30//3 191//3 190//76
f 26//15 29//3 190//76 189//132
f 41//3 42//3 198//3 197//3
f 45//3 46//3 202//3 201//3
f 42//3 45//3 201//3 198//3
f 30//3 41//3 197//3 191//3
f 222//91 223//26 76//26 75//26
f 221//133 222//91 75//26 72//35
f 229//26 230//26 88//26 87//26
f 233//26 234//26 92//26 91//26
f 230//26 233//26 91//26 88//26
f 223//26 229//26 87//26 76//26
f 123//3 124//3 254//3 253//3
f 127//3 128//3 258//3 257//3
f 124//3 127//3 257//3 254//3
f 137//3 138//53 270//107 269//3
f 128//3 137//3 269//3 258//3
f 285//26 286//26 172//26 171//26
f 289//26 290//26 176//26 175//26
f 286//26 289//26 175//26 172//26
f 301//26 302//121 186//70 185//26
f 290//26 301//26 185//26 176//26
f 17//3 97//3 99//3 19//3
f 11//11 93//40 97//3 17//3
f 36//3 113//3 115//3 38//3
f 44//3 121//3 123//3 46//3
f 38//3 115//3 121//3 44//3
f 19//3 99//3 113//3 36//3
f 202//3 253//3 255//3 204//3
f 210//3 261//3 263//3 212//3
f 204//3 255//3 261//3 210//3
f 216//3 276//3 278//112 218//82
f 218//82 278//112 283//114 220//84
f 212//3 263//3 276//3 216//3
f 65//26 147//26 145//26 63//26
f 63//26 145//26 141//59 57//30
f 84//26 163//26 161//26 82//26
f 92//26 171//26 169//26 90//26
f 90//26 169//26 163//26 84//26
f 82//26 161//26 147//26 65//26
f 236//26 287//26 285//26 234//26
f 244//26 295//26 293//26 242//26
f 242//26 293//26 287//26 236//26
f 250//99 310//124 308//26 248//26
f 252//102 315//126 310//124 250//99
f 248//26 308//26 295//26 244//26
f 2//1 48//21 49//20 3//2
f 2//1 4//4 50//18 48//21
f 1//17 3//2 49//20 47//38
f 6//5 52//25 53//24 7//6
f 6//5 8//8 54//22 52//25
f 53//24 55//23 9//7 7//6
f 10//10 56//31 57//30 11//11
f 9//7 55//23 56//31 10//10
f 21//12 23//13 69//32 67//33
f 25//14 26//15 72//35 71//36
f 20//16 66//37 69//32 23//13
f 20//16 25//14 71//36 66//37
f 1//17 47//38 54//22 8//8
f 4//4 21//12 67//33 50//18
f 93//40 141//59 142//58 94//41
f 95//42 143//61 144//60 96//43
f 94//41 142//58 143//61 95//42
f 105//47 153//66 154//65 106//48
f 159//68 160//67 112//50 111//49
f 108//45 156//63 159//68 111//49
f 154//65 156//63 108//45 106//48
f 181//73 182//72 134//55 133//54
f 187//75 188//74 140//57 139//56
f 140//57 188//74 186//70 138//53
f 182//72 187//75 139//56 134//55
f 96//43 144//60 153//66 105//47
f 160//67 181//73 133//54 112//50
f 190//76 192//77 224//89 222//91
f 195//78 227//93 226//92 194//79
f 195//78 196//88 228//105 227//93
f 190//76 222//91 221//133 189//132
f 192//77 194//79 226//92 224//89
f 208//80 240//95 239//94 207//81
f 213//86 214//87 246//103 245//104
f 220//84 252//102 251//101 219//85
f 217//83 249//98 246//103 214//87
f 217//83 219//85 251//101 249//98
f 207//81 239//94 228//105 196//88
f 208//80 213//86 245//104 240//95
f 302//121 304//120 272//108 270//107
f 274//109 306//123 305//122 273//110
f 305//122 307//131 275//118 273//110
f 304//120 306//123 274//109 272//108
f 281//117 313//130 312//129 280//115
f 312//129 314//128 282//116 280//115
f 284//113 316//127 315//126 283//114
f 282//116 314//128 311//125 279//111
f 311//125 316//127 284//113 279//111
f 275//118 307//131 300//119 268//106
f 300//119 313//130 281//117 268//106
f 11//11 57//30 141//59 93//40
f 283//114 315//126 252//102 220//84
f 26//15 189//132 221//133 72//35
f 186//70 302//121 270//107 138//53
f 46//3 123//3 253//3 202//3
f 234//26 285//26 171//26 92//26
