# Blender v2.91.2 OBJ File: 'Barbershop.blend'
# www.blender.org
mtllib Barber Wall Shelf 01.mtl
o Cube.014_Cube.029
v -0.750000 -0.061211 -0.299515
v -0.750000 0.061211 -0.299515
v 0.750000 -0.061211 -0.299515
v 0.750000 0.061211 -0.299515
v -0.379108 -0.061211 0.226386
v -0.750000 -0.061211 -0.144506
v -0.564554 -0.061211 0.176696
v -0.700310 -0.061211 0.040940
v -0.750000 0.061211 -0.144506
v -0.379108 0.061211 0.226386
v -0.700310 0.061211 0.040940
v -0.564554 0.061211 0.176696
v 0.750000 -0.061211 -0.144506
v 0.379108 -0.061211 0.226386
v 0.700310 -0.061211 0.040940
v 0.564554 -0.061211 0.176696
v 0.379108 0.061211 0.226386
v 0.750000 0.061211 -0.144506
v 0.564554 0.061211 0.176696
v 0.700310 0.061211 0.040940
v -0.061844 -0.354935 -0.286981
v -0.061844 -0.057819 -0.148732
v -0.061844 -0.217328 -0.284566
v -0.061844 -0.057819 -0.207081
v 0.061844 -0.354935 -0.286981
v 0.061844 -0.057819 -0.148732
v 0.061844 -0.217328 -0.284566
v 0.061844 -0.057819 -0.207081
vt 0.375000 0.000000
vt 0.625000 0.000000
vt 0.625000 0.250000
vt 0.375000 0.250000
vt 0.625000 0.500000
vt 0.375000 0.500000
vt 0.625000 0.750000
vt 0.375000 0.750000
vt 0.625000 1.000000
vt 0.375000 1.000000
vt 0.125000 0.500000
vt 0.125000 0.750000
vt 0.375000 0.811815
vt 0.625000 0.811815
vt 0.625000 0.938185
vt 0.375000 0.938185
vt 0.625000 0.500000
vt 0.875000 0.500000
vt 0.875000 0.573688
vt 0.866718 0.661844
vt 0.844092 0.726379
vt 0.813185 0.750000
vt 0.686815 0.750000
vt 0.635303 0.762731
vt 0.627761 0.661844
vt 0.625000 0.573688
vt 0.375000 0.176312
vt 0.625000 0.176312
vt 0.625000 0.250000
vt 0.375000 0.250000
vt 0.375000 0.500000
vt 0.375000 0.573688
vt 0.625000 0.969092
vt 0.375000 0.969092
vt 0.375000 0.000000
vt 0.625000 0.000000
vt 0.625000 0.088156
vt 0.375000 0.088156
vt 0.364697 0.762731
vt 0.372239 0.661844
vt 0.125000 0.500000
vt 0.313185 0.750000
vt 0.186815 0.750000
vt 0.155908 0.726379
vt 0.133282 0.661844
vt 0.125000 0.573688
vn -1.0000 0.0000 0.0000
vn 0.0000 0.4369 -0.8995
vn 1.0000 0.0000 0.0000
vn 0.0000 -0.4219 0.9067
vn 0.0000 0.0175 -0.9998
vn 0.1305 0.0000 0.9914
vn -0.1305 0.0000 0.9914
vn 0.0000 1.0000 -0.0000
vn -0.9914 0.0000 0.1305
vn 0.9914 0.0000 0.1305
vn -0.5000 0.0000 0.8660
vn -0.7071 0.0000 0.7071
vn -0.9659 0.0000 0.2588
vn 0.5000 0.0000 0.8660
vn 0.7071 0.0000 0.7071
vn 0.9659 0.0000 0.2588
vn 0.0000 -1.0000 0.0000
usemtl None
s off
f 21/1/1 22/2/1 24/3/1 23/4/1
f 23/4/2 24/3/2 28/5/2 27/6/2
f 27/6/3 28/5/3 26/7/3 25/8/3
f 25/8/4 26/7/4 22/9/4 21/10/4
f 23/11/5 27/6/5 25/8/5 21/12/5
s 1
f 14/13/6 17/14/6 10/15/7 5/16/7
f 4/17/8 2/18/8 9/19/8 11/20/8 12/21/8 10/22/8 17/23/8 19/24/8 20/25/8 18/26/8
f 6/27/9 9/28/9 2/29/1 1/30/1
f 3/31/3 4/17/3 18/26/10 13/32/10
f 5/16/7 10/15/7 12/33/11 7/34/11
f 7/35/11 12/36/11 11/37/12 8/38/12
f 8/38/13 11/37/13 9/28/9 6/27/9
f 17/14/6 14/13/6 16/39/14 19/24/14
f 19/24/14 16/39/14 15/40/15 20/25/15
f 20/25/16 15/40/16 13/32/10 18/26/10
f 1/41/17 3/31/17 13/32/17 15/40/17 16/39/17 14/42/17 5/43/17 7/44/17 8/45/17 6/46/17
