# Blender v2.91.2 OBJ File: 'Barbershop.blend'
# www.blender.org
mtllib Barber Coathanger 01.mtl
o Coat_Hanger_Cylinder.003
v 0.000000 2.997073 0.032149
v 0.000000 0.036959 0.032149
v -0.020665 2.997073 0.024627
v -0.020665 0.036959 0.024627
v -0.031660 2.997073 0.005582
v -0.031660 0.036959 0.005582
v -0.027842 2.997073 -0.016074
v -0.027842 0.036959 -0.016074
v -0.010995 2.997073 -0.030210
v -0.010995 0.036959 -0.030210
v 0.010996 2.997073 -0.030210
v 0.010996 0.036959 -0.030210
v 0.027842 2.997073 -0.016074
v 0.027842 0.036959 -0.016074
v 0.031660 2.997073 0.005582
v 0.031660 0.036959 0.005582
v 0.020665 2.997073 0.024627
v 0.020665 0.036959 0.024627
v -0.287787 0.034406 0.342971
v 0.000000 0.034406 0.447716
v -0.440915 0.034406 0.077745
v -0.387734 0.034406 -0.223858
v -0.153128 0.034406 -0.420716
v 0.153128 0.034406 -0.420716
v 0.387734 0.034406 -0.223858
v 0.440915 0.034406 0.077745
v 0.287787 0.034406 0.342971
v -0.287787 0.001724 0.342971
v 0.000000 0.001724 0.447716
v -0.440915 0.001724 0.077745
v -0.387734 0.001724 -0.223858
v -0.153128 0.001724 -0.420716
v 0.153128 0.001724 -0.420716
v 0.387734 0.001724 -0.223858
v 0.440915 0.001724 0.077745
v 0.287787 0.001724 0.342971
v 0.002420 2.847360 -0.023899
v 0.447210 2.847360 -0.023899
v 0.002420 2.831998 -0.018308
v 0.447210 2.831997 -0.018308
v 0.002420 2.823823 -0.004150
v 0.447210 2.823823 -0.004150
v 0.002420 2.826663 0.011950
v 0.447210 2.826663 0.011950
v 0.002420 2.839186 0.022458
v 0.447210 2.839186 0.022458
v 0.002420 2.855534 0.022458
v 0.447210 2.855534 0.022458
v 0.002420 2.868057 0.011950
v 0.447210 2.868057 0.011950
v 0.002420 2.870896 -0.004150
v 0.447210 2.870896 -0.004150
v 0.002420 2.862722 -0.018308
v 0.447210 2.862722 -0.018308
v -0.519195 2.645928 -0.027079
v -0.015226 2.645928 -0.027079
v -0.519195 2.628521 -0.020744
v -0.015226 2.628521 -0.020744
v -0.519195 2.619260 -0.004702
v -0.015226 2.619260 -0.004702
v -0.519195 2.622477 0.013540
v -0.015226 2.622477 0.013540
v -0.519195 2.636666 0.025446
v -0.015226 2.636666 0.025446
v -0.519195 2.655189 0.025446
v -0.015226 2.655189 0.025446
v -0.519195 2.669379 0.013540
v -0.015226 2.669379 0.013540
v -0.519195 2.672596 -0.004702
v -0.015226 2.672595 -0.004702
v -0.519195 2.663334 -0.020744
v -0.015226 2.663334 -0.020744
v -0.028916 2.524123 0.490078
v -0.028916 2.524123 0.000103
v -0.022757 2.507200 0.490078
v -0.022757 2.507200 0.000103
v -0.007160 2.498196 0.490078
v -0.007160 2.498196 0.000103
v 0.010575 2.501323 0.490078
v 0.010575 2.501323 0.000103
v 0.022151 2.515119 0.490078
v 0.022151 2.515119 0.000103
v 0.022151 2.533128 0.490078
v 0.022151 2.533128 0.000103
v 0.010575 2.546923 0.490078
v 0.010575 2.546923 0.000103
v -0.007160 2.550050 0.490078
v -0.007160 2.550050 0.000103
v -0.022757 2.541046 0.490078
v -0.022757 2.541046 0.000103
v -0.029765 2.758245 0.005269
v -0.029765 2.758245 -0.532161
v -0.023009 2.739683 0.005269
v -0.023009 2.739682 -0.532161
v -0.005902 2.729806 0.005269
v -0.005902 2.729806 -0.532161
v 0.013551 2.733236 0.005269
v 0.013551 2.733236 -0.532161
v 0.026248 2.748368 0.005269
v 0.026248 2.748368 -0.532161
v 0.026248 2.768121 0.005269
v 0.026248 2.768121 -0.532161
v 0.013551 2.783253 0.005269
v 0.013551 2.783253 -0.532161
v -0.005902 2.786683 0.005269
v -0.005902 2.786683 -0.532161
v -0.023009 2.776806 0.005269
v -0.023009 2.776806 -0.532161
vt 0.210479 0.507709
vt 0.207259 0.507710
vt 0.207259 0.763798
vt 0.210479 0.763797
vt 0.199107 0.507711
vt 0.199107 0.763798
vt 0.189838 0.507710
vt 0.189838 0.763798
vt 0.183788 0.507709
vt 0.183788 0.763797
vt 0.337317 0.507710
vt 0.337073 0.507709
vt 0.336855 0.703885
vt 0.337099 0.703885
vt 0.210479 0.763796
vt 0.216528 0.763795
vt 0.216528 0.507710
vt 0.210479 0.507711
vt 0.225797 0.763794
vt 0.225797 0.507710
vt 0.337189 0.718972
vt 0.337317 0.713733
vt 0.337281 0.707775
vt 0.336665 0.707774
vt 0.336616 0.713732
vt 0.336732 0.718972
vt 0.336958 0.721042
vt 0.233949 0.763795
vt 0.233949 0.507710
vt 0.237170 0.763796
vt 0.237170 0.507711
vt 0.340082 0.507709
vt 0.339853 0.510916
vt 0.339731 0.519037
vt 0.339773 0.528271
vt 0.339960 0.534298
vt 0.340203 0.534298
vt 0.340390 0.528271
vt 0.340432 0.519037
vt 0.340311 0.510916
vt 0.094742 0.507710
vt 0.091093 0.507710
vt 0.091093 0.797871
vt 0.094742 0.797870
vt 0.081857 0.507711
vt 0.081857 0.797871
vt 0.071354 0.507710
vt 0.071354 0.797871
vt 0.064500 0.507710
vt 0.064500 0.797870
vt 0.334996 0.507710
vt 0.334720 0.507710
vt 0.334473 0.729986
vt 0.334749 0.729986
vt 0.094742 0.797868
vt 0.101596 0.797867
vt 0.101596 0.507710
vt 0.094742 0.507712
vt 0.112098 0.797866
vt 0.112098 0.507709
vt 0.334852 0.747081
vt 0.334996 0.741144
vt 0.334956 0.734393
vt 0.334257 0.734392
vt 0.334202 0.741143
vt 0.334333 0.747081
vt 0.334590 0.749425
vt 0.121335 0.797867
vt 0.121335 0.507710
vt 0.124984 0.797868
vt 0.124984 0.507711
vt 0.338503 0.537836
vt 0.338779 0.534204
vt 0.338959 0.525004
vt 0.338959 0.514541
vt 0.338779 0.507711
vt 0.338503 0.507709
vt 0.338260 0.514537
vt 0.338164 0.525000
vt 0.338260 0.534201
vt 0.124984 0.789812
vt 0.128531 0.789813
vt 0.128531 0.507710
vt 0.124984 0.507709
vt 0.137511 0.789813
vt 0.137511 0.507711
vt 0.147722 0.789813
vt 0.147722 0.507710
vt 0.154386 0.789812
vt 0.154386 0.507709
vt 0.336364 0.530232
vt 0.336095 0.530232
vt 0.336095 0.711566
vt 0.336364 0.711566
vt 0.183788 0.507711
vt 0.177124 0.507710
vt 0.177125 0.789810
vt 0.183788 0.789811
vt 0.166914 0.507710
vt 0.166914 0.789809
vt 0.339093 0.511202
vt 0.338959 0.520045
vt 0.339005 0.530101
vt 0.339211 0.536665
vt 0.339479 0.536665
vt 0.339684 0.530101
vt 0.339731 0.520045
vt 0.339597 0.511202
vt 0.339345 0.507709
vt 0.157934 0.507710
vt 0.157934 0.789810
vt 0.154386 0.507711
vt 0.154386 0.789811
vt 0.336230 0.507710
vt 0.335977 0.510427
vt 0.335843 0.517304
vt 0.335890 0.525127
vt 0.336569 0.525127
vt 0.336616 0.517304
vt 0.336482 0.510427
vt 0.000000 0.817135
vt 0.003891 0.817135
vt 0.003891 0.507711
vt 0.000000 0.507710
vt 0.013741 0.817137
vt 0.013741 0.507711
vt 0.024940 0.817135
vt 0.024940 0.507711
vt 0.032250 0.817135
vt 0.032250 0.507710
vt 0.335585 0.532414
vt 0.335291 0.532414
vt 0.335549 0.731310
vt 0.335843 0.731310
vt 0.064500 0.507712
vt 0.057191 0.507710
vt 0.057191 0.817132
vt 0.064500 0.817133
vt 0.045991 0.507709
vt 0.045991 0.817131
vt 0.337419 0.511541
vt 0.337317 0.521242
vt 0.337419 0.532271
vt 0.337678 0.539469
vt 0.337972 0.539468
vt 0.338164 0.532268
vt 0.338164 0.521238
vt 0.337972 0.511539
vt 0.337678 0.507710
vt 0.036141 0.507710
vt 0.036141 0.817132
vt 0.032250 0.507711
vt 0.032250 0.817133
vt 0.335406 0.507709
vt 0.335133 0.510689
vt 0.334996 0.518235
vt 0.335058 0.526814
vt 0.335803 0.526813
vt 0.335843 0.518234
vt 0.335686 0.510689
vt 0.312132 0.551803
vt 0.324601 0.551803
vt 0.324601 0.507710
vt 0.312132 0.507710
vt 0.332740 0.551803
vt 0.332740 0.507709
vt 0.269229 0.507709
vt 0.259530 0.507709
vt 0.259530 0.551803
vt 0.269229 0.551803
vt 0.246869 0.507709
vt 0.246869 0.551803
vt 0.237170 0.507709
vt 0.237170 0.551803
vt 0.301167 0.507710
vt 0.292214 0.507709
vt 0.292214 0.551803
vt 0.301167 0.551803
vt 0.279601 0.507709
vt 0.279601 0.551803
vt 0.243595 0.265752
vt 0.060308 0.419548
vt 0.213012 0.507710
vt 0.254560 0.272083
vt 0.269229 0.507709
vt 0.269229 0.551803
vt 0.301167 0.551803
vt 0.301167 0.507709
vt 0.527767 0.509903
vt 0.515298 0.507704
vt 0.504333 0.514035
vt 0.500003 0.525933
vt 0.504333 0.537830
vt 0.515298 0.544161
vt 0.527767 0.541962
vt 0.535906 0.532263
vt 0.535906 0.519602
vt 0.333227 0.507710
vt 0.332740 0.507710
vt 0.332740 0.642785
vt 0.333227 0.642785
vt 0.386662 0.477090
vt 0.267029 0.269884
vt 0.275167 0.247524
vt 0.500003 0.165689
vt 0.386662 0.030618
vt 0.267029 0.237824
vt 0.500003 0.342015
vt 0.275167 0.260185
vt 0.213012 0.000000
vt 0.254560 0.235626
vt 0.060308 0.088164
vt 0.243595 0.241957
vt 0.000000 0.253857
vt 0.239264 0.253855
vt 0.560310 0.088157
vt 0.500003 0.253845
vt 0.560310 0.419538
vt 0.713013 0.507705
vt 0.886660 0.477092
vt 1.000000 0.342024
vt 1.000000 0.165700
vt 0.886660 0.030624
vt 0.713013 0.000000
vt 0.333715 0.947405
vt 0.334202 0.947405
vt 0.334201 0.834064
vt 0.333714 0.834064
vt 0.333714 0.660414
vt 0.334201 0.660414
vt 0.334202 0.507710
vt 0.333715 0.507710
vt 0.333227 0.632392
vt 0.333714 0.632392
vt 0.333714 0.507710
vt 0.333227 0.819113
vt 0.332740 0.819113
vt 0.332740 0.954188
vt 0.333227 0.954188
vt 0.333227 0.808049
vt 0.333714 0.808049
vt 0.333227 0.952489
vt 0.333714 0.952489
vn 0.0000 0.3420 0.9397
vn 0.0000 0.8660 0.5000
vn 0.0000 0.9848 -0.1737
vn 0.0000 0.6428 -0.7660
vn 0.0000 0.0000 -1.0000
vn 0.0000 -0.6428 -0.7660
vn 0.0000 -0.9848 -0.1736
vn -1.0000 0.0000 0.0000
vn 0.0000 -0.8660 0.5000
vn 0.0000 -0.3420 0.9397
vn 1.0000 -0.0000 0.0000
vn 0.9397 0.3420 -0.0000
vn 0.5000 0.8660 -0.0000
vn -0.1737 0.9848 0.0000
vn -0.7660 0.6428 0.0000
vn -0.7660 -0.6428 0.0000
vn -0.1736 -0.9848 0.0000
vn -0.0000 0.0000 1.0000
vn 0.5000 -0.8660 0.0000
vn 0.9397 -0.3420 0.0000
vn -0.3420 0.0000 0.9397
vn -0.8660 0.0000 0.5000
vn -0.9848 0.0000 -0.1736
vn -0.6428 0.0000 -0.7660
vn 0.6428 0.0000 -0.7660
vn 0.9848 0.0000 -0.1736
vn 0.0021 1.0000 -0.0058
vn -0.0021 1.0000 -0.0058
vn 0.8660 0.0000 0.5000
vn 0.3420 0.0000 0.9397
vn 0.0000 1.0000 0.0000
vn -0.0053 1.0000 -0.0031
vn -0.0039 1.0000 0.0047
vn 0.0000 1.0000 0.0061
vn -0.0060 1.0000 0.0011
vn 0.0039 1.0000 0.0047
vn 0.0060 1.0000 0.0011
vn 0.0053 1.0000 -0.0031
vn 0.0000 -1.0000 -0.0000
usemtl None
s off
f 37/1/1 39/2/1 40/3/1 38/4/1
f 39/2/2 41/5/2 42/6/2 40/3/2
f 41/5/3 43/7/3 44/8/3 42/6/3
f 43/7/4 45/9/4 46/10/4 44/8/4
f 45/11/5 47/12/5 48/13/5 46/14/5
f 47/15/6 49/16/6 50/17/6 48/18/6
f 49/16/7 51/19/7 52/20/7 50/17/7
f 40/21/8 42/22/8 44/23/8 46/14/8 48/13/8 50/24/8 52/25/8 54/26/8 38/27/8
f 51/19/9 53/28/9 54/29/9 52/20/9
f 53/28/10 37/30/10 38/31/10 54/29/10
f 37/32/11 53/33/11 51/34/11 49/35/11 47/36/11 45/37/11 43/38/11 41/39/11 39/40/11
f 55/41/1 57/42/1 58/43/1 56/44/1
f 57/42/2 59/45/2 60/46/2 58/43/2
f 59/45/3 61/47/3 62/48/3 60/46/3
f 61/47/4 63/49/4 64/50/4 62/48/4
f 63/51/5 65/52/5 66/53/5 64/54/5
f 65/55/6 67/56/6 68/57/6 66/58/6
f 67/56/7 69/59/7 70/60/7 68/57/7
f 58/61/8 60/62/8 62/63/8 64/54/8 66/53/8 68/64/8 70/65/8 72/66/8 56/67/8
f 69/59/9 71/68/9 72/69/9 70/60/9
f 71/68/10 55/70/10 56/71/10 72/69/10
f 55/72/11 71/73/11 69/74/11 67/75/11 65/76/11 63/77/11 61/78/11 59/79/11 57/80/11
f 73/81/12 75/82/12 76/83/12 74/84/12
f 75/82/13 77/85/13 78/86/13 76/83/13
f 77/85/14 79/87/14 80/88/14 78/86/14
f 79/87/15 81/89/15 82/90/15 80/88/15
f 81/91/8 83/92/8 84/93/8 82/94/8
f 83/95/16 85/96/16 86/97/16 84/98/16
f 85/96/17 87/99/17 88/100/17 86/97/17
f 76/101/18 78/102/18 80/103/18 82/104/18 84/105/18 86/106/18 88/107/18 90/108/18 74/109/18
f 87/99/19 89/110/19 90/111/19 88/100/19
f 89/110/20 73/112/20 74/113/20 90/111/20
f 73/114/5 89/115/5 87/116/5 85/117/5 83/92/5 81/91/5 79/118/5 77/119/5 75/120/5
f 91/121/12 93/122/12 94/123/12 92/124/12
f 93/122/13 95/125/13 96/126/13 94/123/13
f 95/125/14 97/127/14 98/128/14 96/126/14
f 97/127/15 99/129/15 100/130/15 98/128/15
f 99/131/8 101/132/8 102/133/8 100/134/8
f 101/135/16 103/136/16 104/137/16 102/138/16
f 103/136/17 105/139/17 106/140/17 104/137/17
f 94/141/18 96/142/18 98/143/18 100/144/18 102/145/18 104/146/18 106/147/18 108/148/18 92/149/18
f 105/139/19 107/150/19 108/151/19 106/140/19
f 107/150/20 91/152/20 92/153/20 108/151/20
f 91/154/5 107/155/5 105/156/5 103/157/5 101/132/5 99/131/5 97/158/5 95/159/5 93/160/5
s 1
f 1/161/21 3/162/21 4/163/21 2/164/21
f 3/162/22 5/165/22 6/166/22 4/163/22
f 5/167/23 7/168/23 8/169/23 6/170/23
f 7/168/24 9/171/24 10/172/24 8/169/24
f 9/171/5 11/173/5 12/174/5 10/172/5
f 11/175/25 13/176/25 14/177/25 12/178/25
f 13/176/26 15/179/26 16/180/26 14/177/26
f 12/181/27 24/182/27 23/183/28 10/184/28
f 15/179/29 17/185/29 18/186/29 16/180/29
f 17/187/30 1/161/30 2/164/30 18/188/30
f 1/189/31 17/190/31 15/191/31 13/192/31 11/193/31 9/194/31 7/195/31 5/196/31 3/197/31
f 24/198/5 33/199/5 32/200/5 23/201/5
f 10/184/28 23/183/28 22/202/32 8/203/32
f 4/204/33 19/205/33 20/206/34 2/207/34
f 8/203/32 22/202/32 21/208/35 6/209/35
f 6/209/35 21/208/35 19/205/33 4/204/33
f 2/207/34 20/206/34 27/210/36 18/211/36
f 18/211/36 27/210/36 26/212/37 16/213/37
f 16/213/37 26/212/37 25/214/38 14/215/38
f 14/215/38 25/214/38 24/182/27 12/181/27
f 28/216/39 30/217/39 31/218/39 32/219/39 33/220/39 34/221/39 35/222/39 36/223/39 29/224/39
f 21/225/22 30/226/22 28/227/22 19/228/22
f 20/229/30 29/230/30 36/231/30 27/232/30
f 25/233/25 34/234/25 33/235/25 24/198/25
f 22/236/23 31/237/23 30/238/23 21/239/23
f 26/240/26 35/241/26 34/234/26 25/233/26
f 23/201/24 32/200/24 31/237/24 22/236/24
f 19/228/21 28/227/21 29/230/21 20/229/21
f 27/242/29 36/243/29 35/241/29 26/240/29
