# Blender v2.91.2 OBJ File: 'Slappening assests.blend'
# www.blender.org
mtllib Bookshelf 01.mtl
o Bookcase_Cube.010
v -0.739901 -0.004551 0.246746
v -0.739901 1.995449 0.246746
v -0.739901 -0.004551 -0.246746
v -0.739901 1.995449 -0.246746
v 0.739901 -0.004551 0.246746
v 0.739901 1.995449 0.246746
v 0.739901 -0.004551 -0.246746
v 0.739901 1.995449 -0.246746
v -0.683334 0.052016 0.246746
v -0.683334 1.938882 0.246746
v -0.693713 0.041637 -0.200558
v -0.693713 1.949261 -0.200558
v 0.683334 0.052016 0.246746
v 0.683334 1.938882 0.246746
v 0.693713 0.041637 -0.200558
v 0.693713 1.949261 -0.200558
v -0.714459 0.334525 0.192651
v 0.714459 0.334525 0.192651
v -0.714459 0.334525 -0.207929
v 0.714459 0.334525 -0.207929
v -0.723653 0.311932 -0.211940
v -0.723653 0.311932 0.188640
v 0.705265 0.311932 0.188640
v 0.705265 0.311932 -0.211940
v -0.723653 0.321533 -0.211940
v -0.723653 0.321533 0.188640
v 0.705265 0.321533 0.188640
v 0.705265 0.321533 -0.211940
v -0.714459 0.666654 0.192651
v 0.714459 0.666654 0.192651
v -0.714459 0.666654 -0.207929
v 0.714459 0.666654 -0.207929
v -0.723653 0.644060 -0.211940
v -0.723653 0.644060 0.188640
v 0.705265 0.644060 0.188640
v 0.705265 0.644060 -0.211940
v -0.723653 0.653662 -0.211940
v -0.723653 0.653662 0.188640
v 0.705265 0.653662 0.188640
v 0.705265 0.653662 -0.211940
v -0.714459 0.998783 0.192651
v 0.714459 0.998783 0.192651
v -0.714459 0.998783 -0.207929
v 0.714459 0.998783 -0.207929
v -0.723653 0.976189 -0.211940
v -0.723653 0.976189 0.188640
v 0.705265 0.976189 0.188640
v 0.705265 0.976189 -0.211940
v -0.723653 0.985791 -0.211940
v -0.723653 0.985791 0.188640
v 0.705265 0.985791 0.188640
v 0.705265 0.985791 -0.211940
v -0.714459 1.330911 0.192651
v 0.714459 1.330911 0.192651
v -0.714459 1.330911 -0.207929
v 0.714459 1.330911 -0.207929
v -0.723653 1.308318 -0.211940
v -0.723653 1.308318 0.188640
v 0.705265 1.308318 0.188640
v 0.705265 1.308318 -0.211940
v -0.723653 1.317919 -0.211940
v -0.723653 1.317919 0.188640
v 0.705265 1.317919 0.188640
v 0.705265 1.317919 -0.211940
v -0.714459 1.663040 0.192651
v 0.714459 1.663040 0.192651
v -0.714459 1.663040 -0.207929
v 0.714459 1.663040 -0.207929
v -0.723653 1.640446 -0.211940
v -0.723653 1.640446 0.188640
v 0.705265 1.640446 0.188640
v 0.705265 1.640446 -0.211940
v -0.723653 1.650048 -0.211940
v -0.723653 1.650048 0.188640
v 0.705265 1.650048 0.188640
v 0.705265 1.650048 -0.211940
vt 0.676713 0.000032
vt 0.676713 0.402505
vt 0.580002 0.402473
vt 0.580003 0.000000
vt 0.580002 0.406423
vt 0.290001 0.406423
vt 0.290001 0.000000
vt 0.773424 0.000032
vt 0.773424 0.402505
vt 0.676713 0.402473
vt 0.676713 0.000000
vt 0.000000 0.708699
vt 0.000000 0.407025
vt 0.096711 0.407025
vt 0.096711 0.708699
vt 0.193421 0.407025
vt 0.193421 0.708699
vt 0.096711 0.708699
vt 0.096711 0.407025
vt 0.580003 0.404903
vt 0.667666 0.402505
vt 0.667666 0.786389
vt 0.580003 0.784610
vt 0.290001 0.406423
vt 0.561899 0.406423
vt 0.561899 0.794649
vt 0.290001 0.794648
vt 0.755329 0.786389
vt 0.667666 0.784610
vt 0.667666 0.404903
vt 0.755329 0.402505
vt 0.755329 0.402505
vt 0.842995 0.404621
vt 0.842995 0.683232
vt 0.755329 0.685347
vt 0.281087 0.689867
vt 0.193421 0.687751
vt 0.193421 0.409141
vt 0.281087 0.407025
vt 0.000000 0.407025
vt 0.000000 0.000000
vt 0.011086 0.011512
vt 0.011086 0.395513
vt 0.290001 0.000000
vt 0.290001 0.407025
vt 0.278916 0.395513
vt 0.278916 0.011512
vt 0.851927 0.291301
vt 0.773424 0.291301
vt 0.773424 0.000000
vt 0.851927 0.000000
vt 0.947579 0.000000
vt 0.947579 0.291301
vt 0.945704 0.291301
vt 0.945704 0.000000
vt 0.566376 0.408298
vt 0.566376 0.699599
vt 0.561899 0.697724
vt 0.561899 0.406423
vt 0.170982 0.708699
vt 0.170982 0.790362
vt 0.166323 0.791177
vt 0.166323 0.709515
vt 0.566558 0.700418
vt 0.566558 0.782081
vt 0.561899 0.781261
vt 0.561899 0.699599
vt 0.939362 0.000000
vt 0.939362 0.291301
vt 0.934895 0.293175
vt 0.934895 0.001874
vt 0.842995 0.985107
vt 0.842995 0.693806
vt 0.921497 0.693806
vt 0.921497 0.985107
vt 0.279208 0.689867
vt 0.279208 0.981168
vt 0.277330 0.981168
vt 0.277330 0.689867
vt 0.773424 0.372964
vt 0.773424 0.291302
vt 0.775282 0.291301
vt 0.775282 0.372963
vt 0.281129 0.779989
vt 0.281129 0.698326
vt 0.282986 0.698326
vt 0.282986 0.779988
vt 0.930429 0.291301
vt 0.851927 0.291301
vt 0.851927 0.000000
vt 0.930429 0.000000
vt 0.275451 0.689867
vt 0.275451 0.981168
vt 0.273576 0.981168
vt 0.273576 0.689867
vt 0.575329 0.408298
vt 0.575329 0.699599
vt 0.570852 0.697724
vt 0.570852 0.406423
vt 0.170982 0.791177
vt 0.170982 0.709515
vt 0.175641 0.708699
vt 0.175641 0.790362
vt 0.575511 0.700419
vt 0.575511 0.782081
vt 0.570852 0.781261
vt 0.570852 0.699599
vt 0.943828 0.000000
vt 0.943828 0.291301
vt 0.939362 0.293175
vt 0.939362 0.001874
vt 0.078502 1.000000
vt 0.078502 0.708699
vt 0.157005 0.708699
vt 0.157005 1.000000
vt 0.282965 0.407025
vt 0.282965 0.698326
vt 0.281087 0.698326
vt 0.281087 0.407025
vt 0.282986 0.779989
vt 0.282986 0.698326
vt 0.284844 0.698326
vt 0.284844 0.779988
vt 0.566558 0.781262
vt 0.566558 0.699599
vt 0.568416 0.699599
vt 0.568416 0.781261
vt 0.271924 0.981168
vt 0.193421 0.981168
vt 0.193421 0.689867
vt 0.271924 0.689867
vt 0.949455 0.000000
vt 0.949455 0.291301
vt 0.947579 0.291301
vt 0.947579 0.000000
vt 0.579805 0.408298
vt 0.579805 0.699599
vt 0.575329 0.697724
vt 0.575329 0.406423
vt 0.184959 0.708699
vt 0.184959 0.790362
vt 0.180300 0.791177
vt 0.180300 0.709515
vt 0.161664 0.709519
vt 0.161664 0.791182
vt 0.157005 0.790362
vt 0.157005 0.708699
vt 0.842995 0.685347
vt 0.842995 0.976648
vt 0.838529 0.978523
vt 0.838529 0.687222
vt 0.921498 0.985107
vt 0.921498 0.693806
vt 1.000000 0.693806
vt 1.000000 0.985107
vt 0.284844 0.407025
vt 0.284844 0.698326
vt 0.282965 0.698326
vt 0.282965 0.407025
vt 0.577369 0.781262
vt 0.577369 0.699599
vt 0.579226 0.699599
vt 0.579226 0.781261
vt 0.191564 0.790362
vt 0.191564 0.708700
vt 0.193421 0.708699
vt 0.193421 0.790362
vt 0.833832 0.976648
vt 0.755329 0.976648
vt 0.755329 0.685347
vt 0.833832 0.685347
vt 0.951331 0.000000
vt 0.951331 0.291301
vt 0.949455 0.291301
vt 0.949455 0.000000
vt 0.290001 0.408899
vt 0.290001 0.700200
vt 0.285525 0.698326
vt 0.285525 0.407025
vt 0.180300 0.708699
vt 0.180300 0.790362
vt 0.175641 0.791177
vt 0.175641 0.709514
vt 0.290001 0.701020
vt 0.290001 0.782683
vt 0.285342 0.781863
vt 0.285342 0.700200
vt 0.838529 0.685347
vt 0.838529 0.976648
vt 0.834062 0.978523
vt 0.834062 0.687222
vt 0.921497 0.693806
vt 0.921497 0.402505
vt 1.000000 0.402505
vt 1.000000 0.693806
vt 0.281087 0.689867
vt 0.281087 0.981168
vt 0.279208 0.981168
vt 0.279208 0.689867
vt 0.575511 0.781262
vt 0.575511 0.699599
vt 0.577369 0.699599
vt 0.577369 0.781261
vt 0.775282 0.372964
vt 0.775282 0.291302
vt 0.777139 0.291301
vt 0.777139 0.372963
vt 0.921497 0.693806
vt 0.842995 0.693806
vt 0.842995 0.402505
vt 0.921497 0.402505
vt 0.945704 0.000000
vt 0.945704 0.291301
vt 0.943828 0.291301
vt 0.943828 0.000000
vt 0.570852 0.408298
vt 0.570852 0.699599
vt 0.566376 0.697724
vt 0.566376 0.406423
vt 0.189618 0.708699
vt 0.189618 0.790362
vt 0.184959 0.791177
vt 0.184959 0.709515
vt 0.166323 0.709519
vt 0.166323 0.791182
vt 0.161664 0.790362
vt 0.161664 0.708699
vt 0.934895 0.000000
vt 0.934895 0.291301
vt 0.930429 0.293175
vt 0.930429 0.001874
vt 0.000000 1.000000
vt 0.000000 0.708699
vt 0.078502 0.708699
vt 0.078502 1.000000
vt 0.277330 0.689867
vt 0.277330 0.981168
vt 0.275451 0.981168
vt 0.275451 0.689867
vt 0.189706 0.790362
vt 0.189706 0.708700
vt 0.191564 0.708699
vt 0.191564 0.790362
vt 0.568995 0.781262
vt 0.568995 0.699599
vt 0.570852 0.699599
vt 0.570852 0.781261
vn -1.0000 0.0000 0.0000
vn 0.0000 0.0000 -1.0000
vn 1.0000 0.0000 0.0000
vn 0.0000 -1.0000 0.0000
vn 0.0000 1.0000 0.0000
vn 0.9997 0.0000 -0.0232
vn 0.0000 0.0000 1.0000
vn -0.9997 0.0000 -0.0232
vn 0.0000 0.9997 -0.0232
vn 0.0000 -0.9997 -0.0232
vn 0.0000 0.1748 -0.9846
vn -0.9262 0.3769 0.0000
vn 0.9262 -0.3769 0.0000
vn 0.0000 -0.1748 0.9846
usemtl 1
s off
f 1/1/1 2/2/1 4/3/1 3/4/1
f 3/4/2 4/5/2 8/6/2 7/7/2
f 7/8/3 8/9/3 6/10/3 5/11/3
f 3/12/4 7/13/4 5/14/4 1/15/4
f 8/16/5 4/17/5 2/18/5 6/19/5
f 9/20/6 11/21/6 12/22/6 10/23/6
f 11/24/7 15/25/7 16/26/7 12/27/7
f 15/28/8 13/29/8 14/30/8 16/31/8
f 11/32/9 9/33/9 13/34/9 15/35/9
f 16/36/10 14/37/10 10/38/10 12/39/10
f 2/40/7 1/41/7 9/42/7 10/43/7
f 5/44/7 6/45/7 14/46/7 13/47/7
f 1/41/7 5/44/7 13/47/7 9/42/7
f 6/45/7 2/40/7 10/43/7 14/46/7
f 17/48/4 19/49/4 20/50/4 18/51/4
f 24/52/2 21/53/2 25/54/2 28/55/2
f 17/56/11 18/57/11 23/58/11 22/59/11
f 18/60/12 20/61/12 24/62/12 23/63/12
f 19/64/13 17/65/13 22/66/13 21/67/13
f 20/68/14 19/69/14 21/70/14 24/71/14
f 26/72/5 27/73/5 28/74/5 25/75/5
f 22/76/7 23/77/7 27/78/7 26/79/7
f 23/80/3 24/81/3 28/82/3 27/83/3
f 21/84/1 22/85/1 26/86/1 25/87/1
f 29/88/4 31/89/4 32/90/4 30/91/4
f 36/92/2 33/93/2 37/94/2 40/95/2
f 29/96/11 30/97/11 35/98/11 34/99/11
f 30/100/12 32/101/12 36/102/12 35/103/12
f 31/104/13 29/105/13 34/106/13 33/107/13
f 32/108/14 31/109/14 33/110/14 36/111/14
f 38/112/5 39/113/5 40/114/5 37/115/5
f 34/116/7 35/117/7 39/118/7 38/119/7
f 35/120/3 36/121/3 40/122/3 39/123/3
f 33/124/1 34/125/1 38/126/1 37/127/1
f 41/128/4 43/129/4 44/130/4 42/131/4
f 48/132/2 45/133/2 49/134/2 52/135/2
f 41/136/11 42/137/11 47/138/11 46/139/11
f 42/140/12 44/141/12 48/142/12 47/143/12
f 43/144/13 41/145/13 46/146/13 45/147/13
f 44/148/14 43/149/14 45/150/14 48/151/14
f 50/152/5 51/153/5 52/154/5 49/155/5
f 46/156/7 47/157/7 51/158/7 50/159/7
f 47/160/3 48/161/3 52/162/3 51/163/3
f 45/164/1 46/165/1 50/166/1 49/167/1
f 53/168/4 55/169/4 56/170/4 54/171/4
f 60/172/2 57/173/2 61/174/2 64/175/2
f 53/176/11 54/177/11 59/178/11 58/179/11
f 54/180/12 56/181/12 60/182/12 59/183/12
f 55/184/13 53/185/13 58/186/13 57/187/13
f 56/188/14 55/189/14 57/190/14 60/191/14
f 62/192/5 63/193/5 64/194/5 61/195/5
f 58/196/7 59/197/7 63/198/7 62/199/7
f 59/200/3 60/201/3 64/202/3 63/203/3
f 57/204/1 58/205/1 62/206/1 61/207/1
f 65/208/4 67/209/4 68/210/4 66/211/4
f 72/212/2 69/213/2 73/214/2 76/215/2
f 65/216/11 66/217/11 71/218/11 70/219/11
f 66/220/12 68/221/12 72/222/12 71/223/12
f 67/224/13 65/225/13 70/226/13 69/227/13
f 68/228/14 67/229/14 69/230/14 72/231/14
f 74/232/5 75/233/5 76/234/5 73/235/5
f 70/236/7 71/237/7 75/238/7 74/239/7
f 71/240/3 72/241/3 76/242/3 75/243/3
f 69/244/1 70/245/1 74/246/1 73/247/1
