# Blender v2.91.2 OBJ File: 'Slappening assests.blend'
# www.blender.org
mtllib Bookshelf 02.mtl
o Bookcase_Cube.010
v -1.479801 -0.009102 0.493492
v -1.479801 3.990898 0.493492
v -1.479801 -0.009102 -0.493492
v -1.479801 3.990898 -0.493492
v 1.479802 -0.009102 0.493492
v 1.479802 3.990898 0.493492
v 1.479802 -0.009102 -0.493492
v 1.479802 3.990898 -0.493492
v -1.366668 0.104031 0.493492
v -1.366668 3.877765 0.493492
v -1.387426 0.083274 -0.401116
v -1.387426 3.898522 -0.401116
v 1.366668 0.104031 0.493492
v 1.366668 3.877765 0.493492
v 1.387426 0.083274 -0.401116
v 1.387426 3.898522 -0.401116
v -1.410998 0.783062 0.403928
v -1.410998 0.866156 0.403928
v -1.410998 0.783062 -0.450267
v -1.410998 0.866156 -0.450267
v 1.410998 0.783062 0.403928
v 1.410998 0.866156 0.403928
v 1.410998 0.783062 -0.450267
v 1.410998 0.866156 -0.450267
v -1.410998 1.555840 0.403928
v -1.410998 1.638934 0.403928
v -1.410998 1.555840 -0.450267
v -1.410998 1.638934 -0.450267
v 1.410998 1.555840 0.403928
v 1.410998 1.638934 0.403928
v 1.410998 1.555840 -0.450267
v 1.410998 1.638934 -0.450267
v -1.410998 2.328618 0.403928
v -1.410998 2.411713 0.403928
v -1.410998 2.328618 -0.450267
v -1.410998 2.411713 -0.450267
v 1.410998 2.328618 0.403928
v 1.410998 2.411713 0.403928
v 1.410998 2.328618 -0.450267
v 1.410998 2.411713 -0.450267
v -1.410998 3.101397 0.403928
v -1.410998 3.184491 0.403928
v -1.410998 3.101397 -0.450267
v -1.410998 3.184491 -0.450267
v 1.410998 3.101397 0.403928
v 1.410998 3.184491 0.403928
v 1.410998 3.101397 -0.450267
v 1.410998 3.184491 -0.450267
vt 0.676713 0.000032
vt 0.676713 0.402505
vt 0.580002 0.402473
vt 0.580003 0.000000
vt 0.580002 0.406423
vt 0.290001 0.406423
vt 0.290001 0.000000
vt 0.773424 0.000032
vt 0.773424 0.402505
vt 0.676713 0.402473
vt 0.676713 0.000000
vt 0.000000 0.708699
vt 0.000000 0.407025
vt 0.096711 0.407025
vt 0.096711 0.708699
vt 0.193421 0.407025
vt 0.193421 0.708699
vt 0.096711 0.708699
vt 0.096711 0.407025
vt 0.580003 0.404903
vt 0.667666 0.402505
vt 0.667666 0.786389
vt 0.580003 0.784610
vt 0.290001 0.406423
vt 0.561899 0.406423
vt 0.561899 0.794649
vt 0.290001 0.794648
vt 0.755329 0.786389
vt 0.667666 0.784610
vt 0.667666 0.404903
vt 0.755329 0.402505
vt 0.755329 0.402505
vt 0.842995 0.404621
vt 0.842995 0.683232
vt 0.755329 0.685347
vt 0.281087 0.689867
vt 0.193421 0.687751
vt 0.193421 0.409141
vt 0.281087 0.407025
vt 0.000000 0.407025
vt 0.000000 0.000000
vt 0.011086 0.011512
vt 0.011086 0.395513
vt 0.290001 0.000000
vt 0.290001 0.407025
vt 0.278916 0.395513
vt 0.278916 0.011512
vt 0.375000 0.750000
vt 0.625000 0.750000
vt 0.625000 1.000000
vt 0.375000 1.000000
vt 0.125000 0.500000
vt 0.375000 0.500000
vt 0.125000 0.750000
vt 0.625000 0.500000
vt 0.875000 0.500000
vt 0.875000 0.750000
vt 0.375000 0.750000
vt 0.625000 0.750000
vt 0.625000 1.000000
vt 0.375000 1.000000
vt 0.125000 0.500000
vt 0.375000 0.500000
vt 0.125000 0.750000
vt 0.625000 0.500000
vt 0.875000 0.500000
vt 0.875000 0.750000
vt 0.375000 0.750000
vt 0.625000 0.750000
vt 0.625000 1.000000
vt 0.375000 1.000000
vt 0.125000 0.500000
vt 0.375000 0.500000
vt 0.125000 0.750000
vt 0.625000 0.500000
vt 0.875000 0.500000
vt 0.875000 0.750000
vt 0.375000 0.750000
vt 0.625000 0.750000
vt 0.625000 1.000000
vt 0.375000 1.000000
vt 0.125000 0.500000
vt 0.375000 0.500000
vt 0.125000 0.750000
vt 0.625000 0.500000
vt 0.875000 0.500000
vt 0.875000 0.750000
vn -1.0000 0.0000 0.0000
vn 0.0000 0.0000 -1.0000
vn 1.0000 0.0000 0.0000
vn 0.0000 -1.0000 0.0000
vn 0.0000 1.0000 0.0000
vn 0.9997 0.0000 -0.0232
vn 0.0000 0.0000 1.0000
vn -0.9997 0.0000 -0.0232
vn 0.0000 0.9997 -0.0232
vn 0.0000 -0.9997 -0.0232
usemtl 1
s off
f 1/1/1 2/2/1 4/3/1 3/4/1
f 3/4/2 4/5/2 8/6/2 7/7/2
f 7/8/3 8/9/3 6/10/3 5/11/3
f 3/12/4 7/13/4 5/14/4 1/15/4
f 8/16/5 4/17/5 2/18/5 6/19/5
f 9/20/6 11/21/6 12/22/6 10/23/6
f 11/24/7 15/25/7 16/26/7 12/27/7
f 15/28/8 13/29/8 14/30/8 16/31/8
f 11/32/9 9/33/9 13/34/9 15/35/9
f 16/36/10 14/37/10 10/38/10 12/39/10
f 2/40/7 1/41/7 9/42/7 10/43/7
f 5/44/7 6/45/7 14/46/7 13/47/7
f 1/41/7 5/44/7 13/47/7 9/42/7
f 6/45/7 2/40/7 10/43/7 14/46/7
f 21/48/7 22/49/7 18/50/7 17/51/7
f 19/52/4 23/53/4 21/48/4 17/54/4
f 24/55/5 20/56/5 18/57/5 22/49/5
f 29/58/7 30/59/7 26/60/7 25/61/7
f 27/62/4 31/63/4 29/58/4 25/64/4
f 32/65/5 28/66/5 26/67/5 30/59/5
f 37/68/7 38/69/7 34/70/7 33/71/7
f 35/72/4 39/73/4 37/68/4 33/74/4
f 40/75/5 36/76/5 34/77/5 38/69/5
f 45/78/7 46/79/7 42/80/7 41/81/7
f 43/82/4 47/83/4 45/78/4 41/84/4
f 48/85/5 44/86/5 42/87/5 46/79/5
