# Blender v2.91.2 OBJ File: 'Slappening assests.blend'
# www.blender.org
mtllib Chair 01.mtl
o Chair__Cube.012
v -0.316134 0.506391 0.316134
v -0.316134 0.469244 0.316134
v -0.316134 0.506391 -0.316134
v -0.254001 0.469244 -0.254001
v 0.316134 0.506391 0.316134
v 0.316134 0.469244 0.316134
v 0.316134 0.506391 -0.316134
v 0.254001 0.469244 -0.254001
v -0.316134 0.506391 0.276628
v -0.254001 0.469244 0.214495
v 0.316134 0.506391 0.276628
v 0.254001 0.469244 0.214495
v -0.316134 1.260231 0.426049
v -0.316134 1.260231 0.465555
v 0.316134 1.260231 0.465555
v 0.316134 1.260231 0.426049
v -0.316134 1.295928 0.412437
v -0.316134 1.295928 0.451943
v 0.316134 1.295928 0.451943
v 0.316134 1.295928 0.412437
v -0.316134 0.469244 0.276628
v -0.316134 0.469244 -0.316134
v 0.316134 0.469244 -0.316134
v 0.316134 0.469244 0.276628
v -0.254001 0.476985 0.214495
v -0.254001 0.476985 -0.254001
v 0.254001 0.476985 -0.254001
v 0.254001 0.476985 0.214495
v -0.289218 0.005346 -0.300478
v -0.289218 0.490340 -0.308168
v -0.283563 0.005346 -0.299582
v -0.281186 0.490340 -0.306896
v -0.278461 0.005346 -0.296982
v -0.273941 0.490340 -0.303204
v -0.274412 0.005346 -0.292934
v -0.268190 0.490340 -0.297454
v -0.271812 0.005346 -0.287832
v -0.264499 0.490340 -0.290208
v -0.270917 0.005346 -0.282176
v -0.263226 0.490340 -0.282176
v -0.271812 0.005346 -0.276520
v -0.264499 0.490340 -0.274144
v -0.274412 0.005346 -0.271419
v -0.268190 0.490340 -0.266898
v -0.278461 0.005346 -0.267370
v -0.273941 0.490340 -0.261148
v -0.283563 0.005346 -0.264770
v -0.281186 0.490340 -0.257456
v -0.289218 0.005346 -0.263874
v -0.289218 0.490340 -0.256184
v -0.294874 0.005346 -0.264770
v -0.297250 0.490340 -0.257456
v -0.299976 0.005346 -0.267370
v -0.304496 0.490340 -0.261148
v -0.304025 0.005346 -0.271419
v -0.310246 0.490340 -0.266898
v -0.306624 0.005346 -0.276520
v -0.313938 0.490340 -0.274144
v -0.307520 0.005346 -0.282176
v -0.315210 0.490340 -0.282176
v -0.306624 0.005346 -0.287832
v -0.313938 0.490340 -0.290208
v -0.304025 0.005346 -0.292934
v -0.310246 0.490340 -0.297454
v -0.299976 0.005346 -0.296982
v -0.304496 0.490340 -0.303204
v -0.294874 0.005346 -0.299582
v -0.297250 0.490340 -0.306896
v 0.289218 0.005346 -0.300478
v 0.289218 0.490340 -0.308168
v 0.283563 0.005346 -0.299582
v 0.281186 0.490340 -0.306896
v 0.278461 0.005346 -0.296982
v 0.273941 0.490340 -0.303204
v 0.274412 0.005346 -0.292934
v 0.268190 0.490340 -0.297454
v 0.271812 0.005346 -0.287832
v 0.264499 0.490340 -0.290208
v 0.270917 0.005346 -0.282176
v 0.263226 0.490340 -0.282176
v 0.271812 0.005346 -0.276520
v 0.264499 0.490340 -0.274144
v 0.274412 0.005346 -0.271419
v 0.268190 0.490340 -0.266898
v 0.278461 0.005346 -0.267370
v 0.273941 0.490340 -0.261148
v 0.283563 0.005346 -0.264770
v 0.281186 0.490340 -0.257456
v 0.289218 0.005346 -0.263874
v 0.289218 0.490340 -0.256184
v 0.294874 0.005346 -0.264770
v 0.297250 0.490340 -0.257456
v 0.299976 0.005346 -0.267370
v 0.304496 0.490340 -0.261148
v 0.304025 0.005346 -0.271419
v 0.310246 0.490340 -0.266898
v 0.306624 0.005346 -0.276520
v 0.313938 0.490340 -0.274144
v 0.307520 0.005346 -0.282176
v 0.315210 0.490340 -0.282176
v 0.306624 0.005346 -0.287832
v 0.313938 0.490340 -0.290208
v 0.304025 0.005346 -0.292934
v 0.310246 0.490340 -0.297454
v 0.299976 0.005346 -0.296982
v 0.304496 0.490340 -0.303204
v 0.294874 0.005346 -0.299582
v 0.297250 0.490340 -0.306896
v -0.289218 0.005346 0.300478
v -0.289218 0.490340 0.308168
v -0.283563 0.005346 0.299582
v -0.281186 0.490340 0.306896
v -0.278461 0.005346 0.296982
v -0.273941 0.490340 0.303204
v -0.274412 0.005346 0.292934
v -0.268190 0.490340 0.297454
v -0.271812 0.005346 0.287832
v -0.264499 0.490340 0.290208
v -0.270917 0.005346 0.282176
v -0.263226 0.490340 0.282176
v -0.271812 0.005346 0.276520
v -0.264499 0.490340 0.274144
v -0.274412 0.005346 0.271419
v -0.268190 0.490340 0.266898
v -0.278461 0.005346 0.267370
v -0.273941 0.490340 0.261148
v -0.283563 0.005346 0.264770
v -0.281186 0.490340 0.257456
v -0.289218 0.005346 0.263874
v -0.289218 0.490340 0.256184
v -0.294874 0.005346 0.264770
v -0.297250 0.490340 0.257456
v -0.299976 0.005346 0.267370
v -0.304496 0.490340 0.261148
v -0.304025 0.005346 0.271419
v -0.310246 0.490340 0.266898
v -0.306624 0.005346 0.276520
v -0.313938 0.490340 0.274144
v -0.307520 0.005346 0.282176
v -0.315210 0.490340 0.282176
v -0.306624 0.005346 0.287832
v -0.313938 0.490340 0.290208
v -0.304025 0.005346 0.292934
v -0.310246 0.490340 0.297454
v -0.299976 0.005346 0.296982
v -0.304496 0.490340 0.303204
v -0.294874 0.005346 0.299582
v -0.297250 0.490340 0.306896
v 0.289218 0.005346 0.300478
v 0.289218 0.490340 0.308168
v 0.283563 0.005346 0.299582
v 0.281186 0.490340 0.306896
v 0.278461 0.005346 0.296982
v 0.273941 0.490340 0.303204
v 0.274412 0.005346 0.292934
v 0.268190 0.490340 0.297454
v 0.271812 0.005346 0.287832
v 0.264499 0.490340 0.290208
v 0.270917 0.005346 0.282176
v 0.263226 0.490340 0.282176
v 0.271812 0.005346 0.276520
v 0.264499 0.490340 0.274144
v 0.274412 0.005346 0.271419
v 0.268190 0.490340 0.266898
v 0.278461 0.005346 0.267370
v 0.273941 0.490340 0.261148
v 0.283563 0.005346 0.264770
v 0.281186 0.490340 0.257456
v 0.289218 0.005346 0.263874
v 0.289218 0.490340 0.256184
v 0.294874 0.005346 0.264770
v 0.297250 0.490340 0.257456
v 0.299976 0.005346 0.267370
v 0.304496 0.490340 0.261148
v 0.304025 0.005346 0.271419
v 0.310246 0.490340 0.266898
v 0.306624 0.005346 0.276520
v 0.313938 0.490340 0.274144
v 0.307520 0.005346 0.282176
v 0.315210 0.490340 0.282176
v 0.306624 0.005346 0.287832
v 0.313938 0.490340 0.290208
v 0.304025 0.005346 0.292934
v 0.310246 0.490340 0.297454
v 0.299976 0.005346 0.296982
v 0.304496 0.490340 0.303204
v 0.294874 0.005346 0.299582
v 0.297250 0.490340 0.306896
vt 0.246772 0.243834
vt 0.444355 0.015504
vt 0.432929 0.000000
vt 0.235346 0.228330
vt 0.304701 0.640888
vt 0.304701 1.000000
vt 0.321550 1.000000
vt 0.321550 0.640888
vt 0.024594 0.397054
vt 0.011426 0.381836
vt 0.000000 0.397340
vt 0.013168 0.412558
vt 0.444355 0.021094
vt 0.731137 0.021094
vt 0.731137 0.000000
vt 0.444355 0.000000
vt 0.206661 0.024873
vt 0.193492 0.009655
vt 0.000000 0.977562
vt 0.000000 1.000000
vt 0.286782 1.000000
vt 0.286782 0.977562
vt 0.433822 0.906981
vt 0.437333 0.906981
vt 0.437333 0.640888
vt 0.433822 0.640888
vt 1.000000 0.000000
vt 0.731137 0.000000
vt 0.731137 0.359112
vt 1.000000 0.359112
vt 0.222178 0.625384
vt 0.210751 0.640888
vt 0.233604 0.259051
vt 0.222178 0.243547
vt 0.444355 0.896300
vt 0.444355 0.916538
vt 0.731137 0.916538
vt 0.731137 0.896300
vt 0.444355 0.447307
vt 0.731137 0.447307
vt 0.444355 0.467745
vt 0.731137 0.467745
vt 0.415670 0.631233
vt 0.428838 0.616015
vt 0.304701 0.640888
vt 0.286782 0.640888
vt 0.286782 1.000000
vt 0.304701 1.000000
vt 0.444355 0.467745
vt 0.731137 0.467745
vt 0.222178 0.015217
vt 0.209009 0.000000
vt 0.431187 0.640888
vt 0.444355 0.625670
vt 0.258600 0.942271
vt 0.286782 0.640888
vt 0.258600 0.676178
vt 0.000000 0.640888
vt 0.028182 0.676178
vt 0.028182 0.942271
vt 0.943636 0.359112
vt 0.731137 0.359112
vt 0.731137 0.647644
vt 0.943636 0.647644
vt 0.885379 0.913738
vt 0.888890 0.913738
vt 0.888890 0.647644
vt 0.885379 0.647644
vt 0.444355 0.640888
vt 0.440844 0.640888
vt 0.440844 0.929420
vt 0.444355 0.929420
vt 0.437333 0.929420
vt 0.440844 0.929420
vt 0.440844 0.640888
vt 0.437333 0.640888
vt 0.388314 0.916382
vt 0.388314 0.640888
vt 0.391957 0.640903
vt 0.390880 0.916393
vt 0.395244 0.640949
vt 0.393194 0.916425
vt 0.397852 0.641020
vt 0.395030 0.916475
vt 0.810988 0.647644
vt 0.813474 0.923126
vt 0.810188 0.923160
vt 0.808674 0.647668
vt 0.806545 0.923178
vt 0.806109 0.647681
vt 0.802902 0.923178
vt 0.803544 0.647681
vt 0.799615 0.923160
vt 0.801229 0.647668
vt 0.797007 0.923126
vt 0.799393 0.647644
vt 0.845851 0.923135
vt 0.843801 0.647657
vt 0.847088 0.647648
vt 0.848165 0.923128
vt 0.850731 0.647644
vt 0.850731 0.923126
vt 0.854374 0.647648
vt 0.853296 0.923128
vt 0.857660 0.647657
vt 0.855610 0.923135
vt 0.794621 0.647644
vt 0.797007 0.923126
vt 0.794399 0.923160
vt 0.792784 0.647668
vt 0.791112 0.923178
vt 0.790470 0.647681
vt 0.787469 0.923178
vt 0.787905 0.647681
vt 0.783826 0.923160
vt 0.785340 0.647668
vt 0.780539 0.923126
vt 0.783026 0.647644
vt 0.381599 0.916475
vt 0.378777 0.641020
vt 0.381385 0.640949
vt 0.383435 0.916425
vt 0.384671 0.640903
vt 0.385749 0.916393
vt 0.404753 0.916422
vt 0.407350 0.916422
vt 0.409820 0.917427
vt 0.411921 0.919338
vt 0.413448 0.921969
vt 0.414250 0.925062
vt 0.414250 0.928315
vt 0.413448 0.931408
vt 0.411921 0.934039
vt 0.409820 0.935951
vt 0.407350 0.936956
vt 0.404753 0.936956
vt 0.402283 0.935950
vt 0.400181 0.934039
vt 0.398655 0.931408
vt 0.397852 0.928315
vt 0.397852 0.925062
vt 0.398655 0.921969
vt 0.400181 0.919338
vt 0.402283 0.917427
vt 0.369239 0.916382
vt 0.366674 0.916393
vt 0.365596 0.640903
vt 0.369239 0.640888
vt 0.364359 0.916425
vt 0.362309 0.640949
vt 0.362523 0.916475
vt 0.359701 0.641020
vt 0.766558 0.647644
vt 0.768872 0.647668
vt 0.767358 0.923160
vt 0.764072 0.923126
vt 0.771437 0.647681
vt 0.771001 0.923178
vt 0.774003 0.647681
vt 0.774645 0.923178
vt 0.776317 0.647668
vt 0.777931 0.923160
vt 0.778153 0.647644
vt 0.780539 0.923126
vt 0.841751 0.923135
vt 0.839437 0.923128
vt 0.840515 0.647648
vt 0.843801 0.647657
vt 0.836871 0.923126
vt 0.836871 0.647644
vt 0.834306 0.923128
vt 0.833228 0.647648
vt 0.831992 0.923135
vt 0.829942 0.647657
vt 0.815860 0.647644
vt 0.817697 0.647668
vt 0.816083 0.923160
vt 0.813474 0.923126
vt 0.820011 0.647681
vt 0.819369 0.923178
vt 0.822576 0.647681
vt 0.823012 0.923178
vt 0.825142 0.647668
vt 0.826655 0.923160
vt 0.827456 0.647644
vt 0.829942 0.923126
vt 0.375955 0.916475
vt 0.374118 0.916425
vt 0.376168 0.640949
vt 0.378777 0.641020
vt 0.371804 0.916393
vt 0.372882 0.640903
vt 0.423748 0.936955
vt 0.421151 0.936955
vt 0.418681 0.935950
vt 0.416579 0.934039
vt 0.415053 0.931408
vt 0.414250 0.928315
vt 0.414250 0.925062
vt 0.415053 0.921969
vt 0.416579 0.919338
vt 0.418681 0.917427
vt 0.421151 0.916422
vt 0.423748 0.916422
vt 0.426218 0.917427
vt 0.428319 0.919338
vt 0.429846 0.921969
vt 0.430648 0.925062
vt 0.430648 0.928315
vt 0.429846 0.931408
vt 0.428319 0.934039
vt 0.426218 0.935950
vt 0.878449 0.923126
vt 0.875884 0.923128
vt 0.874806 0.647648
vt 0.878449 0.647644
vt 0.873570 0.923135
vt 0.871520 0.647657
vt 0.400238 0.640888
vt 0.402075 0.640912
vt 0.400460 0.916404
vt 0.397852 0.916369
vt 0.404389 0.640925
vt 0.403747 0.916422
vt 0.406954 0.640925
vt 0.407390 0.916422
vt 0.409519 0.640912
vt 0.411033 0.916404
vt 0.411834 0.640888
vt 0.414320 0.916369
vt 0.337803 0.916475
vt 0.335967 0.916425
vt 0.338017 0.640949
vt 0.340625 0.641020
vt 0.333653 0.916393
vt 0.334731 0.640903
vt 0.331088 0.916382
vt 0.331088 0.640888
vt 0.328522 0.916393
vt 0.327444 0.640903
vt 0.326208 0.916425
vt 0.324158 0.640949
vt 0.324372 0.916475
vt 0.321550 0.641020
vt 0.750091 0.647644
vt 0.752405 0.647668
vt 0.750891 0.923160
vt 0.747604 0.923126
vt 0.754970 0.647681
vt 0.754534 0.923178
vt 0.757535 0.647681
vt 0.758177 0.923178
vt 0.759849 0.647668
vt 0.761464 0.923160
vt 0.761686 0.647644
vt 0.764072 0.923126
vt 0.883328 0.923135
vt 0.881014 0.923128
vt 0.882092 0.647648
vt 0.885379 0.647657
vt 0.328658 0.917480
vt 0.331128 0.916475
vt 0.333725 0.916475
vt 0.336195 0.917480
vt 0.338296 0.919392
vt 0.339823 0.922023
vt 0.340625 0.925116
vt 0.340625 0.928368
vt 0.339823 0.931461
vt 0.338296 0.934092
vt 0.336195 0.936004
vt 0.333725 0.937009
vt 0.331128 0.937009
vt 0.328658 0.936004
vt 0.326557 0.934092
vt 0.325030 0.931461
vt 0.324227 0.928368
vt 0.324227 0.925116
vt 0.325030 0.922023
vt 0.326557 0.919392
vt 0.864590 0.923126
vt 0.864590 0.647644
vt 0.868233 0.647648
vt 0.867155 0.923128
vt 0.871520 0.647657
vt 0.869469 0.923135
vt 0.428401 0.640888
vt 0.430787 0.916369
vt 0.428179 0.916404
vt 0.426564 0.640912
vt 0.424892 0.916422
vt 0.424250 0.640925
vt 0.421249 0.916422
vt 0.421685 0.640925
vt 0.417606 0.916404
vt 0.419120 0.640912
vt 0.414320 0.916369
vt 0.416806 0.640888
vt 0.343447 0.916475
vt 0.340625 0.641020
vt 0.343234 0.640949
vt 0.345284 0.916425
vt 0.346520 0.640903
vt 0.347598 0.916393
vt 0.350163 0.640888
vt 0.350163 0.916382
vt 0.353806 0.640903
vt 0.352728 0.916393
vt 0.357093 0.640949
vt 0.355043 0.916425
vt 0.359701 0.641020
vt 0.356879 0.916475
vt 0.733623 0.923178
vt 0.731137 0.647697
vt 0.734424 0.647662
vt 0.735937 0.923154
vt 0.738067 0.647644
vt 0.738503 0.923141
vt 0.741710 0.647644
vt 0.741068 0.923141
vt 0.744996 0.647662
vt 0.743382 0.923154
vt 0.747605 0.647696
vt 0.745219 0.923178
vt 0.859711 0.923135
vt 0.857660 0.647657
vt 0.860947 0.647648
vt 0.862025 0.923128
vt 0.347526 0.937009
vt 0.345056 0.936004
vt 0.342955 0.934092
vt 0.341428 0.931461
vt 0.340625 0.928368
vt 0.340625 0.925116
vt 0.341428 0.922023
vt 0.342955 0.919392
vt 0.345056 0.917480
vt 0.347526 0.916475
vt 0.350123 0.916475
vt 0.352593 0.917480
vt 0.354694 0.919392
vt 0.356221 0.922023
vt 0.357024 0.925116
vt 0.357024 0.928368
vt 0.356221 0.931461
vt 0.354694 0.934092
vt 0.352593 0.936004
vt 0.350123 0.937009
vn -1.0000 0.0000 0.0000
vn 0.0000 0.0000 -1.0000
vn 1.0000 0.0000 0.0000
vn 0.0000 0.0000 1.0000
vn 0.0000 -1.0000 0.0000
vn 0.0000 1.0000 0.0000
vn 0.0000 -0.3563 -0.9344
vn 0.0000 -0.1944 0.9809
vn 0.0000 0.1944 -0.9809
vn 0.0000 0.3563 0.9344
vn 0.0000 -0.6793 -0.7338
vn 0.0000 -0.0158 -0.9998
vn 0.3090 -0.0158 -0.9509
vn 0.2268 -0.6793 -0.6979
vn 0.5877 -0.0158 -0.8089
vn 0.4313 -0.6793 -0.5937
vn 0.8089 -0.0158 -0.5877
vn 0.5937 -0.6793 -0.4313
vn 0.9509 -0.0158 -0.3090
vn 0.6979 -0.6793 -0.2268
vn 0.9998 -0.0158 0.0000
vn 0.7338 -0.6793 0.0000
vn 0.9509 -0.0158 0.3090
vn 0.6979 -0.6793 0.2268
vn 0.8089 -0.0158 0.5877
vn 0.5937 -0.6793 0.4313
vn 0.5877 -0.0158 0.8089
vn 0.4313 -0.6793 0.5937
vn 0.3090 -0.0158 0.9509
vn 0.2268 -0.6793 0.6979
vn 0.0000 -0.0158 0.9998
vn 0.0000 -0.6793 0.7338
vn -0.3090 -0.0158 0.9509
vn -0.2268 -0.6793 0.6979
vn -0.5877 -0.0158 0.8089
vn -0.4313 -0.6793 0.5936
vn -0.8089 -0.0158 0.5877
vn -0.5937 -0.6793 0.4313
vn -0.9509 -0.0158 0.3090
vn -0.6979 -0.6793 0.2268
vn -0.9998 -0.0158 0.0000
vn -0.7338 -0.6793 0.0000
vn -0.9509 -0.0158 -0.3090
vn -0.6979 -0.6793 -0.2268
vn -0.8089 -0.0158 -0.5877
vn -0.5937 -0.6793 -0.4313
vn -0.5877 -0.0158 -0.8089
vn -0.4313 -0.6793 -0.5937
vn -0.3090 -0.0158 -0.9509
vn -0.2268 -0.6793 -0.6979
vn -0.4313 -0.6793 0.5937
vn 0.4313 -0.6793 0.5936
vn 0.5936 -0.6793 -0.4313
vn -0.5936 -0.6793 0.4313
vn 0.5936 -0.6793 0.4313
usemtl 1
s off
f 9/1/1 3/2/1 22/3/1 21/4/1
f 3/5/2 7/6/2 23/7/2 22/8/2
f 11/9/3 5/10/3 6/11/3 24/12/3
f 5/13/4 1/14/4 2/15/4 6/16/4
f 11/9/3 16/17/3 15/18/3 5/10/3
f 24/19/5 6/20/5 2/21/5 21/22/5
f 12/23/1 28/24/1 27/25/1 8/26/1
f 3/27/6 9/28/6 11/29/6 7/30/6
f 7/31/3 11/9/3 24/12/3 23/32/3
f 1/33/1 9/1/1 21/4/1 2/34/1
f 13/35/7 17/36/7 20/37/7 16/38/7
f 5/13/8 15/39/8 14/40/8 1/14/8
f 9/41/9 13/35/9 16/38/9 11/42/9
f 1/33/1 14/43/1 13/44/1 9/1/1
f 17/45/6 18/46/6 19/47/6 20/48/6
f 15/39/10 19/49/10 18/50/10 14/40/10
f 16/17/3 20/51/3 19/52/3 15/18/3
f 14/43/1 18/53/1 17/54/1 13/44/1
f 10/55/5 21/22/5 22/56/5 4/57/5
f 4/57/5 22/56/5 23/58/5 8/59/5
f 8/59/5 23/58/5 24/19/5 12/60/5
f 12/60/5 24/19/5 21/22/5 10/55/5
f 27/61/5 28/62/5 25/63/5 26/64/5
f 4/65/3 26/66/3 25/67/3 10/68/3
f 10/69/2 25/70/2 28/71/2 12/72/2
f 8/73/4 27/74/4 26/75/4 4/76/4
s 1
f 29/77/11 30/78/12 32/79/13 31/80/14
f 31/80/14 32/79/13 34/81/15 33/82/16
f 33/82/16 34/81/15 36/83/17 35/84/18
f 35/85/18 36/86/17 38/87/19 37/88/20
f 37/88/20 38/87/19 40/89/21 39/90/22
f 39/90/22 40/89/21 42/91/23 41/92/24
f 41/92/24 42/91/23 44/93/25 43/94/26
f 43/94/26 44/93/25 46/95/27 45/96/28
f 45/97/28 46/98/27 48/99/29 47/100/30
f 47/100/30 48/99/29 50/101/31 49/102/32
f 49/102/32 50/101/31 52/103/33 51/104/34
f 51/104/34 52/103/33 54/105/35 53/106/36
f 53/107/36 54/108/35 56/109/37 55/110/38
f 55/110/38 56/109/37 58/111/39 57/112/40
f 57/112/40 58/111/39 60/113/41 59/114/42
f 59/114/42 60/113/41 62/115/43 61/116/44
f 61/116/44 62/115/43 64/117/45 63/118/46
f 63/119/46 64/120/45 66/121/47 65/122/48
f 65/122/48 66/121/47 68/123/49 67/124/50
f 67/124/50 68/123/49 30/78/12 29/77/11
f 29/125/11 31/126/14 33/127/16 35/128/18 37/129/20 39/130/22 41/131/24 43/132/26 45/133/28 47/134/30 49/135/32 51/136/34 53/137/36 55/138/38 57/139/40 59/140/42 61/141/44 63/142/46 65/143/48 67/144/50
f 69/145/11 71/146/50 72/147/49 70/148/12
f 71/146/50 73/149/48 74/150/47 72/147/49
f 73/149/48 75/151/46 76/152/45 74/150/47
f 75/153/46 77/154/44 78/155/43 76/156/45
f 77/154/44 79/157/42 80/158/41 78/155/43
f 79/157/42 81/159/40 82/160/39 80/158/41
f 81/159/40 83/161/38 84/162/37 82/160/39
f 83/161/38 85/163/51 86/164/35 84/162/37
f 85/165/51 87/166/34 88/167/33 86/168/35
f 87/166/34 89/169/32 90/170/31 88/167/33
f 89/169/32 91/171/30 92/172/29 90/170/31
f 91/171/30 93/173/52 94/174/27 92/172/29
f 93/175/52 95/176/26 96/177/25 94/178/27
f 95/176/26 97/179/24 98/180/23 96/177/25
f 97/179/24 99/181/22 100/182/21 98/180/23
f 99/181/22 101/183/20 102/184/19 100/182/21
f 101/183/20 103/185/53 104/186/17 102/184/19
f 103/187/53 105/188/16 106/189/15 104/190/17
f 105/188/16 107/191/14 108/192/13 106/189/15
f 107/191/14 69/145/11 70/148/12 108/192/13
f 69/193/11 107/194/14 105/195/16 103/196/53 101/197/20 99/198/22 97/199/24 95/200/26 93/201/52 91/202/30 89/203/32 87/204/34 85/205/51 83/206/38 81/207/40 79/208/42 77/209/44 75/210/46 73/211/48 71/212/50
f 109/213/32 111/214/30 112/215/29 110/216/31
f 111/214/30 113/217/28 114/218/27 112/215/29
f 113/219/28 115/220/26 116/221/25 114/222/27
f 115/220/26 117/223/24 118/224/23 116/221/25
f 117/223/24 119/225/22 120/226/21 118/224/23
f 119/225/22 121/227/20 122/228/19 120/226/21
f 121/227/20 123/229/53 124/230/17 122/228/19
f 123/231/53 125/232/16 126/233/15 124/234/17
f 125/232/16 127/235/14 128/236/13 126/233/15
f 127/235/14 129/237/11 130/238/12 128/236/13
f 129/237/11 131/239/50 132/240/49 130/238/12
f 131/239/50 133/241/48 134/242/47 132/240/49
f 133/241/48 135/243/46 136/244/45 134/242/47
f 135/245/46 137/246/44 138/247/43 136/248/45
f 137/246/44 139/249/42 140/250/41 138/247/43
f 139/249/42 141/251/40 142/252/39 140/250/41
f 141/251/40 143/253/54 144/254/37 142/252/39
f 143/253/54 145/255/51 146/256/35 144/254/37
f 145/257/51 147/258/34 148/259/33 146/260/35
f 147/258/34 109/213/32 110/216/31 148/259/33
f 109/261/32 147/262/34 145/263/51 143/264/54 141/265/40 139/266/42 137/267/44 135/268/46 133/269/48 131/270/50 129/271/11 127/272/14 125/273/16 123/274/53 121/275/20 119/276/22 117/277/24 115/278/26 113/279/28 111/280/30
f 149/281/32 150/282/31 152/283/33 151/284/34
f 151/284/34 152/283/33 154/285/35 153/286/51
f 153/287/51 154/288/35 156/289/37 155/290/38
f 155/290/38 156/289/37 158/291/39 157/292/40
f 157/292/40 158/291/39 160/293/41 159/294/42
f 159/294/42 160/293/41 162/295/43 161/296/44
f 161/296/44 162/295/43 164/297/45 163/298/46
f 163/299/46 164/300/45 166/301/47 165/302/48
f 165/302/48 166/301/47 168/303/49 167/304/50
f 167/304/50 168/303/49 170/305/12 169/306/11
f 169/306/11 170/305/12 172/307/13 171/308/14
f 171/308/14 172/307/13 174/309/15 173/310/16
f 173/310/16 174/309/15 176/311/17 175/312/18
f 175/313/18 176/314/17 178/315/19 177/316/20
f 177/316/20 178/315/19 180/317/21 179/318/22
f 179/318/22 180/317/21 182/319/23 181/320/24
f 181/320/24 182/319/23 184/321/25 183/322/55
f 183/322/55 184/321/25 186/323/27 185/324/28
f 185/325/28 186/326/27 188/327/29 187/328/30
f 187/328/30 188/327/29 150/282/31 149/281/32
f 149/329/32 151/330/34 153/331/51 155/332/38 157/333/40 159/334/42 161/335/44 163/336/46 165/337/48 167/338/50 169/339/11 171/340/14 173/341/16 175/342/18 177/343/20 179/344/22 181/345/24 183/346/55 185/347/28 187/348/30
