# Blender v2.91.2 OBJ File: 'Slappening assests.blend'
# www.blender.org
mtllib Shelf 01.mtl
o Shelf_Cube.009
v -0.686598 1.956839 0.297137
v -0.709736 2.006845 0.320274
v -0.686598 1.956839 -0.297137
v -0.709736 2.006845 -0.320274
v 0.686598 1.956839 0.297137
v 0.709736 2.006845 0.320274
v 0.686598 1.956839 -0.297137
v 0.709736 2.006845 -0.320274
v -0.709736 1.956839 -0.320274
v -0.709736 1.956839 0.320274
v 0.709736 1.956839 -0.320274
v 0.709736 1.956839 0.320274
v -0.686598 1.966821 -0.297137
v -0.686598 1.966821 0.297137
v 0.686598 1.966821 -0.297137
v 0.686598 1.966821 0.297137
v 0.634880 1.699979 -0.214768
v 0.634880 1.699979 -0.298755
v 0.634880 1.969527 0.064899
v 0.634880 1.969527 -0.298755
v 0.634880 1.943355 0.000031
v 0.634880 1.726150 -0.225328
v 0.634880 1.726150 -0.272583
v 0.634880 1.943355 -0.272583
v 0.614880 1.699979 -0.214768
v 0.614880 1.699979 -0.298755
v 0.614880 1.969527 0.064899
v 0.614880 1.969527 -0.298755
v 0.614880 1.943355 0.000031
v 0.614880 1.726150 -0.225328
v 0.614880 1.726150 -0.272583
v 0.614880 1.943355 -0.272583
v -0.634880 1.699979 -0.214768
v -0.634880 1.699979 -0.298755
v -0.634880 1.969527 0.064899
v -0.634880 1.969527 -0.298755
v -0.634880 1.943355 0.000031
v -0.634880 1.726150 -0.225328
v -0.634880 1.726150 -0.272583
v -0.634880 1.943355 -0.272583
v -0.614880 1.699979 -0.214768
v -0.614880 1.699979 -0.298755
v -0.614880 1.969527 0.064899
v -0.614880 1.969527 -0.298755
v -0.614880 1.943355 0.000031
v -0.614880 1.726150 -0.225328
v -0.614880 1.726150 -0.272583
v -0.614880 1.943355 -0.272583
vt 0.802193 1.000000
vt 0.777131 1.000000
vt 0.777131 0.681912
vt 0.802193 0.681912
vt 0.964934 0.704892
vt 0.939873 0.704892
vt 0.939873 0.000000
vt 0.964934 0.000000
vt 0.827254 1.000000
vt 0.802193 1.000000
vt 0.802193 0.681912
vt 0.827254 0.681912
vt 0.989995 0.704892
vt 0.964934 0.704892
vt 0.964934 0.000000
vt 0.989995 0.000000
vt 0.877352 0.681912
vt 0.877352 0.977021
vt 0.872350 0.977021
vt 0.872350 0.681912
vt 0.642043 0.000000
vt 0.642043 0.704892
vt 0.321021 0.704892
vt 0.321021 0.000000
vt 0.309426 0.011490
vt 0.011596 0.011490
vt 0.000000 0.000000
vt 0.321021 0.000000
vt 0.309426 0.693402
vt 0.321021 0.704892
vt 0.011596 0.693402
vt 0.000000 0.704892
vt 0.939873 0.000000
vt 0.939873 0.681912
vt 0.642043 0.681912
vt 0.642043 0.000000
vt 0.872350 0.681912
vt 0.872350 0.977021
vt 0.867347 0.977021
vt 0.867347 0.681912
vt 0.994998 0.000000
vt 0.994998 0.681912
vt 0.989995 0.681912
vt 0.989995 0.000000
vt 1.000000 0.000000
vt 1.000000 0.681912
vt 0.994998 0.681912
vt 0.994998 0.000000
vt 0.655159 0.718375
vt 0.764015 0.830286
vt 0.777131 0.862498
vt 0.642043 0.723619
vt 0.655159 0.694909
vt 0.642043 0.681912
vt 0.764015 0.694909
vt 0.777131 0.681912
vt 0.148205 0.849015
vt 0.135089 0.843771
vt 0.270177 0.704892
vt 0.257061 0.737104
vt 0.148205 0.872481
vt 0.135089 0.885478
vt 0.257061 0.872481
vt 0.270177 0.885478
vt 0.415289 0.704892
vt 0.415289 0.816802
vt 0.405266 0.816802
vt 0.405266 0.704892
vt 0.415289 0.840269
vt 0.405266 0.840269
vt 0.465406 0.812753
vt 0.465406 0.704892
vt 0.475429 0.704892
vt 0.475429 0.812753
vt 0.445359 0.704892
vt 0.445359 0.840269
vt 0.435336 0.840269
vt 0.435336 0.704892
vt 0.837277 0.723619
vt 0.837277 0.862498
vt 0.827254 0.862498
vt 0.827254 0.723619
vt 0.837277 0.681912
vt 0.827254 0.681912
vt 0.455383 0.704892
vt 0.455383 0.838746
vt 0.445359 0.838746
vt 0.445359 0.704892
vt 0.847301 0.681912
vt 0.847301 0.862498
vt 0.837278 0.862498
vt 0.837277 0.681912
vt 0.013116 0.849015
vt 0.000000 0.843771
vt 0.135089 0.704892
vt 0.121972 0.737104
vt 0.013116 0.872481
vt 0.000000 0.885478
vt 0.121972 0.872481
vt 0.135089 0.885478
vt 0.283294 0.741355
vt 0.392149 0.853265
vt 0.405266 0.885478
vt 0.270177 0.746598
vt 0.283294 0.717888
vt 0.270177 0.704892
vt 0.392149 0.717888
vt 0.405266 0.704892
vt 0.425313 0.840269
vt 0.415289 0.840269
vt 0.415290 0.728358
vt 0.425313 0.728358
vt 0.415289 0.704892
vt 0.425313 0.704892
vt 0.475429 0.704892
vt 0.485453 0.704892
vt 0.485453 0.812753
vt 0.475429 0.812753
vt 0.425313 0.704892
vt 0.435336 0.704892
vt 0.435336 0.840269
vt 0.847301 0.723619
vt 0.857324 0.723619
vt 0.857324 0.862498
vt 0.847301 0.862498
vt 0.847301 0.681912
vt 0.857324 0.681912
vt 0.465406 0.838746
vt 0.455383 0.838746
vt 0.455383 0.704892
vt 0.465406 0.704892
vt 0.867347 0.862498
vt 0.857324 0.681912
vt 0.867347 0.681912
vn -1.0000 0.0000 0.0000
vn 0.0000 0.0000 -1.0000
vn 1.0000 0.0000 0.0000
vn 0.0000 0.0000 1.0000
vn 0.0000 1.0000 0.0000
vn 0.0000 -1.0000 0.0000
vn 0.0000 0.7200 -0.6940
vn 0.0000 -0.7200 0.6940
usemtl 1
s off
f 10/1/1 2/2/1 4/3/1 9/4/1
f 9/5/2 4/6/2 8/7/2 11/8/2
f 11/9/3 8/10/3 6/11/3 12/12/3
f 12/13/4 6/14/4 2/15/4 10/16/4
f 7/17/1 5/18/1 16/19/1 15/20/1
f 8/21/5 4/22/5 2/23/5 6/24/5
f 3/25/6 1/26/6 10/27/6 9/28/6
f 7/29/6 3/25/6 9/28/6 11/30/6
f 5/31/6 7/29/6 11/30/6 12/32/6
f 1/26/6 5/31/6 12/32/6 10/27/6
f 13/33/6 15/34/6 16/35/6 14/36/6
f 1/37/3 3/38/3 13/39/3 14/40/3
f 5/41/2 1/42/2 14/43/2 16/44/2
f 3/45/4 7/46/4 15/47/4 13/48/4
f 22/49/3 21/50/3 19/51/3 17/52/3
f 23/53/3 22/49/3 17/52/3 18/54/3
f 24/55/3 23/53/3 18/54/3 20/56/3
f 21/50/3 24/55/3 20/56/3 19/51/3
f 30/57/1 25/58/1 27/59/1 29/60/1
f 31/61/1 26/62/1 25/58/1 30/57/1
f 32/63/1 28/64/1 26/62/1 31/61/1
f 29/60/1 27/59/1 28/64/1 32/63/1
f 21/65/7 22/66/7 30/67/7 29/68/7
f 22/66/5 23/69/5 31/70/5 30/67/5
f 23/71/4 24/72/4 32/73/4 31/74/4
f 24/75/6 21/76/6 29/77/6 32/78/6
f 17/79/8 19/80/8 27/81/8 25/82/8
f 18/83/6 17/79/6 25/82/6 26/84/6
f 20/85/2 18/86/2 26/87/2 28/88/2
f 19/89/5 20/90/5 28/91/5 27/92/5
f 38/93/1 33/94/1 35/95/1 37/96/1
f 39/97/1 34/98/1 33/94/1 38/93/1
f 40/99/1 36/100/1 34/98/1 39/97/1
f 37/96/1 35/95/1 36/100/1 40/99/1
f 46/101/3 45/102/3 43/103/3 41/104/3
f 47/105/3 46/101/3 41/104/3 42/106/3
f 48/107/3 47/105/3 42/106/3 44/108/3
f 45/102/3 48/107/3 44/108/3 43/103/3
f 37/109/7 45/110/7 46/111/7 38/112/7
f 38/112/5 46/111/5 47/113/5 39/114/5
f 39/115/4 47/116/4 48/117/4 40/118/4
f 40/119/6 48/120/6 45/121/6 37/109/6
f 33/122/8 41/123/8 43/124/8 35/125/8
f 34/126/6 42/127/6 41/123/6 33/122/6
f 36/128/2 44/129/2 42/130/2 34/131/2
f 35/132/5 43/124/5 44/133/5 36/134/5
