# This file uses centimeters as units for non-parametric coordinates.

mtllib SM_Mousetrap_NOSKIN.mtl
g default
v 139.450989 36.651247 -321.006622
v 139.450989 -0.176828 -321.006622
v 139.450989 36.651247 321.006622
v 139.450989 -0.176828 321.006622
v -139.450989 36.651247 -321.006622
v -139.450989 -0.176828 -321.006622
v -139.450989 36.651247 321.006622
v -139.450989 -0.176828 321.006622
v -70.720253 53.841560 95.602760
v 70.720253 53.841560 95.602760
v -100.000000 30.607021 9.049606
v 100.000000 30.607021 9.049606
v -70.720253 53.841560 242.770721
v 70.720253 53.841560 242.770721
v -129.723297 80.866833 0.000001
v 129.723297 80.866833 -0.000001
v -129.723297 73.758072 -17.162064
v 129.723297 73.758064 -17.162067
v -129.723297 56.596004 -24.270824
v 129.723297 56.596001 -24.270826
v -129.723312 39.433941 -17.162064
v 129.723282 39.433939 -17.162067
v -129.723297 32.325178 0.000003
v 129.723297 32.325177 0.000001
v -129.723297 39.433945 17.162069
v 129.723297 39.433939 17.162067
v -129.723297 56.596004 24.270828
v 129.723297 56.596004 24.270823
v -129.723282 73.758072 17.162069
v 129.723312 73.758064 17.162067
v -128.670532 48.421196 -265.708557
v -128.670532 61.986420 -265.708557
v -128.670441 48.421196 0.890588
v -128.670441 61.986420 0.890588
v -132.798813 48.421196 -265.708557
v -132.798813 61.986420 -265.708557
v -132.798737 48.421196 0.890590
v -132.798737 61.986420 0.890590
v -128.670532 48.421196 -260.611237
v -128.670532 61.986420 -260.611237
v -132.798813 48.421196 -258.263641
v -132.798813 61.986420 -258.263641
v 128.670532 48.421196 -265.708557
v 128.670532 61.986420 -265.708557
v 128.670441 48.421196 0.890588
v 128.670441 61.986420 0.890588
v 132.798828 48.421196 -265.708557
v 132.798828 61.986420 -265.708557
v 132.798737 48.421196 0.890590
v 132.798737 61.986420 0.890590
v 128.670532 48.421196 -260.611237
v 128.670532 61.986420 -260.611237
v 132.798813 48.421196 -258.263641
v 132.798813 61.986420 -258.263641
v 0.000000 48.421198 -260.611267
v 0.000000 48.421198 -265.708618
v 0.000000 61.986416 -265.708618
v 0.000000 61.986416 -260.611267
v 6.193708 54.393112 222.850922
v 6.193708 118.868008 222.850922
v -52.098717 54.393112 113.888611
v -52.098717 118.868008 113.888611
v 9.129370 54.393112 222.132660
v 9.129370 118.868008 222.132660
v 10.528872 54.393112 98.565529
v 10.528872 118.868008 98.565529
vt 0.268059 0.838792
vt 0.751692 0.005548
vt 0.639016 0.675035
vt 0.359613 0.981137
vt 0.189036 0.852264
vt 0.574516 0.988817
vt 0.208998 0.698804
vt 0.607146 0.290182
vt 0.238528 0.698804
vt 0.280259 0.698804
vt 0.611639 0.290182
vt 0.574516 0.980713
vt 0.607146 0.298284
vt 0.976409 1.000000
vt 0.607146 0.000000
vt 0.976409 0.696567
vt 0.415654 0.698636
vt 0.340933 0.698636
vt 0.154653 0.768982
vt 0.223763 0.703295
vt 0.891744 0.000000
vt 0.415654 0.698636
vt 0.271276 0.768982
vt 0.036748 0.698804
vt 0.275768 0.698804
vt 0.896237 0.290182
vt 0.589281 0.698636
vt 0.864923 0.862690
vt 0.556010 0.698636
vt 0.154613 0.866632
vt 0.864923 0.883726
vt 0.303573 0.698804
vt 0.936323 0.000000
vt 0.340933 0.981137
vt 0.378294 0.981032
vt 0.154613 0.817841
vt 0.589281 0.706713
vt 0.896237 0.298283
vt 0.140355 0.822097
vt 0.268059 0.698804
vt 0.522566 0.698636
vt 0.639015 0.835183
vt 0.140355 0.698804
vt 0.485832 0.833136
vt 0.485832 0.828918
vt 0.223763 0.983271
vt 0.611639 0.000000
vt 0.322253 0.698636
vt 0.189169 0.803499
vt 0.275768 0.698804
vt 0.607146 0.290182
vt 0.604046 0.987889
vt 0.253294 0.838792
vt 0.751692 0.295729
vt 0.792967 0.675035
vt 0.140355 0.803499
vt 0.378294 0.698636
vt 0.574516 0.981032
vt 0.589281 0.988817
vt 0.223763 0.698804
vt 0.896237 0.000000
vt 0.589281 0.698636
vt 0.208998 0.987762
vt 0.896237 0.290182
vt 0.589281 0.980713
vt 0.896237 0.008104
vt 0.936323 0.000000
vt 0.000000 0.698804
vt 0.864923 0.580294
vt 0.415654 0.981032
vt 0.340933 0.980902
vt 0.189036 0.832054
vt 0.238528 0.982526
vt 0.303573 0.981137
vt 0.140355 0.852374
vt 0.271276 0.713569
vt 0.611639 0.580294
vt 0.485832 0.698636
vt 0.271276 0.698804
vt 0.519276 0.698636
vt 0.238528 0.698804
vt 0.611639 0.295729
vt 0.253294 0.978779
vt 0.303573 0.698636
vt 0.824837 0.883726
vt 0.896237 0.000000
vt 0.396974 0.698636
vt 0.174872 0.768982
vt 0.604046 0.706713
vt 0.607146 0.008104
vt 0.070177 0.698804
vt 0.208998 0.768982
vt 0.000000 0.829056
vt 0.792967 0.835183
vt 0.303573 0.000000
vt 0.936323 0.698803
vt 0.976409 0.696567
vt 0.896237 0.580294
vt 0.589281 0.987889
vt 0.322253 0.980902
vt 0.140355 0.832164
vt 0.223763 0.983437
vt 0.891744 0.295729
vt 0.253294 0.698804
vt 0.751692 0.290182
vt 0.208998 0.843283
vt 0.607146 0.580294
vt 0.378294 0.980902
vt 0.574516 0.698636
vt 0.174777 0.866587
vt 0.883768 0.580294
vt 0.303573 0.698871
vt 0.174872 0.817796
vt 0.604046 0.698636
vt 0.223763 0.987762
vt 0.607146 0.000000
vt 0.751692 0.000000
vt 0.223763 0.843283
vt 0.607146 0.698636
vt 0.824837 0.580294
vt 0.976409 0.000000
vt 0.140355 0.783279
vt 0.359613 0.698871
vt 0.253294 0.982526
vt 0.271276 0.698804
vt 0.891744 0.290182
vt 0.223763 0.698804
vt 0.280259 0.713569
vt 0.891744 0.580294
vt 0.253294 0.698804
vt 0.891744 0.005548
vt 0.268059 0.978779
vt 0.936323 1.000000
vt 0.000000 0.000000
vt 0.936323 0.696567
vt 0.396974 0.981032
vt 0.174777 0.817796
vt 0.208998 0.703295
vt 0.611639 0.290182
vt 0.140355 0.698804
vt 0.208998 0.698804
vt 0.556010 0.828918
vt 0.275768 0.713569
vt 0.607146 0.580294
vt 0.574516 0.698636
vt 0.864923 0.580294
vt 0.154653 0.817796
vt 0.556010 0.981032
vt 0.303573 0.000000
vt 0.896237 0.698803
vt 0.936323 0.696567
vt 0.340933 0.698871
vt 0.378294 0.698636
vt 0.189169 0.783279
vt 0.238528 0.983437
vt 0.611639 0.005548
vt 0.268059 0.698804
vt 0.070177 0.822097
vt 0.268059 0.768982
vt 0.033458 0.698804
vt 0.824837 0.580294
vt 0.140355 0.768982
vt 0.415654 0.833136
vt 0.070177 0.829056
vt 0.208998 0.983271
vt 0.891744 0.290182
vt 0.883768 0.862690
vt 0.275768 0.713569
vn 0.000000 1.000000 0.000000
vn 0.000000 1.000000 0.000000
vn 0.000000 1.000000 0.000000
vn 0.000000 1.000000 0.000000
vn 0.000000 0.000000 1.000000
vn 0.000000 0.000000 1.000000
vn 0.000000 0.000000 1.000000
vn 0.000000 0.000000 1.000000
vn -1.000000 0.000000 0.000000
vn -1.000000 0.000000 0.000000
vn -1.000000 0.000000 0.000000
vn -1.000000 0.000000 0.000000
vn 0.000000 -1.000000 0.000000
vn 0.000000 -1.000000 0.000000
vn 0.000000 -1.000000 0.000000
vn 0.000000 -1.000000 0.000000
vn 1.000000 0.000000 0.000000
vn 1.000000 0.000000 0.000000
vn 1.000000 0.000000 0.000000
vn 1.000000 0.000000 0.000000
vn 0.000000 0.000000 -1.000000
vn 0.000000 0.000000 -1.000000
vn 0.000000 0.000000 -1.000000
vn 0.000000 0.000000 -1.000000
vn 0.000000 0.965807 -0.259264
vn 0.000000 0.965807 -0.259264
vn 0.000000 0.965807 -0.259264
vn 0.000000 0.965807 -0.259264
vn 0.000000 1.000000 0.000000
vn 0.000000 1.000000 0.000000
vn 0.000000 1.000000 0.000000
vn 0.000000 1.000000 0.000000
vn 0.000000 0.923879 -0.382684
vn 0.000000 0.923879 -0.382684
vn 0.000000 0.923879 -0.382684
vn 0.000000 0.923879 -0.382684
vn 0.000000 0.382683 -0.923880
vn 0.000000 0.382683 -0.923880
vn 0.000000 0.382683 -0.923880
vn 0.000000 0.382683 -0.923880
vn -0.000000 -0.382683 -0.923880
vn -0.000000 -0.382683 -0.923880
vn -0.000000 -0.382683 -0.923880
vn -0.000000 -0.382683 -0.923880
vn -0.000000 -0.923880 -0.382684
vn -0.000000 -0.923880 -0.382684
vn -0.000000 -0.923880 -0.382684
vn -0.000000 -0.923880 -0.382684
vn -0.000000 -0.923880 0.382684
vn -0.000000 -0.923880 0.382684
vn -0.000000 -0.923880 0.382684
vn -0.000000 -0.923880 0.382684
vn 0.000000 -0.382683 0.923880
vn 0.000000 -0.382683 0.923880
vn 0.000000 -0.382683 0.923880
vn 0.000000 -0.382683 0.923880
vn 1.000000 -0.000000 -0.000000
vn 1.000000 -0.000000 -0.000000
vn 1.000000 -0.000000 -0.000000
vn 1.000000 -0.000000 -0.000000
vn 1.000000 -0.000000 -0.000000
vn 1.000000 -0.000000 -0.000000
vn 1.000000 -0.000000 -0.000000
vn 1.000000 -0.000000 -0.000000
vn 0.000000 0.382683 0.923880
vn 0.000000 0.382683 0.923880
vn 0.000000 0.382683 0.923880
vn 0.000000 0.382683 0.923880
vn 0.000000 0.923879 0.382684
vn 0.000000 0.923879 0.382684
vn 0.000000 0.923880 0.382684
vn 0.000000 0.923879 0.382684
vn -1.000000 0.000000 0.000000
vn -1.000000 0.000000 0.000000
vn -1.000000 0.000000 0.000000
vn -1.000000 0.000000 0.000000
vn -1.000000 0.000000 0.000000
vn -1.000000 0.000000 0.000000
vn -1.000000 0.000000 0.000000
vn -1.000000 0.000000 0.000000
vn 1.000000 0.000000 -0.000000
vn 1.000000 0.000000 -0.000000
vn 1.000000 0.000000 -0.000000
vn 1.000000 0.000000 -0.000000
vn 0.000000 0.000000 1.000000
vn 0.000000 0.000000 1.000000
vn 0.000000 0.000000 1.000000
vn 0.000000 0.000000 1.000000
vn -1.000000 0.000000 0.000000
vn -1.000000 0.000000 0.000000
vn -1.000000 0.000000 0.000000
vn -1.000000 0.000000 0.000000
vn 0.000000 0.000000 -1.000000
vn 0.000000 0.000000 -1.000000
vn -0.000000 0.000000 -1.000000
vn -0.000000 0.000000 -1.000000
vn 0.000000 -1.000000 -0.000000
vn 0.000000 -1.000000 -0.000000
vn 0.000000 -1.000000 0.000000
vn 0.000000 -1.000000 0.000000
vn 0.000000 1.000000 0.000000
vn 0.000000 1.000000 0.000000
vn 0.000000 1.000000 0.000000
vn 0.000000 1.000000 0.000000
vn 0.000000 1.000000 0.000000
vn 0.000000 1.000000 0.000000
vn 0.000000 -1.000000 -0.000000
vn 0.000000 -1.000000 -0.000000
vn -1.000000 0.000000 0.000000
vn -1.000000 0.000000 0.000000
vn 0.000000 0.000000 1.000000
vn 0.000000 0.000000 1.000000
vn 0.000000 0.000000 1.000000
vn 0.000000 0.000000 1.000000
vn 0.000000 1.000000 0.000000
vn 0.000000 1.000000 0.000000
vn 0.000000 -1.000000 0.000000
vn 0.000000 -1.000000 0.000000
vn -0.000000 0.000000 -1.000000
vn -0.000000 0.000000 -1.000000
vn -1.000000 0.000000 -0.000000
vn -1.000000 0.000000 -0.000000
vn -1.000000 0.000000 -0.000000
vn -1.000000 0.000000 -0.000000
vn -0.000000 0.000000 1.000000
vn -0.000000 0.000000 1.000000
vn -0.000000 0.000000 1.000000
vn -0.000000 0.000000 1.000000
vn 1.000000 0.000000 0.000002
vn 1.000000 0.000000 0.000002
vn 1.000000 0.000000 0.000002
vn 1.000000 0.000000 0.000002
vn 0.000000 0.000000 -1.000000
vn 0.000000 0.000000 -1.000000
vn 0.000000 0.000000 -1.000000
vn 0.000000 0.000000 -1.000000
vn -0.000000 -1.000000 0.000000
vn -0.000000 -1.000000 0.000000
vn 0.000000 -1.000000 0.000000
vn 0.000000 -1.000000 0.000000
vn 0.000000 1.000000 -0.000000
vn 0.000000 1.000000 -0.000001
vn -0.000000 1.000000 -0.000000
vn -0.000000 1.000000 -0.000000
vn 0.000000 1.000000 0.000000
vn 0.000000 1.000000 0.000000
vn 0.000000 -1.000000 0.000000
vn 0.000000 -1.000000 0.000000
vn 1.000000 0.000000 0.000000
vn 1.000000 0.000000 0.000000
vn 1.000000 0.000000 0.000000
vn 1.000000 0.000000 0.000000
vn -0.000000 0.000000 1.000000
vn -0.000000 0.000000 1.000000
vn -0.881750 0.000000 0.471717
vn -0.881750 0.000000 0.471717
vn -0.881750 0.000000 0.471717
vn -0.881750 0.000000 0.471717
vn -0.237660 0.000000 -0.971349
vn -0.237660 0.000000 -0.971349
vn -0.237660 0.000000 -0.971349
vn -0.237660 0.000000 -0.971349
vn 0.999936 0.000000 0.011325
vn 0.999936 0.000000 0.011325
vn 0.999936 0.000000 0.011325
vn 0.999936 0.000000 0.011325
vn 0.237661 0.000000 0.971348
vn 0.237661 0.000000 0.971348
vn 0.237661 0.000000 0.971348
vn 0.237661 0.000000 0.971348
vn 0.000000 -1.000000 0.000000
vn 0.000000 -1.000000 0.000000
vn 0.000000 -1.000000 0.000000
vn 0.000000 -1.000000 0.000000
vn 0.000000 1.000000 -0.000000
vn 0.000000 1.000000 -0.000000
vn 0.000000 1.000000 -0.000000
vn 0.000000 1.000000 -0.000000
s off
g SM_Mousetrap_NOSKIN
usemtl MouseFBXASC032TrapSG
f 1/149/1 5/15/2 7/119/3 3/84/4
f 4/31/5 3/85/6 7/120/7 8/69/8
f 8/67/9 7/121/10 5/16/11 6/135/12
f 6/134/13 2/95/14 4/32/15 8/68/16
f 2/96/17 1/150/18 3/86/19 4/33/20
f 6/14/21 5/133/22 1/151/23 2/97/24
usemtl MouseFBXASC032TrapSG1
f 9/55/25 10/3/26 12/107/27 11/161/28
f 10/3/29 9/55/30 13/94/31 14/42/32
f 15/28/33 16/146/34 18/111/35 17/167/36
f 17/74/37 18/112/38 20/48/39 19/100/40
f 19/100/41 20/48/42 22/152/43 21/34/44
f 21/35/45 22/153/46 24/87/47 23/136/48
f 23/136/49 24/87/50 26/17/51 25/70/52
f 25/71/53 26/18/54 28/123/55 27/4/56
f 18/113/57 16/147/58 30/56/59 28/122/60 26/19/61 24/88/62 22/154/63 20/49/64
f 27/4/65 28/123/66 30/57/67 29/108/68
f 29/109/69 30/58/70 16/148/71 15/29/72
f 15/30/73 17/75/74 19/101/75 21/36/76 23/137/77 25/72/78 27/5/79 29/110/80
f 39/155/81 40/102/82 34/127/83 33/9/84
f 33/10/85 34/128/86 38/168/87 37/50/88
s 1
f 41/89/89 42/37/90 36/62/91 35/114/92
s 2
f 35/115/93 36/63/94 32/165/95 31/46/96
s 3
f 39/156/97 41/90/98 35/116/99 31/47/100
s 4
f 42/38/101 40/103/102 32/166/103 36/64/104
f 38/98/105 34/129/106 40/103/102 42/38/101
s 3
f 33/11/107 37/51/108 41/90/98 39/156/97
s 1
f 37/52/109 38/99/110 42/37/90 41/89/89
s 5
f 40/104/111 39/157/112 55/1/113 58/53/114
s 4
f 32/166/103 40/103/102 58/54/115 57/105/116
s 3
f 39/156/97 31/47/100 56/117/117 55/2/118
s 2
f 31/46/96 32/165/95 57/106/119 56/118/120
s off
f 51/130/121 45/124/122 46/73/123 52/81/124
f 45/125/125 49/25/126 50/143/127 46/76/128
f 53/65/129 47/59/130 48/6/131 54/12/132
s 2
f 47/60/133 43/20/134 44/138/135 48/7/136
s 3
f 51/131/137 43/21/138 47/61/139 53/66/140
s 4
f 54/13/141 48/8/142 44/139/143 52/82/144
f 50/144/145 54/13/141 52/82/144 46/77/146
s 3
f 45/126/147 51/131/137 53/66/140 49/26/148
s off
f 49/27/149 53/65/150 54/12/151 50/145/152
s 5
f 52/83/153 58/53/114 55/1/113 51/132/154
s 4
f 44/139/143 57/105/116 58/54/115 52/82/144
s 3
f 51/131/137 55/2/118 56/117/117 43/21/138
s 2
f 43/20/134 56/118/120 57/106/119 44/138/135
s off
usemtl MouseFBXASC032TrapSG2
f 59/39/155 60/158/156 62/91/157 61/140/158
f 61/141/159 62/92/160 66/162/161 65/43/162
f 65/44/163 66/163/164 64/22/165 63/78/166
f 63/79/167 64/23/168 60/159/169 59/40/170
f 61/142/171 65/45/172 63/80/173 59/41/174
f 66/164/175 62/93/176 60/160/177 64/24/178
