# Blender v2.91.2 OBJ File: 'Gym Layout.blend'
# www.blender.org
mtllib Volumetric Lights Meshes 01.mtl
o Volumetric_Lights_Cube.019
v -11.037405 5.304430 -14.996726
v -11.037405 5.890417 -11.986520
v -11.037405 11.338019 -11.986521
v -11.037405 10.238399 -14.996726
v -10.780522 12.761840 -14.996726
v -10.780522 12.761840 -11.986520
v -10.780522 12.761840 -8.976314
v -10.780522 12.761840 -5.966108
v -10.780522 12.761840 -2.955902
v -10.780522 12.761840 0.054304
v -10.027382 14.580081 -14.996726
v -10.027382 14.580081 -11.986520
v -10.027382 14.580081 -8.976314
v -10.027382 14.580081 -5.966108
v -10.027382 14.580081 -2.955902
v -10.027382 14.580081 0.054304
v -8.829309 16.141439 -14.996726
v -8.829309 16.141439 -11.986520
v -8.829309 16.141439 -8.976314
v -8.829309 16.141439 -5.966108
v -8.829309 16.141439 -2.955902
v -8.829309 16.141439 0.054304
v -7.267951 17.339514 -14.996726
v -7.267951 17.339514 -11.986520
v -7.267951 17.339514 -8.976314
v -7.267951 17.339514 -5.966108
v -7.267951 17.339514 -2.955902
v -7.267951 17.339514 0.054304
v -11.037405 5.304430 -13.491623
v -11.037405 10.810627 -13.491624
v -11.037405 8.057528 -11.986520
v -11.037405 8.057528 -14.318580
v -11.037405 5.878511 -8.976314
v -11.037405 5.304430 -5.966108
v -11.037405 5.304430 -2.955902
v -11.037405 6.036391 0.054304
v -11.037405 10.810627 0.054304
v -11.037405 9.850800 -2.955902
v -11.037405 10.810627 -5.966108
v -11.037405 10.005013 -8.976315
v -11.037405 5.304430 -7.471210
v -11.037405 5.779245 -1.450799
v -11.037405 10.810627 -1.450799
v -11.037405 10.810627 -7.471211
v -11.037405 9.305473 -0.565145
v -11.037405 8.057528 -2.955902
v -11.037405 8.057528 -6.753844
v -11.037405 8.057528 -8.976314
v 7.686335 -16.840937 -20.620874
v 7.686335 -15.940887 -15.997340
v 7.686335 -7.573624 -15.997342
v 7.686335 -9.262590 -18.070726
v 8.080894 -5.386703 -18.070726
v 8.080894 -5.386703 -15.997340
v 8.080894 -5.386703 -11.373804
v 8.080894 -5.386703 -6.750268
v 8.080894 -5.386703 -2.126733
v 8.080894 -5.386703 2.496804
v 9.237683 -2.593969 -18.070726
v 9.237683 -2.593969 -15.997340
v 9.237683 -2.593969 -11.373804
v 9.237683 -2.593969 -6.750268
v 9.237683 -2.593969 -2.126733
v 9.237683 -2.593969 2.496804
v 10.546320 -0.786980 -18.070726
v 10.546320 -0.786980 -15.997340
v 10.546320 -0.786980 -11.373804
v 10.546320 -0.786980 -6.750268
v 10.546320 -0.786980 -2.126733
v 10.546320 -0.786980 2.496804
v 10.587384 2.235575 -18.070726
v 10.587384 2.235575 -15.997340
v 10.587384 2.235575 -11.373804
v 10.587384 2.235575 -6.750268
v 10.587384 2.235575 -2.126733
v 10.587384 2.235575 2.496804
v 7.686335 -16.840937 -18.309107
v 7.686335 -8.383675 -18.309111
v 7.686335 -12.612305 -15.997340
v 7.686335 -12.612305 -17.029125
v 7.686335 -15.959173 -11.373804
v 7.686335 -16.840937 -6.750268
v 7.686335 -16.840937 -2.126733
v 7.686335 -15.716678 2.496804
v 7.686335 -8.383675 2.496804
v 7.686335 -9.857924 -2.126733
v 7.686335 -8.383675 -6.750269
v 7.686335 -9.621060 -11.373806
v 7.686335 -16.840937 -9.062036
v 7.686335 -16.111643 0.185036
v 7.686335 -8.383675 0.185036
v 7.686335 -8.383675 -9.062037
v 7.686335 -10.695520 1.545358
v 7.686335 -12.612305 -2.126733
v 7.686335 -12.612305 -7.960194
v 7.686335 -12.612305 -11.373804
vt 0.629417 0.578427
vt 0.629417 0.526785
vt 0.629417 0.526785
vt 0.629417 0.578427
vt 0.791406 0.346038
vt 0.791406 0.371859
vt 0.791406 0.371859
vt 0.791406 0.346038
vt 0.561890 0.475143
vt 0.561890 0.423501
vt 0.561890 0.423501
vt 0.561890 0.475143
vt 0.696943 0.346038
vt 0.696943 0.320217
vt 0.696943 0.320217
vt 0.696943 0.346038
vt 0.629417 0.475143
vt 0.629417 0.423501
vt 0.629417 0.423501
vt 0.629417 0.475143
vt 0.696943 0.449322
vt 0.696943 0.423501
vt 0.696943 0.423501
vt 0.696943 0.449322
vt 0.561890 0.371859
vt 0.561890 0.320217
vt 0.561890 0.320217
vt 0.561890 0.371859
vt 0.629417 0.320217
vt 0.663180 0.320217
vt 0.663180 0.320217
vt 0.629417 0.320217
vt 0.744175 0.320217
vt 0.791406 0.320217
vt 0.791406 0.320217
vt 0.744175 0.320217
vt 0.696943 0.552606
vt 0.696943 0.526785
vt 0.696943 0.526785
vt 0.696943 0.552606
vt 0.663180 0.371859
vt 0.629417 0.371859
vt 0.629417 0.371859
vt 0.663180 0.371859
vt 0.744174 0.371859
vt 0.744174 0.371859
vt 0.595653 0.320217
vt 0.595653 0.320217
vt 0.791406 0.423501
vt 0.791406 0.449322
vt 0.791406 0.449322
vt 0.791406 0.423501
vt 0.663180 0.423501
vt 0.663180 0.423501
vt 0.744175 0.423501
vt 0.744175 0.423501
vt 0.595653 0.371859
vt 0.595653 0.371859
vt 0.696943 0.578427
vt 0.696943 0.578427
vt 0.663180 0.475143
vt 0.663180 0.475143
vt 0.595654 0.526785
vt 0.595654 0.578427
vt 0.595654 0.578427
vt 0.595654 0.526785
vt 0.791406 0.475143
vt 0.744175 0.475143
vt 0.744175 0.475143
vt 0.791406 0.475143
vt 0.595653 0.423501
vt 0.595653 0.423501
vt 0.696943 0.371859
vt 0.696943 0.371859
vt 0.663180 0.526785
vt 0.663180 0.526785
vt 0.595653 0.475143
vt 0.595653 0.475143
vt 0.663180 0.578427
vt 0.663180 0.578427
vt 0.696943 0.475143
vt 0.696943 0.475143
vt 0.561890 0.526785
vt 0.561890 0.526785
vt 0.744175 0.526785
vt 0.791406 0.526785
vt 0.791406 0.526785
vt 0.744175 0.526785
vt 0.791406 0.552606
vt 0.791406 0.552606
vt 0.561890 0.578427
vt 0.561890 0.578427
vt 0.791406 0.578427
vt 0.744175 0.578427
vt 0.744175 0.578427
vt 0.791406 0.578427
vn 0.6654 0.7465 0.0000
vn -0.7568 -0.6361 0.1505
vn -0.7521 -0.6285 0.1983
vn -0.7562 -0.6351 0.1575
vn 0.6458 0.7635 0.0000
vn 0.7116 0.6786 -0.1823
vn 0.7158 0.6983 0.0000
vn 0.7077 0.6717 -0.2189
vn 0.7012 0.6966 -0.1518
vn 0.6920 0.6921 -0.2055
vn -0.0921 0.0382 0.9950
vn 0.0878 0.1855 0.9787
vn 0.6051 0.6807 -0.4128
vn 0.6616 0.7076 -0.2480
vn 0.5440 0.6424 -0.5398
vn 0.0314 -0.0130 -0.9994
vn 0.0442 -0.0000 -0.9990
vn -0.0984 0.0373 0.9945
vn -0.7636 -0.6456 0.0000
vn -0.7621 -0.6354 -0.1244
vn -0.7628 -0.6369 -0.1117
vn 0.0297 -0.0123 0.9995
vn 0.3434 0.2584 0.9030
vn 0.0336 -0.0127 -0.9994
vn 0.4619 0.5833 -0.6682
vn -0.7594 -0.6413 0.1096
vn -0.0905 0.0375 -0.9952
vn -0.6579 -0.7531 0.0000
vn -0.1270 0.0000 -0.9919
vn 0.0317 -0.0120 0.9994
vn 0.6736 0.6232 -0.3974
vn 0.1500 -0.0621 0.9867
vn -0.0966 0.0367 -0.9947
vn -0.6934 -0.7206 0.0000
vn 0.6537 0.6672 -0.3571
vn -0.1156 0.0479 -0.9921
vn 0.1600 -0.0607 0.9852
vn -0.4549 -0.3389 0.8235
vn 0.2095 0.0000 0.9778
vn -0.7102 -0.6560 0.2554
vn -0.7383 -0.6572 0.1516
vn -0.7487 -0.6551 0.1016
vn -0.1234 0.0468 -0.9913
vn 0.3767 0.4833 -0.7903
vn -0.2350 -0.2674 0.9345
vn -0.4224 -0.2691 -0.8655
vn -0.7504 -0.6176 -0.2356
usemtl Normal
s 1
f 11/1/1 12/2/1 60/3/1 59/4/1
f 42/5/2 35/6/3 83/7/3 90/8/4
f 25/9/5 26/10/5 74/11/5 73/12/5
f 43/13/6 37/14/7 85/15/7 91/16/8
f 13/17/1 14/18/1 62/19/1 61/20/1
f 44/21/9 39/22/7 87/23/7 92/24/10
f 27/25/5 28/26/5 76/27/5 75/28/5
f 16/29/11 10/30/11 58/31/11 64/32/11
f 45/33/12 36/34/12 84/35/12 93/36/12
f 30/37/13 3/38/14 51/39/14 78/40/15
f 9/41/16 15/42/16 63/43/16 57/44/16
f 15/42/1 16/29/1 64/32/1 63/43/1
f 35/6/17 46/45/17 94/46/17 83/7/17
f 28/26/18 22/47/18 70/48/18 76/27/18
f 34/49/19 41/50/20 89/51/21 82/52/19
f 14/18/22 8/53/22 56/54/22 62/19/22
f 47/55/23 34/49/23 82/52/23 95/56/23
f 21/57/24 27/25/24 75/28/24 69/58/24
f 4/59/25 30/37/13 78/40/15 52/60/25
f 36/34/26 42/5/2 90/8/4 84/35/26
f 7/61/27 13/17/27 61/20/27 55/62/27
f 18/63/28 17/64/28 65/65/28 66/66/28
f 33/67/29 48/68/29 96/69/29 81/70/29
f 26/10/30 20/71/30 68/72/30 74/11/30
f 38/73/31 43/13/6 91/16/8 86/74/31
f 12/2/32 6/75/32 54/76/32 60/3/32
f 19/77/33 25/9/33 73/12/33 67/78/33
f 6/75/34 5/79/34 53/80/34 54/76/34
f 40/81/35 44/21/9 92/24/10 88/82/35
f 5/79/36 11/1/36 59/4/36 53/80/36
f 20/71/28 19/77/28 67/78/28 68/72/28
f 24/83/37 18/63/37 66/66/37 72/84/37
f 37/14/38 45/33/38 93/36/38 85/15/38
f 31/85/39 2/86/39 50/87/39 79/88/39
f 2/86/40 29/89/41 77/90/42 50/87/40
f 17/64/43 23/91/43 71/92/43 65/65/43
f 8/53/34 7/61/34 55/62/34 56/54/34
f 46/45/17 38/73/17 86/74/17 94/46/17
f 1/93/44 32/94/44 80/95/44 49/96/44
f 22/47/28 21/57/28 69/58/28 70/48/28
f 3/38/39 31/85/39 79/88/39 51/39/39
f 39/22/45 47/55/45 95/56/45 87/23/45
f 32/94/46 4/59/46 52/60/46 80/95/46
f 48/68/29 40/81/29 88/82/29 96/69/29
f 23/91/5 24/83/5 72/84/5 71/92/5
f 29/89/41 1/93/19 49/96/19 77/90/42
f 41/50/20 33/67/47 81/70/47 89/51/21
