# Blender v2.91.2 OBJ File: 'Gym Layout.blend'
# www.blender.org
mtllib Wall Wireframe 01.mtl
o Wall_Wireframe_Plane.002
v -10.638669 -4.217106 -0.117000
v -10.638669 -4.217106 0.117000
v 10.641553 -4.217106 -0.117000
v 10.641553 -4.217106 0.117000
v -0.998558 5.673565 -0.117000
v -0.998558 5.673565 0.117000
v 1.001442 5.673565 -0.117000
v 1.001442 5.673565 0.117000
v -9.735777 1.858883 -0.117000
v -9.735777 1.858883 0.117000
v 0.001442 -4.217106 -0.117000
v 0.001442 -4.217106 0.117000
v 9.738661 1.858883 -0.117000
v 9.738661 1.858883 0.117000
v 0.001442 5.673565 -0.117000
v 0.001442 5.673565 0.117000
v 0.001442 1.858883 -0.117000
v 0.001442 1.858883 0.117000
v 8.002779 3.897340 -0.117000
v 8.002779 3.897340 0.117000
v -7.999994 3.897340 -0.117000
v -7.999994 3.897340 0.117000
v 0.001393 3.897340 -0.117000
v 0.001393 3.897340 0.117000
v -10.614302 -0.772241 -0.116996
v -10.614302 -0.772241 0.116996
v 10.617186 -0.772240 -0.116996
v 10.617186 -0.772240 0.116996
v 0.001442 -0.772240 -0.117000
v 0.001442 -0.772240 0.117000
v 6.331465 4.897621 -0.116996
v 6.331465 4.897621 0.116997
v 0.001442 4.897621 -0.117000
v 0.001442 4.897621 0.117000
v -6.328580 4.897621 -0.117000
v -6.328580 4.897621 0.117000
v -0.499289 5.673565 -0.117000
v -0.499289 5.673565 0.117000
v -5.326398 -4.217106 -0.117000
v -5.326398 -4.217106 0.117000
v -4.874291 1.858883 -0.117000
v -4.874291 1.858883 0.117000
v -4.005155 3.897340 -0.117000
v -4.005155 3.897340 0.117000
v -5.314197 -0.772241 -0.117000
v -5.314197 -0.772241 0.117000
v -3.168201 4.897621 -0.117000
v -3.168201 4.897621 0.117000
v 5.321498 -4.217106 -0.117000
v 5.321498 -4.217106 0.117000
v 0.501442 5.673565 -0.117000
v 0.501442 5.673565 0.117000
v 4.870052 1.858883 -0.117000
v 4.870052 1.858883 0.117000
v 4.002087 3.897340 -0.117000
v 4.002087 3.897340 0.117000
v 5.309314 -0.772240 -0.117000
v 5.309314 -0.772240 0.117000
v 3.166454 4.897621 -0.117000
v 3.166454 4.897621 0.117000
v 0.001442 -12.389202 -0.117000
v 0.001442 -12.389202 0.117000
v -5.326398 -12.389202 -0.117000
v -5.326398 -12.389202 0.117000
v 5.321498 -12.389202 -0.117000
v 5.321498 -12.389202 0.117000
v 5.321498 -8.550033 -0.117000
v 5.321498 -8.550033 0.117000
v 0.001442 -8.550033 -0.117000
v 0.001442 -8.550033 0.117000
v -5.326398 -8.550033 -0.117000
v -5.326398 -8.550033 0.117000
v 3.183140 5.014621 0.000000
v 4.715625 5.014621 0.000000
v 6.371474 5.010030 0.000000
v 1.009914 5.790565 0.000000
v 0.992971 5.556565 0.000000
v 0.501442 5.790565 0.000000
v 1.321812 5.556565 0.000000
v -2.346678 5.014621 0.000000
v -0.115558 5.014621 0.000000
v -0.115558 5.556565 0.000000
v 0.001442 5.790565 0.000000
v -0.499289 5.790565 0.000000
v -0.482626 5.556565 0.000000
v -5.176011 -0.655241 0.000000
v -0.115558 -0.655240 0.000000
v -0.115558 1.741883 0.000000
v -4.775229 1.741883 0.000000
v 5.408401 -0.655240 0.000000
v 10.454770 -0.655240 0.000000
v 10.734051 -0.752820 0.000000
v 9.842451 1.917462 0.000000
v 9.654377 1.741883 0.000000
v 5.008204 1.741883 0.000000
v -4.697215 1.975883 0.000000
v -0.115561 1.975883 0.000000
v -0.115604 3.780340 0.000000
v -3.927849 3.780340 0.000000
v 4.947399 1.975883 0.000000
v 9.485353 1.975883 0.000000
v 8.079379 3.987849 0.000000
v 7.948739 3.780340 0.000000
v 4.179069 3.780340 0.000000
v 5.438085 -4.100106 -0.000000
v 5.438498 -4.334105 -0.000000
v 10.759383 -4.334105 -0.000000
v 10.523723 -4.100106 -0.000000
v 10.501010 -0.889240 0.000000
v 5.426729 -0.889240 0.000000
v -5.208983 -4.100106 -0.000000
v -0.115558 -4.100106 -0.000000
v -0.115558 -0.889240 0.000000
v -5.197610 -0.889241 0.000000
v -3.754705 4.014339 0.000000
v -0.115601 4.014339 0.000000
v -0.115564 4.780622 0.000000
v -3.113543 4.780622 0.000000
v 4.056800 4.014339 0.000000
v 7.579464 4.014339 0.000000
v 6.299128 4.780622 0.000000
v 3.416650 4.780621 0.000000
v -7.576657 4.014339 0.000000
v -4.059812 4.014339 0.000000
v -3.418650 4.780622 0.000000
v -6.296245 4.780622 0.000000
v -6.368587 5.010030 0.000000
v -8.076594 3.987849 0.000000
v -10.520839 -4.100106 -0.000000
v -10.756499 -4.334105 -0.000000
v -5.443398 -4.334105 -0.000000
v -5.442985 -4.100106 -0.000000
v -5.431612 -0.889241 0.000000
v -10.498126 -0.889241 0.000000
v -10.731167 -0.752821 0.000000
v -9.482479 1.975883 0.000000
v -4.951597 1.975883 0.000000
v -4.182231 3.780339 0.000000
v -7.945951 3.780340 0.000000
v -9.839568 1.917460 0.000000
v -10.451886 -0.655241 0.000000
v -5.413259 -0.655241 0.000000
v -5.012477 1.741883 0.000000
v -9.651493 1.741883 0.000000
v -4.712740 5.014621 0.000000
v -3.184864 5.014621 0.000000
v -1.320812 5.556565 0.000000
v -1.007029 5.790565 0.000000
v -0.990086 5.556565 0.000000
v 0.118399 4.014339 0.000000
v 3.751890 4.014339 0.000000
v 3.111741 4.780622 0.000000
v 0.118436 4.780622 0.000000
v 0.118442 -4.100106 -0.000000
v 5.204083 -4.100106 -0.000000
v 5.192727 -0.889240 0.000000
v 0.118442 -0.889240 0.000000
v 0.118439 1.975883 0.000000
v 4.693069 1.975883 0.000000
v 3.924740 3.780340 0.000000
v 0.118396 3.780340 0.000000
v 0.118442 -0.655240 0.000000
v 5.171162 -0.655240 0.000000
v 4.770966 1.741883 0.000000
v 0.118442 1.741883 0.000000
v 0.118442 5.014621 0.000000
v 2.346084 5.014622 0.000000
v 0.484756 5.556565 0.000000
v 0.118442 5.556565 0.000000
v 5.204498 -8.667032 -0.000000
v 0.118442 -8.667032 -0.000000
v 0.118442 -12.272202 -0.000000
v 0.001442 -12.506203 -0.000000
v 5.438498 -12.506203 -0.000000
v 5.204498 -12.272202 -0.000000
v 5.438498 -8.550033 -0.000000
v -0.115558 -8.667032 -0.000000
v -5.209398 -8.667032 -0.000000
v -5.443398 -8.550033 -0.000000
v -5.443398 -12.506203 -0.000000
v -5.209398 -12.272202 -0.000000
v -0.115558 -12.272202 -0.000000
v -0.115558 -4.334105 -0.000000
v -5.209398 -4.334105 -0.000000
v -5.209398 -8.433033 -0.000000
v -0.115558 -8.433033 -0.000000
v 5.204498 -4.334105 -0.000000
v 0.118442 -4.334105 -0.000000
v 0.118442 -8.433033 -0.000000
v 5.204498 -8.433033 -0.000000
vt 0.036548 0.648703
vt 0.036549 0.797406
vt 0.036549 0.797406
vt 0.036548 0.648703
vt 0.036548 0.648703
vt 0.036549 0.797406
vt 0.000092 0.546984
vt 0.000092 0.546984
vt 0.000092 0.546984
vt 0.000092 0.546984
vt 0.036549 0.797406
vt 0.000092 0.523492
vt 0.000092 0.523492
vt 0.000092 0.523492
vt 0.000092 0.523492
vt 0.036548 0.351080
vt 0.036548 0.500000
vt 0.036548 0.500000
vt 0.036548 0.351080
vt 0.036548 0.351080
vt 0.036548 0.500000
vt 0.000092 0.500000
vt 0.000092 0.500000
vt 0.000092 0.500000
vt 0.000092 0.476474
vt 0.000092 0.476474
vt 0.000092 0.476474
vt 0.000092 0.476474
vt 0.000092 0.500000
vt 0.302937 0.250254
vt 0.302937 0.500000
vt 0.302937 0.500000
vt 0.302937 0.250254
vt 0.302937 0.250254
vt 0.302937 0.500000
vt 0.179319 0.500000
vt 0.179319 0.500000
vt 0.179319 0.500000
vt 0.179318 0.270922
vt 0.179318 0.270922
vt 0.179318 0.270922
vt 0.302937 0.749382
vt 0.302938 0.998763
vt 0.302938 0.998763
vt 0.302937 0.749382
vt 0.302937 0.749382
vt 0.302938 0.998763
vt 0.179319 0.957487
vt 0.179319 0.957487
vt 0.179319 0.957487
vt 0.179319 0.957487
vt 0.302938 0.998763
vt 0.179319 0.728744
vt 0.179319 0.728744
vt 0.179319 0.728744
vt 0.179318 0.270922
vt 0.179319 0.500000
vt 0.083545 0.499998
vt 0.083545 0.499998
vt 0.083545 0.499998
vt 0.083545 0.311757
vt 0.083545 0.311757
vt 0.083545 0.311757
vt 0.179319 0.728744
vt 0.179319 0.957487
vt 0.083545 0.875930
vt 0.083545 0.875930
vt 0.083545 0.875930
vt 0.083545 0.875930
vt 0.083545 0.687964
vt 0.083545 0.687964
vt 0.083545 0.687964
vt 0.464789 0.749954
vt 0.464789 0.999908
vt 0.464789 0.999908
vt 0.464789 0.749954
vt 0.464789 0.749954
vt 0.464789 0.999908
vt 0.464789 0.999908
vt 0.464789 0.749954
vt 0.302938 0.998763
vt 0.302937 0.749382
vt 0.464789 0.249680
vt 0.464789 0.500000
vt 0.464789 0.500000
vt 0.464789 0.249680
vt 0.464789 0.249680
vt 0.464789 0.500000
vt 0.302937 0.500000
vt 0.302937 0.250254
vt 0.083545 0.311757
vt 0.083545 0.499998
vt 0.036548 0.500000
vt 0.036548 0.351080
vt 0.083545 0.687964
vt 0.083545 0.875930
vt 0.036549 0.797406
vt 0.036548 0.648703
vt 0.083545 0.124066
vt 0.083545 0.311757
vt 0.083545 0.124066
vt 0.083545 0.124066
vt 0.036548 0.351080
vt 0.036548 0.202595
vt 0.036548 0.202595
vt 0.036548 0.202595
vt 0.083545 0.124066
vt 0.036548 0.202595
vt 0.464789 0.000092
vt 0.464789 0.249680
vt 0.464789 0.000092
vt 0.464789 0.000092
vt 0.464789 0.249680
vt 0.464789 0.000092
vt 0.302937 0.250254
vt 0.302937 0.001237
vt 0.302937 0.001237
vt 0.302937 0.001237
vt 0.302937 0.001237
vt 0.179318 0.042513
vt 0.179318 0.270922
vt 0.179318 0.042513
vt 0.179318 0.042513
vt 0.083545 0.311757
vt 0.083545 0.124066
vt 0.179318 0.042513
vt 0.302937 0.001237
vt 0.302937 0.250254
vt 0.179318 0.270922
vt 0.179318 0.042513
vt 0.036548 0.202595
vt 0.036548 0.351080
vt 0.000092 0.476474
vt 0.000092 0.453017
vt 0.000092 0.453017
vt 0.000092 0.453017
vt 0.000092 0.453017
vt 0.083545 0.499998
vt 0.083545 0.687964
vt 0.036548 0.648703
vt 0.036548 0.500000
vt 0.464789 0.500000
vt 0.464789 0.749954
vt 0.302937 0.749382
vt 0.302937 0.500000
vt 0.179319 0.500000
vt 0.179319 0.728744
vt 0.083545 0.687964
vt 0.083545 0.499998
vt 0.302937 0.500000
vt 0.302937 0.749382
vt 0.179319 0.728744
vt 0.179319 0.500000
vt 0.036548 0.500000
vt 0.036548 0.648703
vt 0.000092 0.523492
vt 0.000092 0.500000
vt 0.668364 0.749954
vt 0.668364 0.500000
vt 0.668364 0.500000
vt 0.668364 0.749954
vt 0.668364 0.749954
vt 0.668364 0.500000
vt 0.848741 0.500000
vt 0.848741 0.500000
vt 0.848741 0.500000
vt 0.848741 0.749954
vt 0.848741 0.749954
vt 0.848741 0.749954
vt 0.848741 0.749954
vt 0.848741 0.500000
vt 0.668364 0.749954
vt 0.668364 0.500000
vt 0.668364 0.249680
vt 0.668364 0.249680
vt 0.668364 0.249680
vt 0.848741 0.249680
vt 0.848741 0.249680
vt 0.848741 0.249680
vt 0.848741 0.249680
vt 0.668364 0.249680
vt 0.848741 0.500000
vt 0.464789 0.500000
vt 0.464789 0.249680
vt 0.668364 0.249680
vt 0.668364 0.500000
vt 0.464789 0.749954
vt 0.464789 0.500000
vt 0.668364 0.500000
vt 0.668364 0.749954
vn 0.0000 0.7071 -0.7071
vn 0.0000 0.7071 0.7071
vn -0.1019 -0.6997 -0.7071
vn -0.1019 -0.6997 0.7071
vn 0.1019 0.6997 -0.7071
vn 0.1019 0.6997 0.7071
vn 0.0000 -0.7071 -0.7071
vn 0.0000 -0.7071 0.7071
vn 0.1977 0.6789 -0.7071
vn 0.1977 0.6789 0.7071
vn -0.7071 0.0000 -0.7071
vn -0.7071 0.0000 0.7071
vn 0.1974 -0.6790 -0.7071
vn 0.1974 -0.6790 0.7071
vn 0.6974 -0.1166 -0.7071
vn 0.6974 -0.1166 0.7071
vn -0.6707 -0.2239 -0.7071
vn -0.6707 -0.2239 0.7071
vn 0.6707 0.2239 -0.7071
vn 0.6707 0.2239 0.7071
vn 0.6975 0.1164 -0.7071
vn 0.6975 0.1164 0.7071
vn 0.6505 -0.2773 -0.7071
vn 0.6505 -0.2773 0.7071
vn -0.5384 -0.4584 -0.7071
vn -0.5384 -0.4584 0.7071
vn 0.5384 0.4584 -0.7071
vn 0.5384 0.4584 0.7071
vn 0.6506 0.2770 -0.7071
vn 0.6506 0.2770 0.7071
vn -0.7071 -0.0050 -0.7071
vn -0.7071 -0.0050 0.7071
vn 0.7071 0.0050 -0.7071
vn 0.7071 0.0050 0.7071
vn 0.7071 0.0025 -0.7071
vn 0.7071 0.0025 0.7071
vn 0.7071 -0.0025 -0.7071
vn 0.7071 -0.0025 0.7071
vn 0.5423 -0.4538 -0.7071
vn 0.5423 -0.4538 0.7071
vn -0.3631 -0.6067 -0.7071
vn -0.3631 -0.6067 0.7071
vn 0.3631 0.6067 -0.7071
vn 0.3631 0.6067 0.7071
vn 0.5427 0.4533 -0.7071
vn 0.5427 0.4533 0.7071
vn -0.5423 0.4538 -0.7071
vn -0.5423 0.4538 0.7071
vn 0.3631 -0.6068 -0.7071
vn 0.3631 -0.6068 0.7071
vn -0.3631 0.6068 -0.7071
vn -0.3631 0.6068 0.7071
vn -0.7071 0.0025 -0.7071
vn -0.7071 0.0025 0.7071
vn 0.7071 -0.0050 -0.7071
vn 0.7071 -0.0050 0.7071
vn -0.7071 0.0050 -0.7071
vn -0.7071 0.0050 0.7071
vn -0.6505 0.2773 -0.7071
vn -0.6505 0.2773 0.7071
vn 0.5384 -0.4584 -0.7071
vn 0.5384 -0.4584 0.7071
vn -0.5384 0.4584 -0.7071
vn -0.5384 0.4584 0.7071
vn -0.6974 0.1166 -0.7071
vn -0.6974 0.1166 0.7071
vn 0.6707 -0.2239 -0.7071
vn 0.6707 -0.2239 0.7071
vn -0.6707 0.2239 -0.7071
vn -0.6707 0.2239 0.7071
vn -0.1974 0.6790 -0.7071
vn -0.1974 0.6790 0.7071
vn 0.1019 -0.6997 -0.7071
vn 0.1019 -0.6997 0.7071
vn -0.1019 0.6997 -0.7071
vn -0.1019 0.6997 0.7071
vn -0.5427 -0.4533 -0.7071
vn -0.5427 -0.4533 0.7071
vn 0.7071 -0.0000 -0.7071
vn 0.7071 -0.0000 0.7071
vn -0.7071 -0.0025 -0.7071
vn -0.7071 -0.0025 0.7071
vn -0.6506 -0.2770 -0.7071
vn -0.6506 -0.2770 0.7071
vn -0.6975 -0.1164 -0.7071
vn -0.6975 -0.1164 0.7071
vn -0.1977 -0.6789 -0.7071
vn -0.1977 -0.6789 0.7071
usemtl None
s off
f 73/1/1 74/2/1 31/3/1 59/4/1
f 74/2/2 73/1/2 60/5/2 32/6/2
f 74/2/3 77/7/3 7/8/3 31/3/3
f 77/7/4 74/2/4 32/6/4 8/9/4
f 76/10/5 75/11/5 31/3/5 7/8/5
f 75/11/6 76/10/6 8/9/6 32/6/6
f 77/7/7 79/12/7 51/13/7 7/8/7
f 79/12/8 77/7/8 8/9/8 52/14/8
f 78/15/1 76/10/1 7/8/1 51/13/1
f 76/10/2 78/15/2 52/14/2 8/9/2
f 79/12/9 73/1/9 59/4/9 51/13/9
f 73/1/10 79/12/10 52/14/10 60/5/10
f 80/16/1 81/17/1 33/18/1 47/19/1
f 81/17/2 80/16/2 48/20/2 34/21/2
f 81/17/11 82/22/11 15/23/11 33/18/11
f 82/22/12 81/17/12 34/21/12 16/24/12
f 82/22/7 85/25/7 37/26/7 15/23/7
f 85/25/8 82/22/8 16/24/8 38/27/8
f 84/28/1 83/29/1 15/23/1 37/26/1
f 83/29/2 84/28/2 38/27/2 16/24/2
f 85/25/13 80/16/13 47/19/13 37/26/13
f 80/16/14 85/25/14 38/27/14 48/20/14
f 86/30/1 87/31/1 29/32/1 45/33/1
f 87/31/2 86/30/2 46/34/2 30/35/2
f 87/31/11 88/36/11 17/37/11 29/32/11
f 88/36/12 87/31/12 30/35/12 18/38/12
f 88/36/7 89/39/7 41/40/7 17/37/7
f 89/39/8 88/36/8 18/38/8 42/41/8
f 89/39/15 86/30/15 45/33/15 41/40/15
f 86/30/16 89/39/16 42/41/16 46/34/16
f 90/42/1 91/43/1 27/44/1 57/45/1
f 91/43/2 90/42/2 58/46/2 28/47/2
f 91/43/17 94/48/17 13/49/17 27/44/17
f 94/48/18 91/43/18 28/47/18 14/50/18
f 93/51/19 92/52/19 27/44/19 13/49/19
f 92/52/20 93/51/20 14/50/20 28/47/20
f 94/48/7 95/53/7 53/54/7 13/49/7
f 95/53/8 94/48/8 14/50/8 54/55/8
f 95/53/21 90/42/21 57/45/21 53/54/21
f 90/42/22 95/53/22 54/55/22 58/46/22
f 96/56/1 97/57/1 17/37/1 41/40/1
f 97/57/2 96/56/2 42/41/2 18/38/2
f 97/57/11 98/58/11 23/59/11 17/37/11
f 98/58/12 97/57/12 18/38/12 24/60/12
f 98/58/7 99/61/7 43/62/7 23/59/7
f 99/61/8 98/58/8 24/60/8 44/63/8
f 99/61/23 96/56/23 41/40/23 43/62/23
f 96/56/24 99/61/24 44/63/24 42/41/24
f 100/64/1 101/65/1 13/49/1 53/54/1
f 101/65/2 100/64/2 54/55/2 14/50/2
f 101/65/25 103/66/25 19/67/25 13/49/25
f 103/66/26 101/65/26 14/50/26 20/68/26
f 102/69/27 93/51/27 13/49/27 19/67/27
f 93/51/28 102/69/28 20/68/28 14/50/28
f 103/66/7 104/70/7 55/71/7 19/67/7
f 104/70/8 103/66/8 20/68/8 56/72/8
f 104/70/29 100/64/29 53/54/29 55/71/29
f 100/64/30 104/70/30 56/72/30 54/55/30
f 105/73/1 108/74/1 3/75/1 49/76/1
f 108/74/2 105/73/2 50/77/2 4/78/2
f 107/79/7 106/80/7 49/76/7 3/75/7
f 106/80/8 107/79/8 4/78/8 50/77/8
f 108/74/31 109/81/31 27/44/31 3/75/31
f 109/81/32 108/74/32 4/78/32 28/47/32
f 92/52/33 107/79/33 3/75/33 27/44/33
f 107/79/34 92/52/34 28/47/34 4/78/34
f 109/81/7 110/82/7 57/45/7 27/44/7
f 110/82/8 109/81/8 28/47/8 58/46/8
f 110/82/35 105/73/35 49/76/35 57/45/35
f 105/73/36 110/82/36 58/46/36 50/77/36
f 111/83/1 112/84/1 11/85/1 39/86/1
f 112/84/2 111/83/2 40/87/2 12/88/2
f 112/84/11 113/89/11 29/32/11 11/85/11
f 113/89/12 112/84/12 12/88/12 30/35/12
f 113/89/7 114/90/7 45/33/7 29/32/7
f 114/90/8 113/89/8 30/35/8 46/34/8
f 114/90/37 111/83/37 39/86/37 45/33/37
f 111/83/38 114/90/38 46/34/38 40/87/38
f 115/91/1 116/92/1 23/59/1 43/62/1
f 116/92/2 115/91/2 44/63/2 24/60/2
f 116/92/11 117/93/11 33/18/11 23/59/11
f 117/93/12 116/92/12 24/60/12 34/21/12
f 117/93/7 118/94/7 47/19/7 33/18/7
f 118/94/8 117/93/8 34/21/8 48/20/8
f 118/94/39 115/91/39 43/62/39 47/19/39
f 115/91/40 118/94/40 48/20/40 44/63/40
f 119/95/1 120/96/1 19/67/1 55/71/1
f 120/96/2 119/95/2 56/72/2 20/68/2
f 120/96/41 121/97/41 31/3/41 19/67/41
f 121/97/42 120/96/42 20/68/42 32/6/42
f 75/11/43 102/69/43 19/67/43 31/3/43
f 102/69/44 75/11/44 32/6/44 20/68/44
f 121/97/7 122/98/7 59/4/7 31/3/7
f 122/98/8 121/97/8 32/6/8 60/5/8
f 122/98/45 119/95/45 55/71/45 59/4/45
f 119/95/46 122/98/46 60/5/46 56/72/46
f 123/99/1 124/100/1 43/62/1 21/101/1
f 124/100/2 123/99/2 22/102/2 44/63/2
f 124/100/47 125/103/47 47/19/47 43/62/47
f 125/103/48 124/100/48 44/63/48 48/20/48
f 125/103/7 126/104/7 35/105/7 47/19/7
f 126/104/8 125/103/8 48/20/8 36/106/8
f 126/104/49 123/99/49 21/101/49 35/105/49
f 123/99/50 126/104/50 36/106/50 22/102/50
f 128/107/51 127/108/51 35/105/51 21/101/51
f 127/108/52 128/107/52 22/102/52 36/106/52
f 129/109/1 132/110/1 39/86/1 1/111/1
f 132/110/2 129/109/2 2/112/2 40/87/2
f 131/113/7 130/114/7 1/111/7 39/86/7
f 130/114/8 131/113/8 40/87/8 2/112/8
f 132/110/53 133/115/53 45/33/53 39/86/53
f 133/115/54 132/110/54 40/87/54 46/34/54
f 133/115/7 134/116/7 25/117/7 45/33/7
f 134/116/8 133/115/8 46/34/8 26/118/8
f 134/116/55 129/109/55 1/111/55 25/117/55
f 129/109/56 134/116/56 26/118/56 2/112/56
f 130/114/57 135/119/57 25/117/57 1/111/57
f 135/119/58 130/114/58 2/112/58 26/118/58
f 136/120/1 137/121/1 41/40/1 9/122/1
f 137/121/2 136/120/2 10/123/2 42/41/2
f 137/121/59 138/124/59 43/62/59 41/40/59
f 138/124/60 137/121/60 42/41/60 44/63/60
f 138/124/7 139/125/7 21/101/7 43/62/7
f 139/125/8 138/124/8 44/63/8 22/102/8
f 139/125/61 136/120/61 9/122/61 21/101/61
f 136/120/62 139/125/62 22/102/62 10/123/62
f 140/126/63 128/107/63 21/101/63 9/122/63
f 128/107/64 140/126/64 10/123/64 22/102/64
f 141/127/1 142/128/1 45/33/1 25/117/1
f 142/128/2 141/127/2 26/118/2 46/34/2
f 142/128/65 143/129/65 41/40/65 45/33/65
f 143/129/66 142/128/66 46/34/66 42/41/66
f 143/129/7 144/130/7 9/122/7 41/40/7
f 144/130/8 143/129/8 42/41/8 10/123/8
f 144/130/67 141/127/67 25/117/67 9/122/67
f 141/127/68 144/130/68 10/123/68 26/118/68
f 135/119/69 140/126/69 9/122/69 25/117/69
f 140/126/70 135/119/70 26/118/70 10/123/70
f 145/131/1 146/132/1 47/19/1 35/105/1
f 146/132/2 145/131/2 36/106/2 48/20/2
f 146/132/71 147/133/71 37/26/71 47/19/71
f 147/133/72 146/132/72 48/20/72 38/27/72
f 147/133/7 149/134/7 5/135/7 37/26/7
f 149/134/8 147/133/8 38/27/8 6/136/8
f 148/137/1 84/28/1 37/26/1 5/135/1
f 84/28/2 148/137/2 6/136/2 38/27/2
f 149/134/73 145/131/73 35/105/73 5/135/73
f 145/131/74 149/134/74 6/136/74 36/106/74
f 127/108/75 148/137/75 5/135/75 35/105/75
f 148/137/76 127/108/76 36/106/76 6/136/76
f 150/138/1 151/139/1 55/71/1 23/59/1
f 151/139/2 150/138/2 24/60/2 56/72/2
f 151/139/77 152/140/77 59/4/77 55/71/77
f 152/140/78 151/139/78 56/72/78 60/5/78
f 152/140/7 153/141/7 33/18/7 59/4/7
f 153/141/8 152/140/8 60/5/8 34/21/8
f 153/141/79 150/138/79 23/59/79 33/18/79
f 150/138/80 153/141/80 34/21/80 24/60/80
f 154/142/1 155/143/1 49/76/1 11/85/1
f 155/143/2 154/142/2 12/88/2 50/77/2
f 155/143/81 156/144/81 57/45/81 49/76/81
f 156/144/82 155/143/82 50/77/82 58/46/82
f 156/144/7 157/145/7 29/32/7 57/45/7
f 157/145/8 156/144/8 58/46/8 30/35/8
f 157/145/79 154/142/79 11/85/79 29/32/79
f 154/142/80 157/145/80 30/35/80 12/88/80
f 158/146/1 159/147/1 53/54/1 17/37/1
f 159/147/2 158/146/2 18/38/2 54/55/2
f 159/147/83 160/148/83 55/71/83 53/54/83
f 160/148/84 159/147/84 54/55/84 56/72/84
f 160/148/7 161/149/7 23/59/7 55/71/7
f 161/149/8 160/148/8 56/72/8 24/60/8
f 161/149/79 158/146/79 17/37/79 23/59/79
f 158/146/80 161/149/80 24/60/80 18/38/80
f 162/150/1 163/151/1 57/45/1 29/32/1
f 163/151/2 162/150/2 30/35/2 58/46/2
f 163/151/85 164/152/85 53/54/85 57/45/85
f 164/152/86 163/151/86 58/46/86 54/55/86
f 164/152/7 165/153/7 17/37/7 53/54/7
f 165/153/8 164/152/8 54/55/8 18/38/8
f 165/153/79 162/150/79 29/32/79 17/37/79
f 162/150/80 165/153/80 18/38/80 30/35/80
f 166/154/1 167/155/1 59/4/1 33/18/1
f 167/155/2 166/154/2 34/21/2 60/5/2
f 167/155/87 168/156/87 51/13/87 59/4/87
f 168/156/88 167/155/88 60/5/88 52/14/88
f 168/156/7 169/157/7 15/23/7 51/13/7
f 169/157/8 168/156/8 52/14/8 16/24/8
f 83/29/1 78/15/1 51/13/1 15/23/1
f 78/15/2 83/29/2 16/24/2 52/14/2
f 169/157/79 166/154/79 33/18/79 15/23/79
f 166/154/80 169/157/80 16/24/80 34/21/80
f 170/158/7 171/159/7 69/160/7 67/161/7
f 171/159/8 170/158/8 68/162/8 70/163/8
f 171/159/79 172/164/79 61/165/79 69/160/79
f 172/164/80 171/159/80 70/163/80 62/166/80
f 172/164/1 175/167/1 65/168/1 61/165/1
f 175/167/2 172/164/2 62/166/2 66/169/2
f 174/170/7 173/171/7 61/165/7 65/168/7
f 173/171/8 174/170/8 66/169/8 62/166/8
f 175/167/11 170/158/11 67/161/11 65/168/11
f 170/158/12 175/167/12 66/169/12 68/162/12
f 176/172/79 174/170/79 65/168/79 67/161/79
f 174/170/80 176/172/80 68/162/80 66/169/80
f 177/173/7 178/174/7 71/175/7 69/160/7
f 178/174/8 177/173/8 70/163/8 72/176/8
f 178/174/79 181/177/79 63/178/79 71/175/79
f 181/177/80 178/174/80 72/176/80 64/179/80
f 180/180/11 179/181/11 71/175/11 63/178/11
f 179/181/12 180/180/12 64/179/12 72/176/12
f 181/177/1 182/182/1 61/165/1 63/178/1
f 182/182/2 181/177/2 64/179/2 62/166/2
f 173/171/7 180/180/7 63/178/7 61/165/7
f 180/180/8 173/171/8 62/166/8 64/179/8
f 182/182/11 177/173/11 69/160/11 61/165/11
f 177/173/12 182/182/12 62/166/12 70/163/12
f 183/183/7 184/184/7 39/86/7 11/85/7
f 184/184/8 183/183/8 12/88/8 40/87/8
f 184/184/79 185/185/79 71/175/79 39/86/79
f 185/185/80 184/184/80 40/87/80 72/176/80
f 179/181/11 131/113/11 39/86/11 71/175/11
f 131/113/12 179/181/12 72/176/12 40/87/12
f 185/185/1 186/186/1 69/160/1 71/175/1
f 186/186/2 185/185/2 72/176/2 70/163/2
f 186/186/11 183/183/11 11/85/11 69/160/11
f 183/183/12 186/186/12 70/163/12 12/88/12
f 187/187/7 188/188/7 11/85/7 49/76/7
f 188/188/8 187/187/8 50/77/8 12/88/8
f 188/188/79 189/189/79 69/160/79 11/85/79
f 189/189/80 188/188/80 12/88/80 70/163/80
f 189/189/1 190/190/1 67/161/1 69/160/1
f 190/190/2 189/189/2 70/163/2 68/162/2
f 190/190/11 187/187/11 49/76/11 67/161/11
f 187/187/12 190/190/12 68/162/12 50/77/12
f 106/80/79 176/172/79 67/161/79 49/76/79
f 176/172/80 106/80/80 50/77/80 68/162/80
