# Blender v2.91.2 OBJ File: 'Slappening assests.blend'
# www.blender.org
mtllib Doorframe Entrance 01.mtl
o Doorframe_Entrence_Cube.020
v -3.992024 -0.001441 0.155307
v -3.992024 4.439206 0.155307
v -3.992024 -0.001441 -0.155307
v -3.992024 4.439206 -0.155307
v -3.681410 0.122746 0.058414
v -3.681410 4.439206 0.155307
v -3.681410 0.122746 -0.058415
v -3.681410 4.439206 -0.155307
v -3.992024 4.102686 0.155307
v -3.992024 4.102686 -0.155307
v -3.681410 4.102686 -0.058415
v -3.681410 4.102686 0.058414
v -1.832677 4.102686 -0.058415
v -1.832677 4.102686 0.058414
v -3.681410 4.102686 -0.155307
v -3.681410 -0.001441 -0.155307
v -3.681410 -0.001441 0.155307
v -3.681410 4.102686 0.155307
v -3.709775 4.131052 -0.058415
v -3.709775 4.131052 0.058414
v -3.721525 0.122746 -0.058415
v -3.721525 0.122746 0.058414
v -1.832677 4.142802 -0.058415
v -1.832677 4.142802 0.058414
v 3.992024 -0.001441 0.155307
v 3.992024 4.439206 0.155307
v 3.992024 -0.001441 -0.155307
v 3.992024 4.439206 -0.155307
v 3.681409 0.122746 0.058414
v 3.681409 4.439206 0.155307
v 3.681409 0.122746 -0.058415
v 3.681409 4.439206 -0.155307
v 3.992024 4.102686 0.155307
v 3.992024 4.102686 -0.155307
v 3.681409 4.102686 -0.058415
v 3.681409 4.102686 0.058414
v 0.000000 4.439207 -0.155307
v 0.000000 4.439207 0.155307
v 1.832677 4.102686 -0.058415
v 1.832677 4.102686 0.058414
v 3.681409 4.102686 -0.155307
v 3.681409 -0.001441 -0.155307
v 3.681409 -0.001441 0.155307
v 3.681409 4.102686 0.155307
v 0.000000 4.102686 -0.155307
v 0.000000 4.102686 0.155307
v 3.709775 4.131052 -0.058415
v 3.709775 4.131052 0.058414
v 3.721525 0.122746 -0.058415
v 3.721525 0.122746 0.058414
v 1.832677 4.142802 -0.058415
v 1.832677 4.142802 0.058414
v 0.000000 4.034186 -0.155307
v 0.000000 4.034186 0.155307
v -1.832677 4.034186 -0.058415
v -1.832677 4.034186 0.058414
v 1.832677 4.034186 -0.058415
v 1.832677 4.034186 0.058414
vt 0.947548 0.341737
vt 0.947548 0.369757
vt 0.921685 0.369757
vt 0.921685 0.341737
vt 0.028021 0.664804
vt 0.000000 0.664804
vt 0.000000 0.638941
vt 0.028021 0.638941
vt 0.000000 0.332402
vt 0.028021 0.332402
vt 0.397778 0.025864
vt 0.369757 0.025864
vt 0.369757 0.000000
vt 0.397778 0.000000
vt 0.453302 0.664804
vt 0.479166 0.664804
vt 0.479166 0.690668
vt 0.453302 0.690668
vt 0.895821 0.025864
vt 0.895821 0.000000
vt 0.921685 0.000000
vt 0.921685 0.025864
vt 0.739515 0.025864
vt 0.739515 0.000000
vt 0.491550 0.664804
vt 0.491550 0.674532
vt 0.488210 0.674532
vt 0.488210 0.664804
vt 0.369757 0.664804
vt 0.369757 0.638940
vt 0.947548 0.000000
vt 0.921685 0.000000
vt 0.921685 0.332402
vt 0.895821 0.332402
vt 0.000000 0.996660
vt 0.153937 0.996209
vt 0.156306 0.998564
vt 0.000010 1.000000
vt 0.397778 0.332402
vt 0.369757 0.332402
vt 0.965344 0.683473
vt 0.965344 0.352077
vt 0.973412 0.341737
vt 0.973412 0.683473
vt 0.955616 0.352077
vt 0.947548 0.341737
vt 0.955616 0.683473
vt 0.947548 0.683473
vt 0.370711 0.817405
vt 0.370711 0.664804
vt 0.376415 0.664804
vt 0.376415 0.817405
vt 0.354575 0.817405
vt 0.354575 0.971343
vt 0.346507 0.971343
vt 0.346507 0.664804
vt 0.338439 0.971343
vt 0.338439 0.817405
vt 0.346507 0.664804
vt 0.346507 0.971343
vt 0.983140 0.333758
vt 0.983140 0.667516
vt 0.973412 0.667516
vt 0.973412 0.333758
vt 0.391847 0.821104
vt 0.382119 0.821104
vt 0.382119 0.664804
vt 0.391847 0.664804
vt 0.500594 0.674532
vt 0.500594 0.664804
vt 0.503935 0.664804
vt 0.503935 0.674532
vt 0.310243 0.668596
vt 0.156306 0.668144
vt 0.156316 0.664804
vt 0.312612 0.666241
vt 0.152966 0.664814
vt 0.156306 0.664804
vt 0.309271 0.999990
vt 0.312612 1.000000
vt 0.921685 0.711494
vt 0.947548 0.711494
vt 0.947548 0.739515
vt 0.921685 0.739515
vt 0.028021 0.000000
vt 0.028021 0.025864
vt 0.000000 0.025864
vt 0.000000 0.000000
vt 0.397778 0.638940
vt 0.397778 0.664804
vt 0.369757 0.664804
vt 0.369757 0.638940
vt 0.453302 0.690668
vt 0.427438 0.690668
vt 0.427438 0.664804
vt 0.453302 0.664804
vt 0.895821 0.638940
vt 0.921685 0.638940
vt 0.921685 0.664804
vt 0.895821 0.664804
vt 0.739515 0.638940
vt 0.739515 0.664804
vt 0.482506 0.674532
vt 0.479166 0.674532
vt 0.479166 0.664804
vt 0.482506 0.664804
vt 0.369757 0.000000
vt 0.369757 0.025864
vt 0.921685 0.369757
vt 0.947548 0.369757
vt 0.401575 0.664804
vt 0.427438 0.664804
vt 0.427438 0.692825
vt 0.401575 0.692825
vt 0.739515 0.338536
vt 0.739525 0.335196
vt 0.895821 0.336632
vt 0.893452 0.338987
vt 0.955616 0.341737
vt 0.947548 0.341737
vt 0.947548 0.000000
vt 0.955616 0.010341
vt 0.973412 0.000000
vt 0.965344 0.010341
vt 0.973412 0.341737
vt 0.965344 0.341737
vt 0.376415 0.817405
vt 0.376415 0.664804
vt 0.382118 0.664804
vt 0.382118 0.817405
vt 0.354575 0.817405
vt 0.362643 0.664804
vt 0.362643 0.971343
vt 0.354575 0.971343
vt 0.362643 0.664804
vt 0.370711 0.664804
vt 0.370711 0.971343
vt 0.362643 0.818742
vt 0.973412 0.000000
vt 0.983140 0.000000
vt 0.983140 0.333758
vt 0.973412 0.333758
vt 0.391847 0.821104
vt 0.391847 0.664804
vt 0.401575 0.664804
vt 0.401575 0.821104
vt 0.500594 0.674532
vt 0.497254 0.674532
vt 0.497254 0.664804
vt 0.500594 0.664804
vt 0.893452 0.331404
vt 0.895821 0.333759
vt 0.739525 0.335196
vt 0.739515 0.331856
vt 0.895821 0.670392
vt 0.892480 0.670382
vt 0.892480 0.000010
vt 0.895821 0.000000
vt 0.322326 0.970094
vt 0.312612 0.969580
vt 0.312612 0.816766
vt 0.338439 0.818132
vt 0.338439 0.665318
vt 0.328725 0.664804
vt 0.370711 0.970006
vt 0.376415 0.970006
vt 0.488210 0.664804
vt 0.488210 0.674532
vt 0.376415 0.970006
vt 0.382118 0.970006
vt 0.497254 0.664804
vt 0.497254 0.674532
vn -1.0000 0.0000 0.0000
vn 0.0000 0.0000 -1.0000
vn 0.0000 0.0000 1.0000
vn 0.0000 -1.0000 0.0000
vn 0.0000 1.0000 0.0000
vn 1.0000 0.0000 0.0000
vn 0.0528 0.0000 -0.9986
vn 1.0000 -0.0029 0.0000
vn 0.0063 -1.0000 0.0000
vn -0.0528 0.0000 0.9986
vn -1.0000 -0.0029 0.0000
vn -0.0063 -1.0000 0.0000
vn -0.0528 0.0000 -0.9986
vn 0.0528 0.0000 0.9986
usemtl None
s off
f 9/1/1 2/2/1 4/3/1 10/4/1
f 10/5/2 4/6/2 8/7/2 15/8/2
f 15/8/2 8/7/2 37/9/2 45/10/2
f 18/11/3 6/12/3 2/13/3 9/14/3
f 3/15/4 16/16/4 17/17/4 1/18/4
f 8/19/5 4/20/5 2/21/5 6/22/5
f 17/23/3 18/11/3 9/14/3 1/24/3
f 13/25/1 14/26/1 24/27/1 23/28/1
f 3/29/2 10/5/2 15/8/2 16/30/2
f 1/31/1 9/1/1 10/4/1 3/32/1
f 8/19/5 6/22/5 38/33/5 37/34/5
f 14/35/2 12/36/2 20/37/2 24/38/2
f 6/12/3 18/11/3 46/39/3 38/40/3
f 11/41/6 7/42/6 16/43/6 15/44/6
f 7/42/6 5/45/6 17/46/6 16/43/6
f 5/45/6 12/47/6 18/48/6 17/46/6
f 45/49/7 39/50/7 57/51/7 53/52/7
f 13/53/4 11/54/4 15/55/4 45/56/4
f 12/57/4 14/58/4 46/59/4 18/60/4
f 21/61/8 19/62/8 20/63/8 22/64/8
f 20/65/9 19/66/9 23/67/9 24/68/9
f 5/69/5 7/70/5 21/71/5 22/72/5
f 11/73/3 13/74/3 23/75/3 19/76/3
f 12/36/2 5/77/2 22/78/2 20/37/2
f 7/79/3 11/73/3 19/76/3 21/80/3
f 33/81/6 34/82/6 28/83/6 26/84/6
f 34/85/2 41/86/2 32/87/2 28/88/2
f 41/86/2 45/10/2 37/9/2 32/87/2
f 44/89/3 33/90/3 26/91/3 30/92/3
f 27/93/4 25/94/4 43/95/4 42/96/4
f 32/97/5 30/98/5 26/99/5 28/100/5
f 43/101/3 25/102/3 33/90/3 44/89/3
f 39/103/6 51/104/6 52/105/6 40/106/6
f 27/107/2 42/108/2 41/86/2 34/85/2
f 25/109/6 27/110/6 34/82/6 33/81/6
f 45/111/1 46/112/1 38/113/1 37/114/1
f 32/97/5 37/34/5 38/33/5 30/98/5
f 40/115/2 52/116/2 48/117/2 36/118/2
f 30/92/3 38/40/3 46/39/3 44/89/3
f 35/119/1 41/120/1 42/121/1 31/122/1
f 31/122/1 42/121/1 43/123/1 29/124/1
f 29/124/1 43/123/1 44/125/1 36/126/1
f 46/127/10 14/128/10 56/129/10 54/130/10
f 39/131/4 45/132/4 41/133/4 35/134/4
f 36/135/4 44/136/4 46/137/4 40/138/4
f 49/139/11 50/140/11 48/141/11 47/142/11
f 48/143/12 52/144/12 51/145/12 47/146/12
f 29/147/5 50/148/5 49/149/5 31/150/5
f 35/151/3 47/152/3 51/153/3 39/154/3
f 36/118/2 48/117/2 50/155/2 29/156/2
f 31/157/3 49/158/3 47/152/3 35/151/3
f 56/159/4 55/160/4 53/161/4 54/162/4
f 58/163/4 54/162/4 53/161/4 57/164/4
f 13/165/13 45/49/13 53/52/13 55/166/13
f 39/103/6 40/106/6 58/167/6 57/168/6
f 40/169/14 46/127/14 54/130/14 58/170/14
f 14/26/1 13/25/1 55/171/1 56/172/1
