# Blender v2.91.2 OBJ File: 'Slap Face End Cutscene.blend'
# www.blender.org
mtllib Scissors 01.mtl
o Scissors_Plane
v -0.015831 0.000000 -0.106023
v 0.071640 0.000000 -0.079744
v -0.162337 -0.000000 0.517598
v -0.141311 -0.000000 0.523915
v -0.161219 -0.000000 0.525700
v -0.146709 -0.000000 0.530060
v 0.017409 0.000000 -0.133141
v 0.081864 0.000000 -0.113777
v 0.070802 0.000000 -0.174765
v 0.097754 0.000000 -0.166668
v 0.153096 0.000000 -0.335768
v 0.180048 0.000000 -0.327671
v 0.138901 0.000000 -0.247169
v 0.122213 0.000000 -0.252183
v 0.148344 0.000000 -0.372516
v 0.222459 0.000000 -0.350250
v 0.125261 0.000000 -0.484262
v 0.311342 0.000000 -0.428359
v 0.247412 0.000000 -0.547044
v 0.272903 0.000000 -0.539385
v 0.314799 0.000000 -0.483318
v 0.166965 0.000000 -0.527731
v 0.290747 0.000000 -0.384607
v 0.118922 0.000000 -0.436228
v 0.118280 0.000000 -0.461390
v 0.304856 0.000000 -0.405338
v 0.318017 0.000000 -0.454352
v 0.141166 0.000000 -0.507483
v 0.201336 0.000000 -0.545968
v 0.303463 0.000000 -0.515286
v 0.261570 0.000000 -0.365937
v 0.128666 0.000000 -0.405864
v 0.253244 0.000000 -0.382113
v 0.160342 0.000000 -0.387825
v 0.221599 0.000000 -0.369421
v 0.136462 0.000000 -0.458914
v 0.141774 0.000000 -0.476318
v 0.247170 0.000000 -0.528203
v 0.261875 0.000000 -0.523786
v 0.299649 0.000000 -0.455647
v 0.293850 0.000000 -0.433068
v 0.208045 0.000000 -0.529023
v 0.287279 0.000000 -0.506730
v 0.297028 0.000000 -0.479237
v 0.154537 0.000000 -0.494952
v 0.176879 0.000000 -0.512487
v 0.288222 0.000000 -0.413090
v 0.277860 0.000000 -0.397865
v 0.145294 0.000000 -0.413326
v 0.136963 0.000000 -0.439288
v 0.015831 0.000000 -0.106023
v -0.071640 0.000000 -0.079744
v 0.162337 -0.000000 0.517598
v 0.141311 -0.000000 0.523915
v 0.161219 -0.000000 0.525700
v 0.146709 -0.000000 0.530060
v -0.017409 0.000000 -0.133141
v -0.081864 0.000000 -0.113777
v -0.070802 0.000000 -0.174765
v -0.097754 0.000000 -0.166668
v -0.153096 0.000000 -0.335768
v -0.180048 0.000000 -0.327671
v -0.138901 0.000000 -0.247169
v -0.122214 0.000000 -0.252183
v -0.148344 0.000000 -0.372516
v -0.222459 0.000000 -0.350250
v -0.125261 0.000000 -0.484262
v -0.311342 0.000000 -0.428359
v -0.247412 0.000000 -0.547044
v -0.272903 0.000000 -0.539385
v -0.314799 0.000000 -0.483318
v -0.166965 0.000000 -0.527731
v -0.290747 0.000000 -0.384607
v -0.118923 0.000000 -0.436228
v -0.118280 0.000000 -0.461390
v -0.304856 0.000000 -0.405338
v -0.318017 0.000000 -0.454352
v -0.141166 0.000000 -0.507483
v -0.201336 0.000000 -0.545967
v -0.303463 0.000000 -0.515286
v -0.261570 0.000000 -0.365937
v -0.128666 0.000000 -0.405864
v -0.253244 0.000000 -0.382113
v -0.160342 0.000000 -0.387825
v -0.221599 0.000000 -0.369421
v -0.136462 0.000000 -0.458914
v -0.141774 0.000000 -0.476318
v -0.247171 0.000000 -0.528203
v -0.261875 0.000000 -0.523786
v -0.299649 0.000000 -0.455647
v -0.293850 0.000000 -0.433068
v -0.208046 0.000000 -0.529023
v -0.287279 0.000000 -0.506730
v -0.297028 0.000000 -0.479237
v -0.154537 0.000000 -0.494952
v -0.176879 0.000000 -0.512487
v -0.288222 0.000000 -0.413090
v -0.277860 0.000000 -0.397865
v -0.145294 0.000000 -0.413326
v -0.136963 0.000000 -0.439288
v -0.015831 0.010000 -0.106023
v 0.071640 0.010000 -0.079744
v -0.162337 0.010000 0.517598
v -0.141311 0.010000 0.523915
v -0.161219 0.010000 0.525700
v -0.146709 0.010000 0.530060
v 0.017409 0.010000 -0.133141
v 0.081864 0.010000 -0.113777
v 0.070802 0.010000 -0.174765
v 0.097754 0.010000 -0.166668
v 0.153096 0.010000 -0.335768
v 0.180048 0.010000 -0.327671
v 0.138901 0.010000 -0.247169
v 0.122213 0.010000 -0.252183
v 0.148344 0.010000 -0.372516
v 0.222459 0.010000 -0.350250
v 0.125261 0.010000 -0.484262
v 0.311342 0.010000 -0.428359
v 0.247412 0.010000 -0.547044
v 0.272903 0.010000 -0.539385
v 0.314799 0.010000 -0.483318
v 0.166965 0.010000 -0.527731
v 0.290747 0.010000 -0.384607
v 0.118922 0.010000 -0.436228
v 0.118280 0.010000 -0.461390
v 0.304856 0.010000 -0.405338
v 0.318017 0.010000 -0.454352
v 0.141166 0.010000 -0.507483
v 0.201336 0.010000 -0.545968
v 0.303463 0.010000 -0.515286
v 0.261570 0.010000 -0.365937
v 0.128666 0.010000 -0.405864
v 0.253244 0.010000 -0.382113
v 0.160342 0.010000 -0.387825
v 0.221599 0.010000 -0.369421
v 0.136462 0.010000 -0.458914
v 0.141774 0.010000 -0.476318
v 0.247170 0.010000 -0.528203
v 0.261875 0.010000 -0.523786
v 0.299649 0.010000 -0.455647
v 0.293850 0.010000 -0.433068
v 0.208045 0.010000 -0.529023
v 0.287279 0.010000 -0.506730
v 0.297028 0.010000 -0.479237
v 0.154537 0.010000 -0.494952
v 0.176879 0.010000 -0.512487
v 0.288222 0.010000 -0.413090
v 0.277860 0.010000 -0.397865
v 0.145294 0.010000 -0.413326
v 0.136963 0.010000 -0.439288
v 0.015831 0.010000 -0.106023
v -0.071640 0.010000 -0.079744
v 0.162337 0.010000 0.517598
v 0.141311 0.010000 0.523915
v 0.161219 0.010000 0.525700
v 0.146709 0.010000 0.530060
v -0.017409 0.010000 -0.133141
v -0.081864 0.010000 -0.113777
v -0.070802 0.010000 -0.174765
v -0.097754 0.010000 -0.166668
v -0.153096 0.010000 -0.335768
v -0.180048 0.010000 -0.327671
v -0.138901 0.010000 -0.247169
v -0.122214 0.010000 -0.252183
v -0.148344 0.010000 -0.372516
v -0.222459 0.010000 -0.350250
v -0.125261 0.010000 -0.484262
v -0.311342 0.010000 -0.428359
v -0.247412 0.010000 -0.547044
v -0.272903 0.010000 -0.539385
v -0.314799 0.010000 -0.483318
v -0.166965 0.010000 -0.527731
v -0.290747 0.010000 -0.384607
v -0.118923 0.010000 -0.436228
v -0.118280 0.010000 -0.461390
v -0.304856 0.010000 -0.405338
v -0.318017 0.010000 -0.454352
v -0.141166 0.010000 -0.507483
v -0.201336 0.010000 -0.545967
v -0.303463 0.010000 -0.515286
v -0.261570 0.010000 -0.365937
v -0.128666 0.010000 -0.405864
v -0.253244 0.010000 -0.382113
v -0.160342 0.010000 -0.387825
v -0.221599 0.010000 -0.369421
v -0.136462 0.010000 -0.458914
v -0.141774 0.010000 -0.476318
v -0.247171 0.010000 -0.528203
v -0.261875 0.010000 -0.523786
v -0.299649 0.010000 -0.455647
v -0.293850 0.010000 -0.433068
v -0.208046 0.010000 -0.529023
v -0.287279 0.010000 -0.506730
v -0.297028 0.010000 -0.479237
v -0.154537 0.010000 -0.494952
v -0.176879 0.010000 -0.512487
v -0.288222 0.010000 -0.413090
v -0.277860 0.010000 -0.397865
v -0.145294 0.010000 -0.413326
v -0.136963 0.010000 -0.439288
vt 0.031813 0.449143
vt 0.110405 0.436800
vt 0.170778 0.991092
vt 0.151886 0.994059
vt 0.168856 0.997952
vt 0.155819 1.000000
vt 0.047690 0.415318
vt 0.105602 0.406222
vt 0.073923 0.362503
vt 0.098139 0.358700
vt 0.100098 0.279975
vt 0.085104 0.282330
vt 0.077841 0.205054
vt 0.102057 0.201251
vt 0.060255 0.177990
vt 0.126846 0.167531
vt 0.063905 0.161446
vt 0.118944 0.152802
vt 0.139007 0.130906
vt 0.151644 0.140469
vt 0.015962 0.098959
vt 0.018353 0.114628
vt 0.003142 0.119539
vt 0.000000 0.098947
vt 0.092372 0.016407
vt 0.079160 0.018482
vt 0.072247 0.003597
vt 0.095151 0.000000
vt 0.151681 0.075585
vt 0.147722 0.055670
vt 0.162633 0.049761
vt 0.167192 0.072689
vt 0.048129 0.032589
vt 0.036472 0.021813
vt 0.136770 0.038134
vt 0.118750 0.020222
vt 0.128233 0.007402
vt 0.149186 0.028230
vt 0.029891 0.057324
vt 0.018959 0.079516
vt 0.003735 0.074717
vt 0.016359 0.049091
vt 0.152398 0.109257
vt 0.154794 0.093395
vt 0.170778 0.093211
vt 0.167515 0.114808
vt 0.026145 0.129850
vt 0.042475 0.147095
vt 0.032231 0.159223
vt 0.013133 0.139055
vt 0.031813 0.449143
vt 0.151886 0.994059
vt 0.170778 0.991092
vt 0.110405 0.436800
vt 0.155819 1.000000
vt 0.168856 0.997952
vt 0.105602 0.406222
vt 0.047690 0.415318
vt 0.098139 0.358700
vt 0.073923 0.362503
vt 0.100098 0.279975
vt 0.102057 0.201251
vt 0.077841 0.205054
vt 0.085104 0.282330
vt 0.126846 0.167531
vt 0.060255 0.177990
vt 0.063905 0.161446
vt 0.118944 0.152802
vt 0.151644 0.140469
vt 0.139007 0.130906
vt 0.015962 0.098959
vt 0.000000 0.098947
vt 0.003142 0.119539
vt 0.018353 0.114628
vt 0.092372 0.016407
vt 0.095151 0.000000
vt 0.072247 0.003597
vt 0.079160 0.018482
vt 0.151681 0.075585
vt 0.167192 0.072689
vt 0.162633 0.049761
vt 0.147722 0.055670
vt 0.036472 0.021813
vt 0.048129 0.032589
vt 0.136770 0.038134
vt 0.149186 0.028230
vt 0.128233 0.007402
vt 0.118750 0.020222
vt 0.029891 0.057324
vt 0.016359 0.049091
vt 0.003735 0.074717
vt 0.018959 0.079516
vt 0.152398 0.109257
vt 0.167515 0.114808
vt 0.170778 0.093211
vt 0.154794 0.093395
vt 0.026145 0.129850
vt 0.013133 0.139055
vt 0.032231 0.159223
vt 0.042475 0.147095
vt 0.031813 0.449143
vt 0.151886 0.994059
vt 0.170778 0.991092
vt 0.110405 0.436800
vt 0.155819 1.000000
vt 0.168856 0.997952
vt 0.105602 0.406222
vt 0.047690 0.415318
vt 0.098139 0.358700
vt 0.073923 0.362503
vt 0.100098 0.279975
vt 0.102057 0.201251
vt 0.077841 0.205054
vt 0.085104 0.282330
vt 0.126846 0.167531
vt 0.060255 0.177990
vt 0.063905 0.161446
vt 0.118944 0.152802
vt 0.151644 0.140469
vt 0.139007 0.130906
vt 0.015962 0.098959
vt 0.000000 0.098947
vt 0.003142 0.119539
vt 0.018353 0.114628
vt 0.092372 0.016407
vt 0.095151 0.000000
vt 0.072247 0.003597
vt 0.079160 0.018482
vt 0.151681 0.075585
vt 0.167192 0.072689
vt 0.162633 0.049761
vt 0.147722 0.055670
vt 0.036472 0.021813
vt 0.048129 0.032589
vt 0.136770 0.038134
vt 0.149186 0.028230
vt 0.128233 0.007402
vt 0.118750 0.020222
vt 0.029891 0.057324
vt 0.016359 0.049091
vt 0.003735 0.074717
vt 0.018959 0.079516
vt 0.152398 0.109257
vt 0.167515 0.114808
vt 0.170778 0.093211
vt 0.154794 0.093395
vt 0.026145 0.129850
vt 0.013133 0.139055
vt 0.032231 0.159223
vt 0.042475 0.147095
vt 0.031813 0.449143
vt 0.110405 0.436800
vt 0.170778 0.991092
vt 0.151886 0.994059
vt 0.168856 0.997952
vt 0.155819 1.000000
vt 0.047690 0.415318
vt 0.105602 0.406222
vt 0.073923 0.362503
vt 0.098139 0.358700
vt 0.100098 0.279975
vt 0.085104 0.282330
vt 0.077841 0.205054
vt 0.102057 0.201251
vt 0.060255 0.177990
vt 0.126846 0.167531
vt 0.063905 0.161446
vt 0.118944 0.152802
vt 0.139007 0.130906
vt 0.151644 0.140469
vt 0.015962 0.098959
vt 0.018353 0.114628
vt 0.003142 0.119539
vt 0.000000 0.098947
vt 0.092372 0.016407
vt 0.079160 0.018482
vt 0.072247 0.003597
vt 0.095151 0.000000
vt 0.151681 0.075585
vt 0.147722 0.055670
vt 0.162633 0.049761
vt 0.167192 0.072689
vt 0.048129 0.032589
vt 0.036472 0.021813
vt 0.136770 0.038134
vt 0.118750 0.020222
vt 0.128233 0.007402
vt 0.149186 0.028230
vt 0.029891 0.057324
vt 0.018959 0.079516
vt 0.003735 0.074717
vt 0.016359 0.049091
vt 0.152398 0.109257
vt 0.154794 0.093395
vt 0.170778 0.093211
vt 0.167515 0.114808
vt 0.026145 0.129850
vt 0.042475 0.147095
vt 0.032231 0.159223
vt 0.013133 0.139055
vn 0.0000 -1.0000 -0.0000
vn -0.0000 1.0000 0.0000
vn -0.9735 0.0000 -0.2287
vn 0.9430 0.0000 0.3327
vn -0.2877 0.0000 0.9577
vn -0.9906 0.0000 0.1367
vn 0.7513 0.0000 0.6600
vn 0.9577 0.0000 0.2877
vn -0.6321 0.0000 -0.7749
vn -0.6148 0.0000 -0.7887
vn 0.8904 0.0000 0.4551
vn -0.9380 0.0000 -0.3466
vn -0.8330 0.0000 -0.5532
vn 0.4700 0.0000 0.8827
vn -0.9917 0.0000 0.1282
vn -0.3722 0.0000 -0.9281
vn 0.9564 0.0000 0.2919
vn -0.9686 0.0000 -0.2487
vn -0.0209 0.0000 0.9998
vn -0.9425 0.0000 0.3342
vn 0.6174 0.0000 0.7866
vn -0.8267 0.0000 -0.5626
vn 0.9522 0.0000 -0.3056
vn 0.9997 0.0000 -0.0255
vn -0.9625 0.0000 -0.2712
vn -0.9939 0.0000 0.1104
vn 0.8250 0.0000 0.5651
vn 0.4687 0.0000 0.8834
vn -0.5574 0.0000 0.8302
vn -0.5390 0.0000 -0.8423
vn 0.8612 0.0000 -0.5082
vn 0.2877 0.0000 -0.9577
vn 0.3722 0.0000 0.9281
vn -0.9564 0.0000 -0.2919
vn 0.9686 0.0000 0.2487
vn -0.0233 0.0000 -0.9997
vn 0.9425 0.0000 -0.3342
vn -0.6174 0.0000 -0.7866
vn 0.8267 0.0000 0.5626
vn -0.9522 0.0000 0.3056
vn -0.9997 0.0000 0.0255
vn 0.9625 0.0000 0.2712
vn 0.9939 0.0000 -0.1104
vn -0.8250 0.0000 -0.5651
vn -0.4687 0.0000 -0.8834
vn 0.6192 0.0000 -0.7852
vn 0.5390 0.0000 0.8423
vn -0.8612 0.0000 0.5082
vn 0.9735 0.0000 -0.2287
vn -0.9430 0.0000 0.3327
vn 0.2877 0.0000 0.9577
vn 0.9906 0.0000 0.1367
vn -0.7513 0.0000 0.6600
vn -0.9577 0.0000 0.2877
vn 0.6321 0.0000 -0.7749
vn 0.6148 0.0000 -0.7887
vn -0.8904 0.0000 0.4551
vn 0.9380 0.0000 -0.3466
vn 0.8330 0.0000 -0.5532
vn -0.4700 0.0000 0.8827
vn 0.9917 0.0000 0.1282
vn 0.3722 0.0000 -0.9281
vn -0.9564 0.0000 0.2919
vn 0.9686 0.0000 -0.2487
vn 0.0209 0.0000 0.9998
vn 0.9425 0.0000 0.3342
vn -0.6174 0.0000 0.7866
vn 0.8267 0.0000 -0.5626
vn -0.9522 0.0000 -0.3056
vn -0.9997 0.0000 -0.0255
vn 0.9625 0.0000 -0.2712
vn 0.9939 0.0000 0.1104
vn -0.8250 0.0000 0.5651
vn -0.4687 0.0000 0.8834
vn 0.5574 0.0000 0.8302
vn 0.5390 0.0000 -0.8423
vn -0.8612 0.0000 -0.5082
vn -0.2877 0.0000 -0.9577
vn -0.3722 0.0000 0.9281
vn 0.9564 0.0000 -0.2919
vn -0.9686 0.0000 0.2487
vn 0.0233 0.0000 -0.9997
vn -0.9425 0.0000 -0.3342
vn 0.6174 0.0000 -0.7867
vn -0.8267 0.0000 0.5626
vn 0.9522 0.0000 0.3056
vn 0.9997 0.0000 0.0255
vn -0.9625 0.0000 0.2712
vn -0.9939 0.0000 -0.1104
vn 0.8250 0.0000 -0.5651
vn 0.4687 0.0000 -0.8834
vn -0.6192 0.0000 -0.7852
vn -0.5390 0.0000 0.8423
vn 0.8612 0.0000 0.5082
usemtl Metal
s off
f 1/1/1 2/2/1 4/3/1 3/4/1
f 3/4/1 4/3/1 6/5/1 5/6/1
f 2/2/1 1/1/1 7/7/1 8/8/1
f 8/8/1 7/7/1 9/9/1 10/10/1
f 13/11/1 14/12/1 11/13/1 12/14/1
f 10/10/1 9/9/1 14/12/1 13/11/1
f 12/14/1 11/13/1 15/15/1 16/16/1
f 34/17/1 35/18/1 16/16/1 15/15/1
f 35/18/1 33/19/1 31/20/1 16/16/1
f 37/21/1 36/22/1 25/23/1 17/24/1
f 39/25/1 38/26/1 19/27/1 20/28/1
f 41/29/1 40/30/1 27/31/1 18/32/1
f 38/26/1 42/33/1 29/34/1 19/27/1
f 44/35/1 43/36/1 30/37/1 21/38/1
f 46/39/1 45/40/1 28/41/1 22/42/1
f 48/43/1 47/44/1 26/45/1 23/46/1
f 50/47/1 49/48/1 32/49/1 24/50/1
f 36/22/1 50/47/1 24/50/1 25/23/1
f 47/44/1 41/29/1 18/32/1 26/45/1
f 40/30/1 44/35/1 21/38/1 27/31/1
f 45/40/1 37/21/1 17/24/1 28/41/1
f 42/33/1 46/39/1 22/42/1 29/34/1
f 43/36/1 39/25/1 20/28/1 30/37/1
f 33/19/1 48/43/1 23/46/1 31/20/1
f 49/48/1 34/17/1 15/15/1 32/49/1
f 51/51/1 53/52/1 54/53/1 52/54/1
f 53/52/1 55/55/1 56/56/1 54/53/1
f 52/54/1 58/57/1 57/58/1 51/51/1
f 58/57/1 60/59/1 59/60/1 57/58/1
f 63/61/1 62/62/1 61/63/1 64/64/1
f 60/59/1 63/61/1 64/64/1 59/60/1
f 62/62/1 66/65/1 65/66/1 61/63/1
f 84/67/1 65/66/1 66/65/1 85/68/1
f 85/68/1 66/65/1 81/69/1 83/70/1
f 87/71/1 67/72/1 75/73/1 86/74/1
f 89/75/1 70/76/1 69/77/1 88/78/1
f 91/79/1 68/80/1 77/81/1 90/82/1
f 88/78/1 69/77/1 79/83/1 92/84/1
f 94/85/1 71/86/1 80/87/1 93/88/1
f 96/89/1 72/90/1 78/91/1 95/92/1
f 98/93/1 73/94/1 76/95/1 97/96/1
f 100/97/1 74/98/1 82/99/1 99/100/1
f 86/74/1 75/73/1 74/98/1 100/97/1
f 97/96/1 76/95/1 68/80/1 91/79/1
f 90/82/1 77/81/1 71/86/1 94/85/1
f 95/92/1 78/91/1 67/72/1 87/71/1
f 92/84/1 79/83/1 72/90/1 96/89/1
f 93/88/1 80/87/1 70/76/1 89/75/1
f 83/70/1 81/69/1 73/94/1 98/93/1
f 99/100/1 82/99/1 65/66/1 84/67/1
f 101/101/2 103/102/2 104/103/2 102/104/2
f 103/102/2 105/105/2 106/106/2 104/103/2
f 102/104/2 108/107/2 107/108/2 101/101/2
f 108/107/2 110/109/2 109/110/2 107/108/2
f 113/111/2 112/112/2 111/113/2 114/114/2
f 110/109/2 113/111/2 114/114/2 109/110/2
f 112/112/2 116/115/2 115/116/2 111/113/2
f 134/117/2 115/116/2 116/115/2 135/118/2
f 135/118/2 116/115/2 131/119/2 133/120/2
f 137/121/2 117/122/2 125/123/2 136/124/2
f 139/125/2 120/126/2 119/127/2 138/128/2
f 141/129/2 118/130/2 127/131/2 140/132/2
f 138/128/2 119/127/2 129/133/2 142/134/2
f 144/135/2 121/136/2 130/137/2 143/138/2
f 146/139/2 122/140/2 128/141/2 145/142/2
f 148/143/2 123/144/2 126/145/2 147/146/2
f 150/147/2 124/148/2 132/149/2 149/150/2
f 136/124/2 125/123/2 124/148/2 150/147/2
f 147/146/2 126/145/2 118/130/2 141/129/2
f 140/132/2 127/131/2 121/136/2 144/135/2
f 145/142/2 128/141/2 117/122/2 137/121/2
f 142/134/2 129/133/2 122/140/2 146/139/2
f 143/138/2 130/137/2 120/126/2 139/125/2
f 133/120/2 131/119/2 123/144/2 148/143/2
f 149/150/2 132/149/2 115/116/2 134/117/2
f 151/151/2 152/152/2 154/153/2 153/154/2
f 153/154/2 154/153/2 156/155/2 155/156/2
f 152/152/2 151/151/2 157/157/2 158/158/2
f 158/158/2 157/157/2 159/159/2 160/160/2
f 163/161/2 164/162/2 161/163/2 162/164/2
f 160/160/2 159/159/2 164/162/2 163/161/2
f 162/164/2 161/163/2 165/165/2 166/166/2
f 184/167/2 185/168/2 166/166/2 165/165/2
f 185/168/2 183/169/2 181/170/2 166/166/2
f 187/171/2 186/172/2 175/173/2 167/174/2
f 189/175/2 188/176/2 169/177/2 170/178/2
f 191/179/2 190/180/2 177/181/2 168/182/2
f 188/176/2 192/183/2 179/184/2 169/177/2
f 194/185/2 193/186/2 180/187/2 171/188/2
f 196/189/2 195/190/2 178/191/2 172/192/2
f 198/193/2 197/194/2 176/195/2 173/196/2
f 200/197/2 199/198/2 182/199/2 174/200/2
f 186/172/2 200/197/2 174/200/2 175/173/2
f 197/194/2 191/179/2 168/182/2 176/195/2
f 190/180/2 194/185/2 171/188/2 177/181/2
f 195/190/2 187/171/2 167/174/2 178/191/2
f 192/183/2 196/189/2 172/192/2 179/184/2
f 193/186/2 189/175/2 170/178/2 180/187/2
f 183/169/2 198/193/2 173/196/2 181/170/2
f 199/198/2 184/167/2 165/165/2 182/199/2
f 1/1/3 3/4/3 103/102/3 101/101/3
f 4/3/4 2/2/4 102/104/4 104/103/4
f 5/6/5 6/5/5 106/106/5 105/105/5
f 3/4/6 5/6/6 105/105/6 103/102/6
f 6/5/7 4/3/7 104/103/7 106/106/7
f 2/2/8 8/8/8 108/107/8 102/104/8
f 7/7/9 1/1/9 101/101/9 107/108/9
f 8/8/8 10/10/8 110/109/8 108/107/8
f 9/9/10 7/7/10 107/108/10 109/110/10
f 10/10/11 13/11/11 113/111/11 110/109/11
f 11/13/12 14/12/12 114/114/12 111/113/12
f 13/11/11 12/14/11 112/112/11 113/111/11
f 14/12/13 9/9/13 109/110/13 114/114/13
f 12/14/14 16/16/14 116/115/14 112/112/14
f 15/15/15 11/13/15 111/113/15 115/116/15
f 33/19/16 35/18/16 135/118/16 133/120/16
f 36/22/17 37/21/17 137/121/17 136/124/17
f 38/26/5 39/25/5 139/125/5 138/128/5
f 40/30/18 41/29/18 141/129/18 140/132/18
f 42/33/19 38/26/19 138/128/19 142/134/19
f 43/36/20 44/35/20 144/135/20 143/138/20
f 45/40/21 46/39/21 146/139/21 145/142/21
f 47/44/22 48/43/22 148/143/22 147/146/22
f 49/48/23 50/47/23 150/147/23 149/150/23
f 50/47/24 36/22/24 136/124/24 150/147/24
f 41/29/25 47/44/25 147/146/25 141/129/25
f 44/35/26 40/30/26 140/132/26 144/135/26
f 37/21/27 45/40/27 145/142/27 137/121/27
f 46/39/28 42/33/28 142/134/28 146/139/28
f 39/25/29 43/36/29 143/138/29 139/125/29
f 48/43/30 33/19/30 133/120/30 148/143/30
f 34/17/31 49/48/31 149/150/31 134/117/31
f 35/18/32 34/17/32 134/117/32 135/118/32
f 16/16/33 31/20/33 131/119/33 116/115/33
f 17/24/34 25/23/34 125/123/34 117/122/34
f 20/28/32 19/27/32 119/127/32 120/126/32
f 18/32/35 27/31/35 127/131/35 118/130/35
f 19/27/36 29/34/36 129/133/36 119/127/36
f 21/38/37 30/37/37 130/137/37 121/136/37
f 22/42/38 28/41/38 128/141/38 122/140/38
f 23/46/39 26/45/39 126/145/39 123/144/39
f 24/50/40 32/49/40 132/149/40 124/148/40
f 25/23/41 24/50/41 124/148/41 125/123/41
f 26/45/42 18/32/42 118/130/42 126/145/42
f 27/31/43 21/38/43 121/136/43 127/131/43
f 28/41/44 17/24/44 117/122/44 128/141/44
f 29/34/45 22/42/45 122/140/45 129/133/45
f 30/37/46 20/28/46 120/126/46 130/137/46
f 31/20/47 23/46/47 123/144/47 131/119/47
f 32/49/48 15/15/48 115/116/48 132/149/48
f 53/52/49 51/51/49 151/151/49 153/154/49
f 52/54/50 54/53/50 154/153/50 152/152/50
f 56/56/51 55/55/51 155/156/51 156/155/51
f 55/55/52 53/52/52 153/154/52 155/156/52
f 54/53/53 56/56/53 156/155/53 154/153/53
f 58/57/54 52/54/54 152/152/54 158/158/54
f 51/51/55 57/58/55 157/157/55 151/151/55
f 60/59/54 58/57/54 158/158/54 160/160/54
f 57/58/56 59/60/56 159/159/56 157/157/56
f 63/61/57 60/59/57 160/160/57 163/161/57
f 64/64/58 61/63/58 161/163/58 164/162/58
f 62/62/57 63/61/57 163/161/57 162/164/57
f 59/60/59 64/64/59 164/162/59 159/159/59
f 66/65/60 62/62/60 162/164/60 166/166/60
f 61/63/61 65/66/61 165/165/61 161/163/61
f 85/68/62 83/70/62 183/169/62 185/168/62
f 87/71/63 86/74/63 186/172/63 187/171/63
f 89/75/51 88/78/51 188/176/51 189/175/51
f 91/79/64 90/82/64 190/180/64 191/179/64
f 88/78/65 92/84/65 192/183/65 188/176/65
f 94/85/66 93/88/66 193/186/66 194/185/66
f 96/89/67 95/92/67 195/190/67 196/189/67
f 98/93/68 97/96/68 197/194/68 198/193/68
f 100/97/69 99/100/69 199/198/69 200/197/69
f 86/74/70 100/97/70 200/197/70 186/172/70
f 97/96/71 91/79/71 191/179/71 197/194/71
f 90/82/72 94/85/72 194/185/72 190/180/72
f 95/92/73 87/71/73 187/171/73 195/190/73
f 92/84/74 96/89/74 196/189/74 192/183/74
f 93/88/75 89/75/75 189/175/75 193/186/75
f 83/70/76 98/93/76 198/193/76 183/169/76
f 99/100/77 84/67/77 184/167/77 199/198/77
f 84/67/78 85/68/78 185/168/78 184/167/78
f 81/69/79 66/65/79 166/166/79 181/170/79
f 75/73/80 67/72/80 167/174/80 175/173/80
f 69/77/78 70/76/78 170/178/78 169/177/78
f 77/81/81 68/80/81 168/182/81 177/181/81
f 79/83/82 69/77/82 169/177/82 179/184/82
f 80/87/83 71/86/83 171/188/83 180/187/83
f 78/91/84 72/90/84 172/192/84 178/191/84
f 76/95/85 73/94/85 173/196/85 176/195/85
f 82/99/86 74/98/86 174/200/86 182/199/86
f 74/98/87 75/73/87 175/173/87 174/200/87
f 68/80/88 76/95/88 176/195/88 168/182/88
f 71/86/89 77/81/89 177/181/89 171/188/89
f 67/72/90 78/91/90 178/191/90 167/174/90
f 72/90/91 79/83/91 179/184/91 172/192/91
f 70/76/92 80/87/92 180/187/92 170/178/92
f 73/94/93 81/69/93 181/170/93 173/196/93
f 65/66/94 82/99/94 182/199/94 165/165/94
